<?xml version="1.0" encoding="UTF-8" standalone="no"?>
<!DOCTYPE svg PUBLIC "-//W3C//DTD SVG 1.1//EN"
 "http://www.w3.org/Graphics/SVG/1.1/DTD/svg11.dtd">
<!-- Generated by graphviz version 6.0.1 (20220911.1526)
 -->
<!-- Title: OnlyTool: ELUnsuperSegmentation Pages: 1 -->
<svg width="1061pt" height="2105pt"
 viewBox="0.00 0.00 1061.00 2105.15" xmlns="http://www.w3.org/2000/svg" xmlns:xlink="http://www.w3.org/1999/xlink">
<g id="graph0" class="graph" transform="scale(1 1) rotate(0) translate(4 2101.15)">
<title>OnlyTool: ELUnsuperSegmentation</title>
<polygon fill="white" stroke="none" points="-4,4 -4,-2101.15 1057,-2101.15 1057,4 -4,4"/>
<text text-anchor="middle" x="526.5" y="-7.8" font-family="Times New Roman,serif" font-size="14.00">OnlyTool: ELUnsuperSegmentation</text>
<g id="clust1" class="cluster">
<title>cluster_ELUnsuperSegmentation</title>
<polygon fill="none" stroke="black" points="20,-31 20,-2089.15 1000,-2089.15 1000,-31 20,-31"/>
<text text-anchor="middle" x="510" y="-2073.95" font-family="Times New Roman,serif" font-size="14.00">ELUnsuperSegmentation</text>
</g>
<!-- ELUnsuperSegmentation/featmap_filter -->
<g id="node1" class="node">
<title>ELUnsuperSegmentation/featmap_filter</title>
<ellipse fill="lightblue" stroke="blue" cx="376" cy="-510.28" rx="225.63" ry="58.88"/>
<text text-anchor="start" x="224.5" y="-536.58" font-family="Times New Roman,serif" font-size="14.00">id: ELUnsuperSegmentation/featmap_filter</text>
<text text-anchor="start" x="224.5" y="-521.58" font-family="Times New Roman,serif" font-size="14.00">type: visionflow::opers::SegmentationFeatureMapFilter</text>
<text text-anchor="start" x="224.5" y="-506.58" font-family="Times New Roman,serif" font-size="14.00">update: 1970&#45;01&#45;01 00:00:00.0000000</text>
<text text-anchor="start" x="224.5" y="-491.58" font-family="Times New Roman,serif" font-size="14.00">docs: Operator to filter feature map </text>
<text text-anchor="start" x="224.5" y="-476.58" font-family="Times New Roman,serif" font-size="14.00">into list of polygon regions.</text>
</g>
<!-- ELUnsuperSegmentation/raw_pred -->
<g id="node13" class="node">
<title>ELUnsuperSegmentation/raw_pred</title>
<polygon fill="lightblue" stroke="blue" points="537.5,-415.59 280.5,-415.59 280.5,-332.59 537.5,-332.59 537.5,-415.59"/>
<text text-anchor="start" x="288.5" y="-400.39" font-family="Times New Roman,serif" font-size="14.00">id: ELUnsuperSegmentation/raw_pred</text>
<text text-anchor="start" x="288.5" y="-385.39" font-family="Times New Roman,serif" font-size="14.00">type: visionflow::props::PolygonRegionList</text>
<text text-anchor="start" x="288.5" y="-370.39" font-family="Times New Roman,serif" font-size="14.00">update: 1970&#45;01&#45;01 00:00:00.0000000</text>
<text text-anchor="start" x="288.5" y="-355.39" font-family="Times New Roman,serif" font-size="14.00">docs: List structure to manage polygon </text>
<text text-anchor="start" x="288.5" y="-340.39" font-family="Times New Roman,serif" font-size="14.00">regions.</text>
</g>
<!-- ELUnsuperSegmentation/featmap_filter&#45;&gt;ELUnsuperSegmentation/raw_pred -->
<g id="edge1" class="edge">
<title>ELUnsuperSegmentation/featmap_filter&#45;&gt;ELUnsuperSegmentation/raw_pred</title>
<path fill="none" stroke="black" d="M390.19,-451.6C392.32,-442.92 394.51,-434.02 396.6,-425.51"/>
<polygon fill="black" stroke="black" points="400.02,-426.28 399.01,-415.73 393.22,-424.6 400.02,-426.28"/>
</g>
<!-- ELUnsuperSegmentation/filter -->
<g id="node2" class="node">
<title>ELUnsuperSegmentation/filter</title>
<ellipse fill="lightblue" stroke="blue" cx="556" cy="-227.3" rx="166.75" ry="69.09"/>
<text text-anchor="start" x="446" y="-261.1" font-family="Times New Roman,serif" font-size="14.00">id: ELUnsuperSegmentation/filter</text>
<text text-anchor="start" x="446" y="-246.1" font-family="Times New Roman,serif" font-size="14.00">type: visionflow::opers::PolygonsFilter</text>
<text text-anchor="start" x="446" y="-231.1" font-family="Times New Roman,serif" font-size="14.00">update: 1970&#45;01&#45;01 00:00:00.0000000</text>
<text text-anchor="start" x="446" y="-216.1" font-family="Times New Roman,serif" font-size="14.00">docs: An operator to filter list of </text>
<text text-anchor="start" x="446" y="-201.1" font-family="Times New Roman,serif" font-size="14.00">regions with some common thresholds </text>
<text text-anchor="start" x="446" y="-186.1" font-family="Times New Roman,serif" font-size="14.00">or customized python filter script.</text>
</g>
<!-- ELUnsuperSegmentation/pred -->
<g id="node19" class="node">
<title>ELUnsuperSegmentation/pred</title>
<polygon fill="none" stroke="blue" stroke-dasharray="5,2" points="684.5,-122 427.5,-122 427.5,-39 684.5,-39 684.5,-122"/>
<text text-anchor="start" x="435.5" y="-106.8" font-family="Times New Roman,serif" font-size="14.00">id: ELUnsuperSegmentation/pred</text>
<text text-anchor="start" x="435.5" y="-91.8" font-family="Times New Roman,serif" font-size="14.00">type: visionflow::props::PolygonRegionList</text>
<text text-anchor="start" x="435.5" y="-76.8" font-family="Times New Roman,serif" font-size="14.00">update: 1970&#45;01&#45;01 00:00:00.0000000</text>
<text text-anchor="start" x="435.5" y="-61.8" font-family="Times New Roman,serif" font-size="14.00">docs: List structure to manage polygon </text>
<text text-anchor="start" x="435.5" y="-46.8" font-family="Times New Roman,serif" font-size="14.00">regions.</text>
</g>
<!-- ELUnsuperSegmentation/filter&#45;&gt;ELUnsuperSegmentation/pred -->
<g id="edge5" class="edge">
<title>ELUnsuperSegmentation/filter&#45;&gt;ELUnsuperSegmentation/pred</title>
<path fill="none" stroke="black" d="M556,-157.71C556,-149.18 556,-140.58 556,-132.38"/>
<polygon fill="black" stroke="black" points="559.5,-132.25 556,-122.25 552.5,-132.25 559.5,-132.25"/>
</g>
<!-- ELUnsuperSegmentation/infer -->
<g id="node3" class="node">
<title>ELUnsuperSegmentation/infer</title>
<ellipse fill="lightblue" stroke="blue" cx="298" cy="-797.66" rx="222.06" ry="58.88"/>
<text text-anchor="start" x="149" y="-823.96" font-family="Times New Roman,serif" font-size="14.00">id: ELUnsuperSegmentation/infer</text>
<text text-anchor="start" x="149" y="-808.96" font-family="Times New Roman,serif" font-size="14.00">type: visionflow::opers::ELUnsuperSegmentationInfer</text>
<text text-anchor="start" x="149" y="-793.96" font-family="Times New Roman,serif" font-size="14.00">update: 1970&#45;01&#45;01 00:00:00.0000000</text>
<text text-anchor="start" x="149" y="-778.96" font-family="Times New Roman,serif" font-size="14.00">docs: EL&#45;UnsuperSegmentation inference </text>
<text text-anchor="start" x="149" y="-763.96" font-family="Times New Roman,serif" font-size="14.00">operator.</text>
</g>
<!-- ELUnsuperSegmentation/feature_map -->
<g id="node12" class="node">
<title>ELUnsuperSegmentation/feature_map</title>
<polygon fill="lightblue" stroke="blue" points="436.5,-702.97 191.5,-702.97 191.5,-604.97 436.5,-604.97 436.5,-702.97"/>
<text text-anchor="start" x="199.5" y="-687.77" font-family="Times New Roman,serif" font-size="14.00">id: ELUnsuperSegmentation/feature_map</text>
<text text-anchor="start" x="199.5" y="-672.77" font-family="Times New Roman,serif" font-size="14.00">type: visionflow::props::FeatureMap</text>
<text text-anchor="start" x="199.5" y="-657.77" font-family="Times New Roman,serif" font-size="14.00">update: 1970&#45;01&#45;01 00:00:00.0000000</text>
<text text-anchor="start" x="199.5" y="-642.77" font-family="Times New Roman,serif" font-size="14.00">docs: A data structure used to store </text>
<text text-anchor="start" x="199.5" y="-627.77" font-family="Times New Roman,serif" font-size="14.00">feature maps detected by each </text>
<text text-anchor="start" x="199.5" y="-612.77" font-family="Times New Roman,serif" font-size="14.00">algorithm module.</text>
</g>
<!-- ELUnsuperSegmentation/infer&#45;&gt;ELUnsuperSegmentation/feature_map -->
<g id="edge11" class="edge">
<title>ELUnsuperSegmentation/infer&#45;&gt;ELUnsuperSegmentation/feature_map</title>
<path fill="none" stroke="black" d="M304.55,-738.62C305.5,-730.26 306.47,-721.64 307.42,-713.27"/>
<polygon fill="black" stroke="black" points="310.91,-713.54 308.55,-703.21 303.95,-712.75 310.91,-713.54"/>
</g>
<!-- ELUnsuperSegmentation/label_oper -->
<g id="node4" class="node">
<title>ELUnsuperSegmentation/label_oper</title>
<ellipse fill="lightblue" stroke="blue" cx="754" cy="-1727.08" rx="232.78" ry="58.88"/>
<text text-anchor="start" x="597.5" y="-1753.38" font-family="Times New Roman,serif" font-size="14.00">id: ELUnsuperSegmentation/label_oper</text>
<text text-anchor="start" x="597.5" y="-1738.38" font-family="Times New Roman,serif" font-size="14.00">type: visionflow::opers::ELUnsuperSegmentationLabeler</text>
<text text-anchor="start" x="597.5" y="-1723.38" font-family="Times New Roman,serif" font-size="14.00">update: 1970&#45;01&#45;01 00:00:00.0000000</text>
<text text-anchor="start" x="597.5" y="-1708.38" font-family="Times New Roman,serif" font-size="14.00">docs: Annotate operator for EL&#45;UnsuperSegmentation </text>
<text text-anchor="start" x="597.5" y="-1693.38" font-family="Times New Roman,serif" font-size="14.00">tool.</text>
</g>
<!-- ELUnsuperSegmentation/tagged_polygons -->
<g id="node14" class="node">
<title>ELUnsuperSegmentation/tagged_polygons</title>
<polygon fill="lightblue" stroke="blue" points="711.5,-1624.89 406.5,-1624.89 406.5,-1556.89 711.5,-1556.89 711.5,-1624.89"/>
<text text-anchor="start" x="414.5" y="-1609.69" font-family="Times New Roman,serif" font-size="14.00">id: ELUnsuperSegmentation/tagged_polygons</text>
<text text-anchor="start" x="414.5" y="-1594.69" font-family="Times New Roman,serif" font-size="14.00">type: visionflow::props::TaggedPolygonList</text>
<text text-anchor="start" x="414.5" y="-1579.69" font-family="Times New Roman,serif" font-size="14.00">update: 1970&#45;01&#45;01 00:00:00.0000000</text>
<text text-anchor="start" x="414.5" y="-1564.69" font-family="Times New Roman,serif" font-size="14.00">docs: Property TaggedPolygonList implementation.</text>
</g>
<!-- ELUnsuperSegmentation/label_oper&#45;&gt;ELUnsuperSegmentation/tagged_polygons -->
<g id="edge14" class="edge">
<title>ELUnsuperSegmentation/label_oper&#45;&gt;ELUnsuperSegmentation/tagged_polygons</title>
<path fill="none" stroke="black" d="M674.97,-1671.69C655.01,-1657.96 633.98,-1643.49 615.39,-1630.7"/>
<polygon fill="black" stroke="black" points="617.26,-1627.73 607.03,-1624.95 613.29,-1633.5 617.26,-1627.73"/>
</g>
<!-- ELUnsuperSegmentation/truth -->
<g id="node16" class="node">
<title>ELUnsuperSegmentation/truth</title>
<polygon fill="lightblue" stroke="blue" points="986.5,-1632.39 729.5,-1632.39 729.5,-1549.39 986.5,-1549.39 986.5,-1632.39"/>
<text text-anchor="start" x="737.5" y="-1617.19" font-family="Times New Roman,serif" font-size="14.00">id: ELUnsuperSegmentation/truth</text>
<text text-anchor="start" x="737.5" y="-1602.19" font-family="Times New Roman,serif" font-size="14.00">type: visionflow::props::PolygonRegionList</text>
<text text-anchor="start" x="737.5" y="-1587.19" font-family="Times New Roman,serif" font-size="14.00">update: 1970&#45;01&#45;01 00:00:00.0000000</text>
<text text-anchor="start" x="737.5" y="-1572.19" font-family="Times New Roman,serif" font-size="14.00">docs: List structure to manage polygon </text>
<text text-anchor="start" x="737.5" y="-1557.19" font-family="Times New Roman,serif" font-size="14.00">regions.</text>
</g>
<!-- ELUnsuperSegmentation/label_oper&#45;&gt;ELUnsuperSegmentation/truth -->
<g id="edge15" class="edge">
<title>ELUnsuperSegmentation/label_oper&#45;&gt;ELUnsuperSegmentation/truth</title>
<path fill="none" stroke="black" d="M798.11,-1669.17C805.47,-1659.67 813.05,-1649.89 820.24,-1640.61"/>
<polygon fill="black" stroke="black" points="823.08,-1642.66 826.44,-1632.61 817.55,-1638.37 823.08,-1642.66"/>
</g>
<!-- ELUnsuperSegmentation/view_tagger -->
<g id="node5" class="node">
<title>ELUnsuperSegmentation/view_tagger</title>
<ellipse fill="lightblue" stroke="blue" cx="738" cy="-1391.06" rx="180.12" ry="122.16"/>
<text text-anchor="start" x="618.5" y="-1462.36" font-family="Times New Roman,serif" font-size="14.00">id: ELUnsuperSegmentation/view_tagger</text>
<text text-anchor="start" x="618.5" y="-1447.36" font-family="Times New Roman,serif" font-size="14.00">type: visionflow::opers::ViewTagger</text>
<text text-anchor="start" x="618.5" y="-1432.36" font-family="Times New Roman,serif" font-size="14.00">update: 1970&#45;01&#45;01 00:00:00.0000000</text>
<text text-anchor="start" x="618.5" y="-1417.36" font-family="Times New Roman,serif" font-size="14.00">docs: Operator used to tag the views </text>
<text text-anchor="start" x="618.5" y="-1402.36" font-family="Times New Roman,serif" font-size="14.00">with some already tagged polygons </text>
<text text-anchor="start" x="618.5" y="-1387.36" font-family="Times New Roman,serif" font-size="14.00">automatically. The spilt_tag and </text>
<text text-anchor="start" x="618.5" y="-1372.36" font-family="Times New Roman,serif" font-size="14.00">tags of the most matched tagged_polygon </text>
<text text-anchor="start" x="618.5" y="-1357.36" font-family="Times New Roman,serif" font-size="14.00">selected using CIou will be set </text>
<text text-anchor="start" x="618.5" y="-1342.36" font-family="Times New Roman,serif" font-size="14.00">to the view, otherwise, the view </text>
<text text-anchor="start" x="618.5" y="-1327.36" font-family="Times New Roman,serif" font-size="14.00">will remain its original spilt_tag </text>
<text text-anchor="start" x="618.5" y="-1312.36" font-family="Times New Roman,serif" font-size="14.00">and tags info.</text>
</g>
<!-- ELUnsuperSegmentation/tagged_views -->
<g id="node15" class="node">
<title>ELUnsuperSegmentation/tagged_views</title>
<polygon fill="lightblue" stroke="blue" points="796,-1232.73 544,-1232.73 544,-1164.73 796,-1164.73 796,-1232.73"/>
<text text-anchor="start" x="552" y="-1217.53" font-family="Times New Roman,serif" font-size="14.00">id: ELUnsuperSegmentation/tagged_views</text>
<text text-anchor="start" x="552" y="-1202.53" font-family="Times New Roman,serif" font-size="14.00">type: visionflow::props::ViewList</text>
<text text-anchor="start" x="552" y="-1187.53" font-family="Times New Roman,serif" font-size="14.00">update: 1970&#45;01&#45;01 00:00:00.0000000</text>
<text text-anchor="start" x="552" y="-1172.53" font-family="Times New Roman,serif" font-size="14.00">docs: Property ViewList implementation.</text>
</g>
<!-- ELUnsuperSegmentation/view_tagger&#45;&gt;ELUnsuperSegmentation/tagged_views -->
<g id="edge26" class="edge">
<title>ELUnsuperSegmentation/view_tagger&#45;&gt;ELUnsuperSegmentation/tagged_views</title>
<path fill="none" stroke="black" d="M695.8,-1271.96C692.06,-1261.49 688.47,-1251.42 685.2,-1242.28"/>
<polygon fill="black" stroke="black" points="688.46,-1241.01 681.8,-1232.77 681.87,-1243.37 688.46,-1241.01"/>
</g>
<!-- ELUnsuperSegmentation/featmap_filter.conf -->
<g id="node6" class="node">
<title>ELUnsuperSegmentation/featmap_filter.conf</title>
<ellipse fill="pink" stroke="red" cx="737" cy="-797.66" rx="199.31" ry="58.88"/>
<text text-anchor="start" x="604" y="-823.96" font-family="Times New Roman,serif" font-size="14.00">id: ELUnsuperSegmentation/featmap_filter.conf</text>
<text text-anchor="start" x="604" y="-808.96" font-family="Times New Roman,serif" font-size="14.00">type: visionflow::confs::FeatureMapFilterConf</text>
<text text-anchor="start" x="604" y="-793.96" font-family="Times New Roman,serif" font-size="14.00">update: 1970&#45;01&#45;01 00:00:00.0000000</text>
<text text-anchor="start" x="604" y="-778.96" font-family="Times New Roman,serif" font-size="14.00">docs: Configurator UI to config the </text>
<text text-anchor="start" x="604" y="-763.96" font-family="Times New Roman,serif" font-size="14.00">feature map filter.</text>
</g>
<!-- ELUnsuperSegmentation/featmap_filter.args -->
<g id="node20" class="node">
<title>ELUnsuperSegmentation/featmap_filter.args</title>
<polygon fill="pink" stroke="red" points="835,-695.47 527,-695.47 527,-612.47 835,-612.47 835,-695.47"/>
<text text-anchor="start" x="535" y="-680.27" font-family="Times New Roman,serif" font-size="14.00">id: ELUnsuperSegmentation/featmap_filter.args</text>
<text text-anchor="start" x="535" y="-665.27" font-family="Times New Roman,serif" font-size="14.00">type: visionflow::param::FeatureMapFilterParameters</text>
<text text-anchor="start" x="535" y="-650.27" font-family="Times New Roman,serif" font-size="14.00">update: 1970&#45;01&#45;01 00:00:00.0000000</text>
<text text-anchor="start" x="535" y="-635.27" font-family="Times New Roman,serif" font-size="14.00">docs: Parameters to config the feature </text>
<text text-anchor="start" x="535" y="-620.27" font-family="Times New Roman,serif" font-size="14.00">map filter.</text>
</g>
<!-- ELUnsuperSegmentation/featmap_filter.conf&#45;&gt;ELUnsuperSegmentation/featmap_filter.args -->
<g id="edge3" class="edge">
<title>ELUnsuperSegmentation/featmap_filter.conf&#45;&gt;ELUnsuperSegmentation/featmap_filter.args</title>
<path fill="none" stroke="black" d="M714.22,-739.03C709.77,-727.77 705.14,-716.05 700.8,-705.06"/>
<polygon fill="black" stroke="black" points="704,-703.64 697.07,-695.62 697.49,-706.21 704,-703.64"/>
</g>
<!-- ELUnsuperSegmentation/filter.conf -->
<g id="node7" class="node">
<title>ELUnsuperSegmentation/filter.conf</title>
<ellipse fill="pink" stroke="red" cx="802" cy="-510.28" rx="182.37" ry="58.88"/>
<text text-anchor="start" x="681" y="-536.58" font-family="Times New Roman,serif" font-size="14.00">id: ELUnsuperSegmentation/filter.conf</text>
<text text-anchor="start" x="681" y="-521.58" font-family="Times New Roman,serif" font-size="14.00">type: visionflow::confs::PolygonsFilterConf</text>
<text text-anchor="start" x="681" y="-506.58" font-family="Times New Roman,serif" font-size="14.00">update: 1970&#45;01&#45;01 00:00:00.0000000</text>
<text text-anchor="start" x="681" y="-491.58" font-family="Times New Roman,serif" font-size="14.00">docs: Configurator UI to generate the </text>
<text text-anchor="start" x="681" y="-476.58" font-family="Times New Roman,serif" font-size="14.00">polygon filter args.</text>
</g>
<!-- ELUnsuperSegmentation/filter.args -->
<g id="node21" class="node">
<title>ELUnsuperSegmentation/filter.args</title>
<polygon fill="pink" stroke="red" points="916,-400.59 622,-400.59 622,-347.59 916,-347.59 916,-400.59"/>
<text text-anchor="start" x="630" y="-385.39" font-family="Times New Roman,serif" font-size="14.00">id: ELUnsuperSegmentation/filter.args</text>
<text text-anchor="start" x="630" y="-370.39" font-family="Times New Roman,serif" font-size="14.00">type: visionflow::param::PolygonsFilterParameters</text>
<text text-anchor="start" x="630" y="-355.39" font-family="Times New Roman,serif" font-size="14.00">update: 1970&#45;01&#45;01 00:00:00.0000000</text>
</g>
<!-- ELUnsuperSegmentation/filter.conf&#45;&gt;ELUnsuperSegmentation/filter.args -->
<g id="edge7" class="edge">
<title>ELUnsuperSegmentation/filter.conf&#45;&gt;ELUnsuperSegmentation/filter.args</title>
<path fill="none" stroke="black" d="M787.81,-451.6C784.4,-437.72 780.86,-423.3 777.77,-410.77"/>
<polygon fill="black" stroke="black" points="781.09,-409.61 775.31,-400.74 774.3,-411.28 781.09,-409.61"/>
</g>
<!-- ELUnsuperSegmentation/infer.conf -->
<g id="node8" class="node">
<title>ELUnsuperSegmentation/infer.conf</title>
<ellipse fill="pink" stroke="red" cx="750" cy="-1070.04" rx="241.66" ry="58.88"/>
<text text-anchor="start" x="587" y="-1096.34" font-family="Times New Roman,serif" font-size="14.00">id: ELUnsuperSegmentation/infer.conf</text>
<text text-anchor="start" x="587" y="-1081.34" font-family="Times New Roman,serif" font-size="14.00">type: visionflow::confs::ELUnsuperSegmentationInferConf</text>
<text text-anchor="start" x="587" y="-1066.34" font-family="Times New Roman,serif" font-size="14.00">update: 1970&#45;01&#45;01 00:00:00.0000000</text>
<text text-anchor="start" x="587" y="-1051.34" font-family="Times New Roman,serif" font-size="14.00">docs: EL&#45;UnsuperSegmentation heatmap </text>
<text text-anchor="start" x="587" y="-1036.34" font-family="Times New Roman,serif" font-size="14.00">filter parameters configurator.</text>
</g>
<!-- ELUnsuperSegmentation/infer.args -->
<g id="node22" class="node">
<title>ELUnsuperSegmentation/infer.args</title>
<polygon fill="pink" stroke="red" points="854,-960.35 476,-960.35 476,-907.35 854,-907.35 854,-960.35"/>
<text text-anchor="start" x="484" y="-945.15" font-family="Times New Roman,serif" font-size="14.00">id: ELUnsuperSegmentation/infer.args</text>
<text text-anchor="start" x="484" y="-930.15" font-family="Times New Roman,serif" font-size="14.00">type: visionflow::param::ELUnsuperSegmentationInferParameters</text>
<text text-anchor="start" x="484" y="-915.15" font-family="Times New Roman,serif" font-size="14.00">update: 1970&#45;01&#45;01 00:00:00.0000000</text>
</g>
<!-- ELUnsuperSegmentation/infer.conf&#45;&gt;ELUnsuperSegmentation/infer.args -->
<g id="edge13" class="edge">
<title>ELUnsuperSegmentation/infer.conf&#45;&gt;ELUnsuperSegmentation/infer.args</title>
<path fill="none" stroke="black" d="M713.71,-1011.74C704.54,-997.27 694.98,-982.18 686.78,-969.24"/>
<polygon fill="black" stroke="black" points="689.66,-967.23 681.35,-960.66 683.74,-970.98 689.66,-967.23"/>
</g>
<!-- ELUnsuperSegmentation/label_oper.conf -->
<g id="node9" class="node">
<title>ELUnsuperSegmentation/label_oper.conf</title>
<ellipse fill="pink" stroke="red" cx="754" cy="-1999.46" rx="186.85" ry="58.88"/>
<text text-anchor="start" x="630" y="-2025.76" font-family="Times New Roman,serif" font-size="14.00">id: ELUnsuperSegmentation/label_oper.conf</text>
<text text-anchor="start" x="630" y="-2010.76" font-family="Times New Roman,serif" font-size="14.00">type: visionflow::confs::CustomConf</text>
<text text-anchor="start" x="630" y="-1995.76" font-family="Times New Roman,serif" font-size="14.00">update: 1970&#45;01&#45;01 00:00:00.0000000</text>
<text text-anchor="start" x="630" y="-1980.76" font-family="Times New Roman,serif" font-size="14.00">docs: Configurator class to generate </text>
<text text-anchor="start" x="630" y="-1965.76" font-family="Times New Roman,serif" font-size="14.00">any user&#45;defined parameters</text>
</g>
<!-- ELUnsuperSegmentation/label_oper.args -->
<g id="node23" class="node">
<title>ELUnsuperSegmentation/label_oper.args</title>
<polygon fill="pink" stroke="red" points="885,-1904.77 623,-1904.77 623,-1821.77 885,-1821.77 885,-1904.77"/>
<text text-anchor="start" x="631" y="-1889.57" font-family="Times New Roman,serif" font-size="14.00">id: ELUnsuperSegmentation/label_oper.args</text>
<text text-anchor="start" x="631" y="-1874.57" font-family="Times New Roman,serif" font-size="14.00">type: visionflow::param::BinaryPacks</text>
<text text-anchor="start" x="631" y="-1859.57" font-family="Times New Roman,serif" font-size="14.00">update: 1970&#45;01&#45;01 00:00:00.0000000</text>
<text text-anchor="start" x="631" y="-1844.57" font-family="Times New Roman,serif" font-size="14.00">docs: A container to manage list of </text>
<text text-anchor="start" x="631" y="-1829.57" font-family="Times New Roman,serif" font-size="14.00">binary data.</text>
</g>
<!-- ELUnsuperSegmentation/label_oper.conf&#45;&gt;ELUnsuperSegmentation/label_oper.args -->
<g id="edge17" class="edge">
<title>ELUnsuperSegmentation/label_oper.conf&#45;&gt;ELUnsuperSegmentation/label_oper.args</title>
<path fill="none" stroke="black" d="M754,-1940.38C754,-1932.02 754,-1923.46 754,-1915.24"/>
<polygon fill="black" stroke="black" points="757.5,-1915.06 754,-1905.06 750.5,-1915.06 757.5,-1915.06"/>
</g>
<!-- ELUnsuperSegmentation/trainer -->
<g id="node10" class="node">
<title>ELUnsuperSegmentation/trainer</title>
<ellipse fill="pink" stroke="red" cx="259" cy="-1070.04" rx="231.45" ry="48.17"/>
<text text-anchor="start" x="103.5" y="-1088.84" font-family="Times New Roman,serif" font-size="14.00">id: ELUnsuperSegmentation/trainer</text>
<text text-anchor="start" x="103.5" y="-1073.84" font-family="Times New Roman,serif" font-size="14.00">type: visionflow::confs::ELUnsuperSegmentationTrainer</text>
<text text-anchor="start" x="103.5" y="-1058.84" font-family="Times New Roman,serif" font-size="14.00">update: 1970&#45;01&#45;01 00:00:00.0000000</text>
<text text-anchor="start" x="103.5" y="-1043.84" font-family="Times New Roman,serif" font-size="14.00">docs: EL&#45;UnsuperSegmentation model trainer.</text>
</g>
<!-- ELUnsuperSegmentation/model -->
<g id="node24" class="node">
<title>ELUnsuperSegmentation/model</title>
<polygon fill="pink" stroke="red" points="379.5,-975.35 154.5,-975.35 154.5,-892.35 379.5,-892.35 379.5,-975.35"/>
<text text-anchor="start" x="162.5" y="-960.15" font-family="Times New Roman,serif" font-size="14.00">id: ELUnsuperSegmentation/model</text>
<text text-anchor="start" x="162.5" y="-945.15" font-family="Times New Roman,serif" font-size="14.00">type: visionflow::param::BinaryPacks</text>
<text text-anchor="start" x="162.5" y="-930.15" font-family="Times New Roman,serif" font-size="14.00">update: 1970&#45;01&#45;01 00:00:00.0000000</text>
<text text-anchor="start" x="162.5" y="-915.15" font-family="Times New Roman,serif" font-size="14.00">docs: A container to manage list of </text>
<text text-anchor="start" x="162.5" y="-900.15" font-family="Times New Roman,serif" font-size="14.00">binary data.</text>
</g>
<!-- ELUnsuperSegmentation/trainer&#45;&gt;ELUnsuperSegmentation/model -->
<g id="edge22" class="edge">
<title>ELUnsuperSegmentation/trainer&#45;&gt;ELUnsuperSegmentation/model</title>
<path fill="none" stroke="black" d="M261.82,-1021.73C262.52,-1010.06 263.26,-997.51 263.97,-985.68"/>
<polygon fill="black" stroke="black" points="267.47,-985.7 264.58,-975.51 260.49,-985.28 267.47,-985.7"/>
</g>
<!-- ELUnsuperSegmentation/trainer.conf -->
<g id="node11" class="node">
<title>ELUnsuperSegmentation/trainer.conf</title>
<ellipse fill="pink" stroke="red" cx="284" cy="-1391.06" rx="255.95" ry="58.88"/>
<text text-anchor="start" x="111" y="-1417.36" font-family="Times New Roman,serif" font-size="14.00">id: ELUnsuperSegmentation/trainer.conf</text>
<text text-anchor="start" x="111" y="-1402.36" font-family="Times New Roman,serif" font-size="14.00">type: visionflow::confs::ELUnsuperSegmentationTrainingConf</text>
<text text-anchor="start" x="111" y="-1387.36" font-family="Times New Roman,serif" font-size="14.00">update: 1970&#45;01&#45;01 00:00:00.0000000</text>
<text text-anchor="start" x="111" y="-1372.36" font-family="Times New Roman,serif" font-size="14.00">docs: EL&#45;UnsuperSegmentation Training </text>
<text text-anchor="start" x="111" y="-1357.36" font-family="Times New Roman,serif" font-size="14.00">Parameters Configurator.</text>
</g>
<!-- ELUnsuperSegmentation/trainer.args -->
<g id="node25" class="node">
<title>ELUnsuperSegmentation/trainer.args</title>
<polygon fill="pink" stroke="red" points="470,-1225.23 72,-1225.23 72,-1172.23 470,-1172.23 470,-1225.23"/>
<text text-anchor="start" x="80" y="-1210.03" font-family="Times New Roman,serif" font-size="14.00">id: ELUnsuperSegmentation/trainer.args</text>
<text text-anchor="start" x="80" y="-1195.03" font-family="Times New Roman,serif" font-size="14.00">type: visionflow::param::ELUnsuperSegmentationTrainingParameters</text>
<text text-anchor="start" x="80" y="-1180.03" font-family="Times New Roman,serif" font-size="14.00">update: 1970&#45;01&#45;01 00:00:00.0000000</text>
</g>
<!-- ELUnsuperSegmentation/trainer.conf&#45;&gt;ELUnsuperSegmentation/trainer.args -->
<g id="edge24" class="edge">
<title>ELUnsuperSegmentation/trainer.conf&#45;&gt;ELUnsuperSegmentation/trainer.args</title>
<path fill="none" stroke="black" d="M280.05,-1332.18C277.9,-1300.71 275.31,-1262.77 273.45,-1235.58"/>
<polygon fill="black" stroke="black" points="276.92,-1235.09 272.75,-1225.36 269.94,-1235.57 276.92,-1235.09"/>
</g>
<!-- ELUnsuperSegmentation/feature_map&#45;&gt;ELUnsuperSegmentation/featmap_filter -->
<g id="edge4" class="edge">
<title>ELUnsuperSegmentation/feature_map&#45;&gt;ELUnsuperSegmentation/featmap_filter</title>
<path fill="none" stroke="black" d="M335.16,-604.61C338.91,-596.04 342.88,-586.98 346.8,-578.01"/>
<polygon fill="black" stroke="black" points="350.06,-579.29 350.87,-568.72 343.65,-576.48 350.06,-579.29"/>
</g>
<!-- ELUnsuperSegmentation/raw_pred&#45;&gt;ELUnsuperSegmentation/filter -->
<g id="edge19" class="edge">
<title>ELUnsuperSegmentation/raw_pred&#45;&gt;ELUnsuperSegmentation/filter</title>
<path fill="none" stroke="black" d="M450.34,-332.37C461.03,-321.84 472.85,-310.2 484.6,-298.63"/>
<polygon fill="black" stroke="black" points="487.22,-300.96 491.89,-291.44 482.31,-295.97 487.22,-300.96"/>
</g>
<!-- ELUnsuperSegmentation/tagged_polygons&#45;&gt;ELUnsuperSegmentation/view_tagger -->
<g id="edge20" class="edge">
<title>ELUnsuperSegmentation/tagged_polygons&#45;&gt;ELUnsuperSegmentation/view_tagger</title>
<path fill="none" stroke="black" d="M588.96,-1556.78C602.64,-1541.66 619.71,-1522.79 637.38,-1503.27"/>
<polygon fill="black" stroke="black" points="640.05,-1505.53 644.17,-1495.76 634.86,-1500.83 640.05,-1505.53"/>
</g>
<!-- ELUnsuperSegmentation/tagged_views&#45;&gt;ELUnsuperSegmentation/trainer -->
<g id="edge21" class="edge">
<title>ELUnsuperSegmentation/tagged_views&#45;&gt;ELUnsuperSegmentation/trainer</title>
<path fill="none" stroke="black" d="M562.82,-1164.69C511.89,-1148.99 450.41,-1130.04 396.12,-1113.31"/>
<polygon fill="black" stroke="black" points="397.01,-1109.92 386.43,-1110.32 394.95,-1116.61 397.01,-1109.92"/>
</g>
<!-- ELUnsuperSegmentation/truth&#45;&gt;ELUnsuperSegmentation/trainer -->
<g id="edge25" class="edge">
<title>ELUnsuperSegmentation/truth&#45;&gt;ELUnsuperSegmentation/trainer</title>
<path fill="none" stroke="black" d="M904.43,-1549.26C913.63,-1538.6 921.99,-1526.41 927,-1513.39 966.01,-1411.89 972.57,-1367.46 927,-1268.73 897.14,-1204.04 870.3,-1193.23 805,-1164.73 679.49,-1109.96 633.81,-1152.78 499,-1128.73 470.29,-1123.61 439.88,-1117.14 410.71,-1110.39"/>
<polygon fill="black" stroke="black" points="411.4,-1106.96 400.87,-1108.09 409.81,-1113.77 411.4,-1106.96"/>
</g>
<!-- ELUnsuperSegmentation/image -->
<g id="node17" class="node">
<title>ELUnsuperSegmentation/image</title>
<ellipse fill="lightblue" stroke="blue" cx="1015" cy="-1863.27" rx="1.8" ry="1.8"/>
</g>
<!-- ELUnsuperSegmentation/image&#45;&gt;ELUnsuperSegmentation/infer -->
<g id="edge8" class="edge">
<title>ELUnsuperSegmentation/image&#45;&gt;ELUnsuperSegmentation/infer</title>
<path fill="none" stroke="black" d="M1015.24,-1861.31C1018.48,-1848.36 1053,-1707.55 1053,-1591.89 1053,-1591.89 1053,-1591.89 1053,-1069.04 1053,-817.7 776.46,-900.37 529,-856.35 507.02,-852.44 484.03,-847.61 461.44,-842.43"/>
<polygon fill="black" stroke="black" points="461.98,-838.96 451.44,-840.11 460.39,-845.78 461.98,-838.96"/>
</g>
<!-- ELUnsuperSegmentation/image&#45;&gt;ELUnsuperSegmentation/label_oper -->
<g id="edge9" class="edge">
<title>ELUnsuperSegmentation/image&#45;&gt;ELUnsuperSegmentation/label_oper</title>
<path fill="none" stroke="black" d="M1015.04,-1861.1C1015.17,-1855.8 1014.99,-1833.84 1004,-1821.77 984.67,-1800.54 960.05,-1784.1 933.84,-1771.38"/>
<polygon fill="black" stroke="black" points="935.05,-1768.08 924.51,-1767.03 932.1,-1774.42 935.05,-1768.08"/>
</g>
<!-- ELUnsuperSegmentation/image&#45;&gt;ELUnsuperSegmentation/trainer -->
<g id="edge10" class="edge">
<title>ELUnsuperSegmentation/image&#45;&gt;ELUnsuperSegmentation/trainer</title>
<path fill="none" stroke="black" d="M1015,-1861.3C1015,-1848.25 1015,-1706.43 1015,-1591.89 1015,-1591.89 1015,-1591.89 1015,-1390.06 1015,-1268.51 967.43,-1221.59 860,-1164.73 788.74,-1127.02 578.49,-1142.18 499,-1128.73 469.96,-1123.82 439.21,-1117.38 409.77,-1110.6"/>
<polygon fill="black" stroke="black" points="410.37,-1107.15 399.84,-1108.29 408.79,-1113.96 410.37,-1107.15"/>
</g>
<!-- ELUnsuperSegmentation/views -->
<g id="node18" class="node">
<title>ELUnsuperSegmentation/views</title>
<ellipse fill="lightblue" stroke="blue" cx="5" cy="-1590.89" rx="1.8" ry="1.8"/>
</g>
<!-- ELUnsuperSegmentation/views&#45;&gt;ELUnsuperSegmentation/infer -->
<g id="edge27" class="edge">
<title>ELUnsuperSegmentation/views&#45;&gt;ELUnsuperSegmentation/infer</title>
<path fill="none" stroke="black" d="M4.98,-1588.91C4.62,-1573.02 0,-1366.38 0,-1199.73 0,-1199.73 0,-1199.73 0,-1069.04 0,-969.79 91.78,-897.43 173.47,-852.68"/>
<polygon fill="black" stroke="black" points="175.21,-855.72 182.36,-847.9 171.89,-849.55 175.21,-855.72"/>
</g>
<!-- ELUnsuperSegmentation/views&#45;&gt;ELUnsuperSegmentation/view_tagger -->
<g id="edge28" class="edge">
<title>ELUnsuperSegmentation/views&#45;&gt;ELUnsuperSegmentation/view_tagger</title>
<path fill="none" stroke="black" d="M4.88,-1588.64C4.42,-1582.99 3.38,-1559.74 16,-1549.39 107.82,-1474.14 436.28,-1550.63 549,-1513.39 569.15,-1506.74 589.27,-1497.43 608.46,-1486.89"/>
<polygon fill="black" stroke="black" points="610.22,-1489.93 617.22,-1481.97 606.78,-1483.82 610.22,-1489.93"/>
</g>
<!-- ELUnsuperSegmentation/featmap_filter.args&#45;&gt;ELUnsuperSegmentation/featmap_filter -->
<g id="edge2" class="edge">
<title>ELUnsuperSegmentation/featmap_filter.args&#45;&gt;ELUnsuperSegmentation/featmap_filter</title>
<path fill="none" stroke="black" d="M593.6,-612.37C562.55,-597.94 527.06,-581.46 493.88,-566.04"/>
<polygon fill="black" stroke="black" points="495.13,-562.77 484.59,-561.73 492.18,-569.11 495.13,-562.77"/>
</g>
<!-- ELUnsuperSegmentation/filter.args&#45;&gt;ELUnsuperSegmentation/filter -->
<g id="edge6" class="edge">
<title>ELUnsuperSegmentation/filter.args&#45;&gt;ELUnsuperSegmentation/filter</title>
<path fill="none" stroke="black" d="M731.41,-347.54C708.91,-332.24 679.22,-312.06 650.67,-292.65"/>
<polygon fill="black" stroke="black" points="652.5,-289.66 642.26,-286.94 648.56,-295.45 652.5,-289.66"/>
</g>
<!-- ELUnsuperSegmentation/infer.args&#45;&gt;ELUnsuperSegmentation/infer -->
<g id="edge12" class="edge">
<title>ELUnsuperSegmentation/infer.args&#45;&gt;ELUnsuperSegmentation/infer</title>
<path fill="none" stroke="black" d="M595.11,-907.3C550.18,-890.87 490.27,-868.96 436.02,-849.13"/>
<polygon fill="black" stroke="black" points="436.91,-845.73 426.32,-845.58 434.51,-852.3 436.91,-845.73"/>
</g>
<!-- ELUnsuperSegmentation/label_oper.args&#45;&gt;ELUnsuperSegmentation/label_oper -->
<g id="edge16" class="edge">
<title>ELUnsuperSegmentation/label_oper.args&#45;&gt;ELUnsuperSegmentation/label_oper</title>
<path fill="none" stroke="black" d="M754,-1821.65C754,-1813.55 754,-1804.84 754,-1796.12"/>
<polygon fill="black" stroke="black" points="757.5,-1795.89 754,-1785.89 750.5,-1795.89 757.5,-1795.89"/>
</g>
<!-- ELUnsuperSegmentation/model&#45;&gt;ELUnsuperSegmentation/infer -->
<g id="edge18" class="edge">
<title>ELUnsuperSegmentation/model&#45;&gt;ELUnsuperSegmentation/infer</title>
<path fill="none" stroke="black" d="M276.39,-892.23C278.28,-884.04 280.31,-875.24 282.35,-866.41"/>
<polygon fill="black" stroke="black" points="285.8,-867.01 284.64,-856.48 278.98,-865.43 285.8,-867.01"/>
</g>
<!-- ELUnsuperSegmentation/trainer.args&#45;&gt;ELUnsuperSegmentation/trainer -->
<g id="edge23" class="edge">
<title>ELUnsuperSegmentation/trainer.args&#45;&gt;ELUnsuperSegmentation/trainer</title>
<path fill="none" stroke="black" d="M268.57,-1172.09C267.37,-1159.4 265.87,-1143.53 264.41,-1128.16"/>
<polygon fill="black" stroke="black" points="267.89,-1127.79 263.46,-1118.17 260.92,-1128.45 267.89,-1127.79"/>
</g>
</g>
</svg>
