<?xml version="1.0" encoding="UTF-8" standalone="no"?>
<!DOCTYPE svg PUBLIC "-//W3C//DTD SVG 1.1//EN"
 "http://www.w3.org/Graphics/SVG/1.1/DTD/svg11.dtd">
<!-- Generated by graphviz version 6.0.1 (20220911.1526)
 -->
<!-- Title: OnlyTool: UnsuperClassification Pages: 1 -->
<svg width="1511pt" height="2178pt"
 viewBox="0.00 0.00 1511.00 2177.58" xmlns="http://www.w3.org/2000/svg" xmlns:xlink="http://www.w3.org/1999/xlink">
<g id="graph0" class="graph" transform="scale(1 1) rotate(0) translate(4 2173.58)">
<title>OnlyTool: UnsuperClassification</title>
<polygon fill="white" stroke="none" points="-4,4 -4,-2173.58 1507,-2173.58 1507,4 -4,4"/>
<text text-anchor="middle" x="751.5" y="-7.8" font-family="Times New Roman,serif" font-size="14.00">OnlyTool: UnsuperClassification</text>
<g id="clust1" class="cluster">
<title>cluster_UnsuperClassification</title>
<polygon fill="none" stroke="black" points="20,-31 20,-2161.58 1455,-2161.58 1455,-31 20,-31"/>
<text text-anchor="middle" x="737.5" y="-2146.38" font-family="Times New Roman,serif" font-size="14.00">UnsuperClassification</text>
</g>
<!-- UnsuperClassification/comparator -->
<g id="node1" class="node">
<title>UnsuperClassification/comparator</title>
<ellipse fill="lightblue" stroke="blue" cx="204" cy="-237.9" rx="176.14" ry="79.81"/>
<text text-anchor="start" x="87.5" y="-279.2" font-family="Times New Roman,serif" font-size="14.00">id: UnsuperClassification/comparator</text>
<text text-anchor="start" x="87.5" y="-264.2" font-family="Times New Roman,serif" font-size="14.00">type: visionflow::opers::RegionsMatcher</text>
<text text-anchor="start" x="87.5" y="-249.2" font-family="Times New Roman,serif" font-size="14.00">update: 1970&#45;01&#45;01 00:00:00.0000000</text>
<text text-anchor="start" x="87.5" y="-234.2" font-family="Times New Roman,serif" font-size="14.00">docs: Operator to compare the predicted </text>
<text text-anchor="start" x="87.5" y="-219.2" font-family="Times New Roman,serif" font-size="14.00">regions with the ground truth </text>
<text text-anchor="start" x="87.5" y="-204.2" font-family="Times New Roman,serif" font-size="14.00">to get the category (in [TP, FP, </text>
<text text-anchor="start" x="87.5" y="-189.2" font-family="Times New Roman,serif" font-size="14.00">TN, FN]) of each region.</text>
</g>
<!-- UnsuperClassification/match_result -->
<g id="node15" class="node">
<title>UnsuperClassification/match_result</title>
<polygon fill="lightblue" stroke="blue" points="344.5,-122 63.5,-122 63.5,-39 344.5,-39 344.5,-122"/>
<text text-anchor="start" x="71.5" y="-106.8" font-family="Times New Roman,serif" font-size="14.00">id: UnsuperClassification/match_result</text>
<text text-anchor="start" x="71.5" y="-91.8" font-family="Times New Roman,serif" font-size="14.00">type: visionflow::props::RegionMatchResultList</text>
<text text-anchor="start" x="71.5" y="-76.8" font-family="Times New Roman,serif" font-size="14.00">update: 1970&#45;01&#45;01 00:00:00.0000000</text>
<text text-anchor="start" x="71.5" y="-61.8" font-family="Times New Roman,serif" font-size="14.00">docs: A data structure to store list </text>
<text text-anchor="start" x="71.5" y="-46.8" font-family="Times New Roman,serif" font-size="14.00">of RegionMatchResult.</text>
</g>
<!-- UnsuperClassification/comparator&#45;&gt;UnsuperClassification/match_result -->
<g id="edge6" class="edge">
<title>UnsuperClassification/comparator&#45;&gt;UnsuperClassification/match_result</title>
<path fill="none" stroke="black" d="M204,-157.84C204,-149.19 204,-140.57 204,-132.39"/>
<polygon fill="black" stroke="black" points="207.5,-132.31 204,-122.31 200.5,-132.31 207.5,-132.31"/>
</g>
<!-- UnsuperClassification/infer -->
<g id="node2" class="node">
<title>UnsuperClassification/infer</title>
<ellipse fill="lightblue" stroke="blue" cx="633" cy="-546.5" rx="210.02" ry="58.88"/>
<text text-anchor="start" x="492.5" y="-572.8" font-family="Times New Roman,serif" font-size="14.00">id: UnsuperClassification/infer</text>
<text text-anchor="start" x="492.5" y="-557.8" font-family="Times New Roman,serif" font-size="14.00">type: visionflow::opers::UnsuperClassificationInfer</text>
<text text-anchor="start" x="492.5" y="-542.8" font-family="Times New Roman,serif" font-size="14.00">update: 1970&#45;01&#45;01 00:00:00.0000000</text>
<text text-anchor="start" x="492.5" y="-527.8" font-family="Times New Roman,serif" font-size="14.00">docs: Unsuper Segmentation Caffe inference </text>
<text text-anchor="start" x="492.5" y="-512.8" font-family="Times New Roman,serif" font-size="14.00">engine.</text>
</g>
<!-- UnsuperClassification/feature_map -->
<g id="node13" class="node">
<title>UnsuperClassification/feature_map</title>
<polygon fill="lightblue" stroke="blue" points="876.5,-451.81 647.5,-451.81 647.5,-353.81 876.5,-353.81 876.5,-451.81"/>
<text text-anchor="start" x="655.5" y="-436.61" font-family="Times New Roman,serif" font-size="14.00">id: UnsuperClassification/feature_map</text>
<text text-anchor="start" x="655.5" y="-421.61" font-family="Times New Roman,serif" font-size="14.00">type: visionflow::props::FeatureMap</text>
<text text-anchor="start" x="655.5" y="-406.61" font-family="Times New Roman,serif" font-size="14.00">update: 1970&#45;01&#45;01 00:00:00.0000000</text>
<text text-anchor="start" x="655.5" y="-391.61" font-family="Times New Roman,serif" font-size="14.00">docs: A data structure used to store </text>
<text text-anchor="start" x="655.5" y="-376.61" font-family="Times New Roman,serif" font-size="14.00">feature maps detected by each </text>
<text text-anchor="start" x="655.5" y="-361.61" font-family="Times New Roman,serif" font-size="14.00">algorithm module.</text>
</g>
<!-- UnsuperClassification/infer&#45;&gt;UnsuperClassification/feature_map -->
<g id="edge13" class="edge">
<title>UnsuperClassification/infer&#45;&gt;UnsuperClassification/feature_map</title>
<path fill="none" stroke="black" d="M683.98,-489.5C692.96,-479.63 702.31,-469.37 711.28,-459.51"/>
<polygon fill="black" stroke="black" points="713.91,-461.82 718.06,-452.07 708.74,-457.11 713.91,-461.82"/>
</g>
<!-- UnsuperClassification/pred -->
<g id="node21" class="node">
<title>UnsuperClassification/pred</title>
<polygon fill="none" stroke="blue" stroke-dasharray="5,2" points="629.5,-444.31 372.5,-444.31 372.5,-361.31 629.5,-361.31 629.5,-444.31"/>
<text text-anchor="start" x="380.5" y="-429.11" font-family="Times New Roman,serif" font-size="14.00">id: UnsuperClassification/pred</text>
<text text-anchor="start" x="380.5" y="-414.11" font-family="Times New Roman,serif" font-size="14.00">type: visionflow::props::PolygonRegionList</text>
<text text-anchor="start" x="380.5" y="-399.11" font-family="Times New Roman,serif" font-size="14.00">update: 1970&#45;01&#45;01 00:00:00.0000000</text>
<text text-anchor="start" x="380.5" y="-384.11" font-family="Times New Roman,serif" font-size="14.00">docs: List structure to manage polygon </text>
<text text-anchor="start" x="380.5" y="-369.11" font-family="Times New Roman,serif" font-size="14.00">regions.</text>
</g>
<!-- UnsuperClassification/infer&#45;&gt;UnsuperClassification/pred -->
<g id="edge14" class="edge">
<title>UnsuperClassification/infer&#45;&gt;UnsuperClassification/pred</title>
<path fill="none" stroke="black" d="M580.83,-489.5C569.25,-477.07 557.08,-464 545.83,-451.92"/>
<polygon fill="black" stroke="black" points="548.33,-449.48 538.95,-444.55 543.21,-454.25 548.33,-449.48"/>
</g>
<!-- UnsuperClassification/label_oper -->
<g id="node3" class="node">
<title>UnsuperClassification/label_oper</title>
<ellipse fill="lightblue" stroke="blue" cx="701" cy="-1799.51" rx="220.73" ry="58.88"/>
<text text-anchor="start" x="553" y="-1825.81" font-family="Times New Roman,serif" font-size="14.00">id: UnsuperClassification/label_oper</text>
<text text-anchor="start" x="553" y="-1810.81" font-family="Times New Roman,serif" font-size="14.00">type: visionflow::opers::UnsuperClassificationLabeler</text>
<text text-anchor="start" x="553" y="-1795.81" font-family="Times New Roman,serif" font-size="14.00">update: 1970&#45;01&#45;01 00:00:00.0000000</text>
<text text-anchor="start" x="553" y="-1780.81" font-family="Times New Roman,serif" font-size="14.00">docs: Annotate operator for unsuper </text>
<text text-anchor="start" x="553" y="-1765.81" font-family="Times New Roman,serif" font-size="14.00">classification tool.</text>
</g>
<!-- UnsuperClassification/mask -->
<g id="node14" class="node">
<title>UnsuperClassification/mask</title>
<polygon fill="lightblue" stroke="blue" points="1061.5,-1704.82 804.5,-1704.82 804.5,-1621.82 1061.5,-1621.82 1061.5,-1704.82"/>
<text text-anchor="start" x="812.5" y="-1689.62" font-family="Times New Roman,serif" font-size="14.00">id: UnsuperClassification/mask</text>
<text text-anchor="start" x="812.5" y="-1674.62" font-family="Times New Roman,serif" font-size="14.00">type: visionflow::props::PolygonRegionList</text>
<text text-anchor="start" x="812.5" y="-1659.62" font-family="Times New Roman,serif" font-size="14.00">update: 1970&#45;01&#45;01 00:00:00.0000000</text>
<text text-anchor="start" x="812.5" y="-1644.62" font-family="Times New Roman,serif" font-size="14.00">docs: List structure to manage polygon </text>
<text text-anchor="start" x="812.5" y="-1629.62" font-family="Times New Roman,serif" font-size="14.00">regions.</text>
</g>
<!-- UnsuperClassification/label_oper&#45;&gt;UnsuperClassification/mask -->
<g id="edge17" class="edge">
<title>UnsuperClassification/label_oper&#45;&gt;UnsuperClassification/mask</title>
<path fill="none" stroke="black" d="M792.03,-1745.86C812.48,-1734.02 834.03,-1721.56 853.95,-1710.04"/>
<polygon fill="black" stroke="black" points="855.78,-1713.03 862.68,-1704.99 852.27,-1706.97 855.78,-1713.03"/>
</g>
<!-- UnsuperClassification/tagged_polygons -->
<g id="node16" class="node">
<title>UnsuperClassification/tagged_polygons</title>
<polygon fill="lightblue" stroke="blue" points="436.5,-1697.32 131.5,-1697.32 131.5,-1629.32 436.5,-1629.32 436.5,-1697.32"/>
<text text-anchor="start" x="139.5" y="-1682.12" font-family="Times New Roman,serif" font-size="14.00">id: UnsuperClassification/tagged_polygons</text>
<text text-anchor="start" x="139.5" y="-1667.12" font-family="Times New Roman,serif" font-size="14.00">type: visionflow::props::TaggedPolygonList</text>
<text text-anchor="start" x="139.5" y="-1652.12" font-family="Times New Roman,serif" font-size="14.00">update: 1970&#45;01&#45;01 00:00:00.0000000</text>
<text text-anchor="start" x="139.5" y="-1637.12" font-family="Times New Roman,serif" font-size="14.00">docs: Property TaggedPolygonList implementation.</text>
</g>
<!-- UnsuperClassification/label_oper&#45;&gt;UnsuperClassification/tagged_polygons -->
<g id="edge18" class="edge">
<title>UnsuperClassification/label_oper&#45;&gt;UnsuperClassification/tagged_polygons</title>
<path fill="none" stroke="black" d="M562.15,-1753.82C508.28,-1736.49 447.41,-1716.9 396.38,-1700.48"/>
<polygon fill="black" stroke="black" points="397.23,-1697.08 386.64,-1697.35 395.08,-1703.74 397.23,-1697.08"/>
</g>
<!-- UnsuperClassification/truth -->
<g id="node18" class="node">
<title>UnsuperClassification/truth</title>
<polygon fill="lightblue" stroke="blue" points="480.5,-1026.57 223.5,-1026.57 223.5,-943.57 480.5,-943.57 480.5,-1026.57"/>
<text text-anchor="start" x="231.5" y="-1011.37" font-family="Times New Roman,serif" font-size="14.00">id: UnsuperClassification/truth</text>
<text text-anchor="start" x="231.5" y="-996.37" font-family="Times New Roman,serif" font-size="14.00">type: visionflow::props::PolygonRegionList</text>
<text text-anchor="start" x="231.5" y="-981.37" font-family="Times New Roman,serif" font-size="14.00">update: 1970&#45;01&#45;01 00:00:00.0000000</text>
<text text-anchor="start" x="231.5" y="-966.37" font-family="Times New Roman,serif" font-size="14.00">docs: List structure to manage polygon </text>
<text text-anchor="start" x="231.5" y="-951.37" font-family="Times New Roman,serif" font-size="14.00">regions.</text>
</g>
<!-- UnsuperClassification/label_oper&#45;&gt;UnsuperClassification/truth -->
<g id="edge19" class="edge">
<title>UnsuperClassification/label_oper&#45;&gt;UnsuperClassification/truth</title>
<path fill="none" stroke="black" d="M631.08,-1743.58C562.77,-1683.2 469,-1579.4 469,-1464.49 469,-1464.49 469,-1464.49 469,-1270.16 469,-1182.31 420.58,-1089.92 386.04,-1035.18"/>
<polygon fill="black" stroke="black" points="388.96,-1033.26 380.62,-1026.73 383.07,-1037.04 388.96,-1033.26"/>
</g>
<!-- UnsuperClassification/view_tagger -->
<g id="node4" class="node">
<title>UnsuperClassification/view_tagger</title>
<ellipse fill="lightblue" stroke="blue" cx="249" cy="-1463.49" rx="180.12" ry="122.16"/>
<text text-anchor="start" x="129.5" y="-1534.79" font-family="Times New Roman,serif" font-size="14.00">id: UnsuperClassification/view_tagger</text>
<text text-anchor="start" x="129.5" y="-1519.79" font-family="Times New Roman,serif" font-size="14.00">type: visionflow::opers::ViewTagger</text>
<text text-anchor="start" x="129.5" y="-1504.79" font-family="Times New Roman,serif" font-size="14.00">update: 1970&#45;01&#45;01 00:00:00.0000000</text>
<text text-anchor="start" x="129.5" y="-1489.79" font-family="Times New Roman,serif" font-size="14.00">docs: Operator used to tag the views </text>
<text text-anchor="start" x="129.5" y="-1474.79" font-family="Times New Roman,serif" font-size="14.00">with some already tagged polygons </text>
<text text-anchor="start" x="129.5" y="-1459.79" font-family="Times New Roman,serif" font-size="14.00">automatically. The spilt_tag and </text>
<text text-anchor="start" x="129.5" y="-1444.79" font-family="Times New Roman,serif" font-size="14.00">tags of the most matched tagged_polygon </text>
<text text-anchor="start" x="129.5" y="-1429.79" font-family="Times New Roman,serif" font-size="14.00">selected using CIou will be set </text>
<text text-anchor="start" x="129.5" y="-1414.79" font-family="Times New Roman,serif" font-size="14.00">to the view, otherwise, the view </text>
<text text-anchor="start" x="129.5" y="-1399.79" font-family="Times New Roman,serif" font-size="14.00">will remain its original spilt_tag </text>
<text text-anchor="start" x="129.5" y="-1384.79" font-family="Times New Roman,serif" font-size="14.00">and tags info.</text>
</g>
<!-- UnsuperClassification/tagged_views -->
<g id="node17" class="node">
<title>UnsuperClassification/tagged_views</title>
<polygon fill="lightblue" stroke="blue" points="371.5,-1305.16 126.5,-1305.16 126.5,-1237.16 371.5,-1237.16 371.5,-1305.16"/>
<text text-anchor="start" x="134.5" y="-1289.96" font-family="Times New Roman,serif" font-size="14.00">id: UnsuperClassification/tagged_views</text>
<text text-anchor="start" x="134.5" y="-1274.96" font-family="Times New Roman,serif" font-size="14.00">type: visionflow::props::ViewList</text>
<text text-anchor="start" x="134.5" y="-1259.96" font-family="Times New Roman,serif" font-size="14.00">update: 1970&#45;01&#45;01 00:00:00.0000000</text>
<text text-anchor="start" x="134.5" y="-1244.96" font-family="Times New Roman,serif" font-size="14.00">docs: Property ViewList implementation.</text>
</g>
<!-- UnsuperClassification/view_tagger&#45;&gt;UnsuperClassification/tagged_views -->
<g id="edge39" class="edge">
<title>UnsuperClassification/view_tagger&#45;&gt;UnsuperClassification/tagged_views</title>
<path fill="none" stroke="black" d="M249,-1341.14C249,-1332.1 249,-1323.39 249,-1315.39"/>
<polygon fill="black" stroke="black" points="252.5,-1315.32 249,-1305.32 245.5,-1315.32 252.5,-1315.32"/>
</g>
<!-- UnsuperClassification/base_color_conf -->
<g id="node5" class="node">
<title>UnsuperClassification/base_color_conf</title>
<ellipse fill="pink" stroke="red" cx="806" cy="-1463.49" rx="181.95" ry="58.88"/>
<text text-anchor="start" x="685.5" y="-1489.79" font-family="Times New Roman,serif" font-size="14.00">id: UnsuperClassification/base_color_conf</text>
<text text-anchor="start" x="685.5" y="-1474.79" font-family="Times New Roman,serif" font-size="14.00">type: visionflow::confs::BaseColorConf</text>
<text text-anchor="start" x="685.5" y="-1459.79" font-family="Times New Roman,serif" font-size="14.00">update: 1970&#45;01&#45;01 00:00:00.0000000</text>
<text text-anchor="start" x="685.5" y="-1444.79" font-family="Times New Roman,serif" font-size="14.00">docs: Configurator to config input images&#39; </text>
<text text-anchor="start" x="685.5" y="-1429.79" font-family="Times New Roman,serif" font-size="14.00">base color.</text>
</g>
<!-- UnsuperClassification/base_color -->
<g id="node22" class="node">
<title>UnsuperClassification/base_color</title>
<polygon fill="pink" stroke="red" points="918.5,-1297.66 693.5,-1297.66 693.5,-1244.66 918.5,-1244.66 918.5,-1297.66"/>
<text text-anchor="start" x="701.5" y="-1282.46" font-family="Times New Roman,serif" font-size="14.00">id: UnsuperClassification/base_color</text>
<text text-anchor="start" x="701.5" y="-1267.46" font-family="Times New Roman,serif" font-size="14.00">type: visionflow::param::BaseColor</text>
<text text-anchor="start" x="701.5" y="-1252.46" font-family="Times New Roman,serif" font-size="14.00">update: 1970&#45;01&#45;01 00:00:00.0000000</text>
</g>
<!-- UnsuperClassification/base_color_conf&#45;&gt;UnsuperClassification/base_color -->
<g id="edge3" class="edge">
<title>UnsuperClassification/base_color_conf&#45;&gt;UnsuperClassification/base_color</title>
<path fill="none" stroke="black" d="M806,-1404.61C806,-1373.13 806,-1335.19 806,-1308"/>
<polygon fill="black" stroke="black" points="809.5,-1307.78 806,-1297.78 802.5,-1307.78 809.5,-1307.78"/>
</g>
<!-- UnsuperClassification/batch_size_conf -->
<g id="node6" class="node">
<title>UnsuperClassification/batch_size_conf</title>
<ellipse fill="pink" stroke="red" cx="768" cy="-848.88" rx="200.64" ry="58.88"/>
<text text-anchor="start" x="634" y="-875.18" font-family="Times New Roman,serif" font-size="14.00">id: UnsuperClassification/batch_size_conf</text>
<text text-anchor="start" x="634" y="-860.18" font-family="Times New Roman,serif" font-size="14.00">type: visionflow::confs::InferenceBatchSizeConf</text>
<text text-anchor="start" x="634" y="-845.18" font-family="Times New Roman,serif" font-size="14.00">update: 1970&#45;01&#45;01 00:00:00.0000000</text>
<text text-anchor="start" x="634" y="-830.18" font-family="Times New Roman,serif" font-size="14.00">docs: Configurator to set inference </text>
<text text-anchor="start" x="634" y="-815.18" font-family="Times New Roman,serif" font-size="14.00">batch size.</text>
</g>
<!-- UnsuperClassification/batch_size -->
<g id="node23" class="node">
<title>UnsuperClassification/batch_size</title>
<polygon fill="pink" stroke="red" points="762.5,-754.19 503.5,-754.19 503.5,-641.19 762.5,-641.19 762.5,-754.19"/>
<text text-anchor="start" x="511.5" y="-738.99" font-family="Times New Roman,serif" font-size="14.00">id: UnsuperClassification/batch_size</text>
<text text-anchor="start" x="511.5" y="-723.99" font-family="Times New Roman,serif" font-size="14.00">type: visionflow::param::InferenceBatchSize</text>
<text text-anchor="start" x="511.5" y="-708.99" font-family="Times New Roman,serif" font-size="14.00">update: 1970&#45;01&#45;01 00:00:00.0000000</text>
<text text-anchor="start" x="511.5" y="-693.99" font-family="Times New Roman,serif" font-size="14.00">docs: Inference BatchSize and Inference </text>
<text text-anchor="start" x="511.5" y="-678.99" font-family="Times New Roman,serif" font-size="14.00">Mode. Currently only contains </text>
<text text-anchor="start" x="511.5" y="-663.99" font-family="Times New Roman,serif" font-size="14.00">batch size. It may need to be </text>
<text text-anchor="start" x="511.5" y="-648.99" font-family="Times New Roman,serif" font-size="14.00">refactored in the future.</text>
</g>
<!-- UnsuperClassification/batch_size_conf&#45;&gt;UnsuperClassification/batch_size -->
<g id="edge5" class="edge">
<title>UnsuperClassification/batch_size_conf&#45;&gt;UnsuperClassification/batch_size</title>
<path fill="none" stroke="black" d="M717.35,-791.9C708.52,-782.15 699.29,-771.94 690.3,-762.01"/>
<polygon fill="black" stroke="black" points="692.79,-759.55 683.49,-754.48 687.6,-764.24 692.79,-759.55"/>
</g>
<!-- UnsuperClassification/image_mean_conf -->
<g id="node7" class="node">
<title>UnsuperClassification/image_mean_conf</title>
<ellipse fill="pink" stroke="red" cx="704" cy="-1131.86" rx="185.02" ry="69.09"/>
<text text-anchor="start" x="581" y="-1165.66" font-family="Times New Roman,serif" font-size="14.00">id: UnsuperClassification/image_mean_conf</text>
<text text-anchor="start" x="581" y="-1150.66" font-family="Times New Roman,serif" font-size="14.00">type: visionflow::confs::ImageMeanConf</text>
<text text-anchor="start" x="581" y="-1135.66" font-family="Times New Roman,serif" font-size="14.00">update: 1970&#45;01&#45;01 00:00:00.0000000</text>
<text text-anchor="start" x="581" y="-1120.66" font-family="Times New Roman,serif" font-size="14.00">docs: ImageMeanConf Configurator class </text>
<text text-anchor="start" x="581" y="-1105.66" font-family="Times New Roman,serif" font-size="14.00">to compute the image mean values </text>
<text text-anchor="start" x="581" y="-1090.66" font-family="Times New Roman,serif" font-size="14.00">in the views.</text>
</g>
<!-- UnsuperClassification/image_mean -->
<g id="node24" class="node">
<title>UnsuperClassification/image_mean</title>
<polygon fill="pink" stroke="red" points="853.5,-1019.07 624.5,-1019.07 624.5,-951.07 853.5,-951.07 853.5,-1019.07"/>
<text text-anchor="start" x="632.5" y="-1003.87" font-family="Times New Roman,serif" font-size="14.00">id: UnsuperClassification/image_mean</text>
<text text-anchor="start" x="632.5" y="-988.87" font-family="Times New Roman,serif" font-size="14.00">type: visionflow::param::ImageMean</text>
<text text-anchor="start" x="632.5" y="-973.87" font-family="Times New Roman,serif" font-size="14.00">update: 1970&#45;01&#45;01 00:00:00.0000000</text>
<text text-anchor="start" x="632.5" y="-958.87" font-family="Times New Roman,serif" font-size="14.00">docs: Image mean parameters</text>
</g>
<!-- UnsuperClassification/image_mean_conf&#45;&gt;UnsuperClassification/image_mean -->
<g id="edge12" class="edge">
<title>UnsuperClassification/image_mean_conf&#45;&gt;UnsuperClassification/image_mean</title>
<path fill="none" stroke="black" d="M720.48,-1062.7C723.24,-1051.25 726.05,-1039.66 728.6,-1029.08"/>
<polygon fill="black" stroke="black" points="732.02,-1029.82 730.97,-1019.28 725.22,-1028.17 732.02,-1029.82"/>
</g>
<!-- UnsuperClassification/infer.conf -->
<g id="node8" class="node">
<title>UnsuperClassification/infer.conf</title>
<ellipse fill="pink" stroke="red" cx="319" cy="-848.88" rx="230.53" ry="58.88"/>
<text text-anchor="start" x="164" y="-875.18" font-family="Times New Roman,serif" font-size="14.00">id: UnsuperClassification/infer.conf</text>
<text text-anchor="start" x="164" y="-860.18" font-family="Times New Roman,serif" font-size="14.00">type: visionflow::confs::UnsuperClassificationInferConf</text>
<text text-anchor="start" x="164" y="-845.18" font-family="Times New Roman,serif" font-size="14.00">update: 1970&#45;01&#45;01 00:00:00.0000000</text>
<text text-anchor="start" x="164" y="-830.18" font-family="Times New Roman,serif" font-size="14.00">docs: Configurator to set unsuper classification </text>
<text text-anchor="start" x="164" y="-815.18" font-family="Times New Roman,serif" font-size="14.00">infer param</text>
</g>
<!-- UnsuperClassification/infer.args -->
<g id="node25" class="node">
<title>UnsuperClassification/infer.args</title>
<polygon fill="pink" stroke="red" points="485.5,-739.19 98.5,-739.19 98.5,-656.19 485.5,-656.19 485.5,-739.19"/>
<text text-anchor="start" x="106.5" y="-723.99" font-family="Times New Roman,serif" font-size="14.00">id: UnsuperClassification/infer.args</text>
<text text-anchor="start" x="106.5" y="-708.99" font-family="Times New Roman,serif" font-size="14.00">type: visionflow::param::UnsuperClassificationInferenceParameters</text>
<text text-anchor="start" x="106.5" y="-693.99" font-family="Times New Roman,serif" font-size="14.00">update: 1970&#45;01&#45;01 00:00:00.0000000</text>
<text text-anchor="start" x="106.5" y="-678.99" font-family="Times New Roman,serif" font-size="14.00">docs: Parameters using for unsuper classification </text>
<text text-anchor="start" x="106.5" y="-663.99" font-family="Times New Roman,serif" font-size="14.00">inference</text>
</g>
<!-- UnsuperClassification/infer.conf&#45;&gt;UnsuperClassification/infer.args -->
<g id="edge16" class="edge">
<title>UnsuperClassification/infer.conf&#45;&gt;UnsuperClassification/infer.args</title>
<path fill="none" stroke="black" d="M308.56,-790.2C306.15,-776.87 303.6,-762.78 301.24,-749.76"/>
<polygon fill="black" stroke="black" points="304.62,-748.79 299.4,-739.57 297.74,-750.04 304.62,-748.79"/>
</g>
<!-- UnsuperClassification/label_oper.conf -->
<g id="node9" class="node">
<title>UnsuperClassification/label_oper.conf</title>
<ellipse fill="pink" stroke="red" cx="701" cy="-2071.89" rx="175.23" ry="58.88"/>
<text text-anchor="start" x="585" y="-2098.19" font-family="Times New Roman,serif" font-size="14.00">id: UnsuperClassification/label_oper.conf</text>
<text text-anchor="start" x="585" y="-2083.19" font-family="Times New Roman,serif" font-size="14.00">type: visionflow::confs::CustomConf</text>
<text text-anchor="start" x="585" y="-2068.19" font-family="Times New Roman,serif" font-size="14.00">update: 1970&#45;01&#45;01 00:00:00.0000000</text>
<text text-anchor="start" x="585" y="-2053.19" font-family="Times New Roman,serif" font-size="14.00">docs: Configurator class to generate </text>
<text text-anchor="start" x="585" y="-2038.19" font-family="Times New Roman,serif" font-size="14.00">any user&#45;defined parameters</text>
</g>
<!-- UnsuperClassification/label_oper.args -->
<g id="node26" class="node">
<title>UnsuperClassification/label_oper.args</title>
<polygon fill="pink" stroke="red" points="823.5,-1977.2 578.5,-1977.2 578.5,-1894.2 823.5,-1894.2 823.5,-1977.2"/>
<text text-anchor="start" x="586.5" y="-1962" font-family="Times New Roman,serif" font-size="14.00">id: UnsuperClassification/label_oper.args</text>
<text text-anchor="start" x="586.5" y="-1947" font-family="Times New Roman,serif" font-size="14.00">type: visionflow::param::BinaryPacks</text>
<text text-anchor="start" x="586.5" y="-1932" font-family="Times New Roman,serif" font-size="14.00">update: 1970&#45;01&#45;01 00:00:00.0000000</text>
<text text-anchor="start" x="586.5" y="-1917" font-family="Times New Roman,serif" font-size="14.00">docs: A container to manage list of </text>
<text text-anchor="start" x="586.5" y="-1902" font-family="Times New Roman,serif" font-size="14.00">binary data.</text>
</g>
<!-- UnsuperClassification/label_oper.conf&#45;&gt;UnsuperClassification/label_oper.args -->
<g id="edge21" class="edge">
<title>UnsuperClassification/label_oper.conf&#45;&gt;UnsuperClassification/label_oper.args</title>
<path fill="none" stroke="black" d="M701,-2012.81C701,-2004.44 701,-1995.89 701,-1987.67"/>
<polygon fill="black" stroke="black" points="704.5,-1987.49 701,-1977.49 697.5,-1987.49 704.5,-1987.49"/>
</g>
<!-- UnsuperClassification/statistician -->
<g id="node10" class="node">
<title>UnsuperClassification/statistician</title>
<ellipse fill="pink" stroke="red" cx="666" cy="-237.9" rx="267.99" ry="58.88"/>
<text text-anchor="start" x="484.5" y="-264.2" font-family="Times New Roman,serif" font-size="14.00">id: UnsuperClassification/statistician</text>
<text text-anchor="start" x="484.5" y="-249.2" font-family="Times New Roman,serif" font-size="14.00">type: visionflow::confs::ClassificationRegionMatchResultCounter</text>
<text text-anchor="start" x="484.5" y="-234.2" font-family="Times New Roman,serif" font-size="14.00">update: 1970&#45;01&#45;01 00:00:00.0000000</text>
<text text-anchor="start" x="484.5" y="-219.2" font-family="Times New Roman,serif" font-size="14.00">docs: Configurator to count classification </text>
<text text-anchor="start" x="484.5" y="-204.2" font-family="Times New Roman,serif" font-size="14.00">region match results.</text>
</g>
<!-- UnsuperClassification/statistics -->
<g id="node28" class="node">
<title>UnsuperClassification/statistics</title>
<polygon fill="pink" stroke="red" points="809.5,-114.5 522.5,-114.5 522.5,-46.5 809.5,-46.5 809.5,-114.5"/>
<text text-anchor="start" x="530.5" y="-99.3" font-family="Times New Roman,serif" font-size="14.00">id: UnsuperClassification/statistics</text>
<text text-anchor="start" x="530.5" y="-84.3" font-family="Times New Roman,serif" font-size="14.00">type: visionflow::param::ModelEvaluationMetrics</text>
<text text-anchor="start" x="530.5" y="-69.3" font-family="Times New Roman,serif" font-size="14.00">update: 1970&#45;01&#45;01 00:00:00.0000000</text>
<text text-anchor="start" x="530.5" y="-54.3" font-family="Times New Roman,serif" font-size="14.00">docs: A container to manage table.</text>
</g>
<!-- UnsuperClassification/statistician&#45;&gt;UnsuperClassification/statistics -->
<g id="edge26" class="edge">
<title>UnsuperClassification/statistician&#45;&gt;UnsuperClassification/statistics</title>
<path fill="none" stroke="black" d="M666,-179.04C666,-161.03 666,-141.5 666,-124.67"/>
<polygon fill="black" stroke="black" points="669.5,-124.59 666,-114.59 662.5,-124.59 669.5,-124.59"/>
</g>
<!-- UnsuperClassification/trainer -->
<g id="node11" class="node">
<title>UnsuperClassification/trainer</title>
<ellipse fill="pink" stroke="red" cx="1227" cy="-848.88" rx="219.82" ry="58.88"/>
<text text-anchor="start" x="1079.5" y="-875.18" font-family="Times New Roman,serif" font-size="14.00">id: UnsuperClassification/trainer</text>
<text text-anchor="start" x="1079.5" y="-860.18" font-family="Times New Roman,serif" font-size="14.00">type: visionflow::confs::UnsuperClassificationTrainer</text>
<text text-anchor="start" x="1079.5" y="-845.18" font-family="Times New Roman,serif" font-size="14.00">update: 1970&#45;01&#45;01 00:00:00.0000000</text>
<text text-anchor="start" x="1079.5" y="-830.18" font-family="Times New Roman,serif" font-size="14.00">docs: Model trainer for Unsuper Classification </text>
<text text-anchor="start" x="1079.5" y="-815.18" font-family="Times New Roman,serif" font-size="14.00">Tool.</text>
</g>
<!-- UnsuperClassification/model -->
<g id="node27" class="node">
<title>UnsuperClassification/model</title>
<polygon fill="pink" stroke="red" points="1005.5,-739.19 780.5,-739.19 780.5,-656.19 1005.5,-656.19 1005.5,-739.19"/>
<text text-anchor="start" x="788.5" y="-723.99" font-family="Times New Roman,serif" font-size="14.00">id: UnsuperClassification/model</text>
<text text-anchor="start" x="788.5" y="-708.99" font-family="Times New Roman,serif" font-size="14.00">type: visionflow::param::BinaryPacks</text>
<text text-anchor="start" x="788.5" y="-693.99" font-family="Times New Roman,serif" font-size="14.00">update: 1970&#45;01&#45;01 00:00:00.0000000</text>
<text text-anchor="start" x="788.5" y="-678.99" font-family="Times New Roman,serif" font-size="14.00">docs: A container to manage list of </text>
<text text-anchor="start" x="788.5" y="-663.99" font-family="Times New Roman,serif" font-size="14.00">binary data.</text>
</g>
<!-- UnsuperClassification/trainer&#45;&gt;UnsuperClassification/model -->
<g id="edge32" class="edge">
<title>UnsuperClassification/trainer&#45;&gt;UnsuperClassification/model</title>
<path fill="none" stroke="black" d="M1115.78,-798.2C1076.08,-780.46 1031.62,-760.6 992.93,-743.32"/>
<polygon fill="black" stroke="black" points="994.29,-740.1 983.74,-739.22 991.44,-746.49 994.29,-740.1"/>
</g>
<!-- UnsuperClassification/training_log -->
<g id="node30" class="node">
<title>UnsuperClassification/training_log</title>
<polygon fill="pink" stroke="red" points="1339.5,-724.19 1114.5,-724.19 1114.5,-671.19 1339.5,-671.19 1339.5,-724.19"/>
<text text-anchor="start" x="1122.5" y="-708.99" font-family="Times New Roman,serif" font-size="14.00">id: UnsuperClassification/training_log</text>
<text text-anchor="start" x="1122.5" y="-693.99" font-family="Times New Roman,serif" font-size="14.00">type: visionflow::param::TrainingLog</text>
<text text-anchor="start" x="1122.5" y="-678.99" font-family="Times New Roman,serif" font-size="14.00">update: 1970&#45;01&#45;01 00:00:00.0000000</text>
</g>
<!-- UnsuperClassification/trainer&#45;&gt;UnsuperClassification/training_log -->
<g id="edge33" class="edge">
<title>UnsuperClassification/trainer&#45;&gt;UnsuperClassification/training_log</title>
<path fill="none" stroke="black" d="M1227,-789.77C1227,-771.24 1227,-751.29 1227,-734.8"/>
<polygon fill="black" stroke="black" points="1230.5,-734.51 1227,-724.51 1223.5,-734.51 1230.5,-734.51"/>
</g>
<!-- UnsuperClassification/trainer.conf -->
<g id="node12" class="node">
<title>UnsuperClassification/trainer.conf</title>
<ellipse fill="pink" stroke="red" cx="1167" cy="-1131.86" rx="239.92" ry="58.88"/>
<text text-anchor="start" x="1005.5" y="-1158.16" font-family="Times New Roman,serif" font-size="14.00">id: UnsuperClassification/trainer.conf</text>
<text text-anchor="start" x="1005.5" y="-1143.16" font-family="Times New Roman,serif" font-size="14.00">type: visionflow::confs::UnsuperClassificationTrainerConf</text>
<text text-anchor="start" x="1005.5" y="-1128.16" font-family="Times New Roman,serif" font-size="14.00">update: 1970&#45;01&#45;01 00:00:00.0000000</text>
<text text-anchor="start" x="1005.5" y="-1113.16" font-family="Times New Roman,serif" font-size="14.00">docs: Configurator to set unsuper classification </text>
<text text-anchor="start" x="1005.5" y="-1098.16" font-family="Times New Roman,serif" font-size="14.00">trainer options.</text>
</g>
<!-- UnsuperClassification/trainer.args -->
<g id="node29" class="node">
<title>UnsuperClassification/trainer.args</title>
<polygon fill="pink" stroke="red" points="1382.5,-1026.57 1001.5,-1026.57 1001.5,-943.57 1382.5,-943.57 1382.5,-1026.57"/>
<text text-anchor="start" x="1009.5" y="-1011.37" font-family="Times New Roman,serif" font-size="14.00">id: UnsuperClassification/trainer.args</text>
<text text-anchor="start" x="1009.5" y="-996.37" font-family="Times New Roman,serif" font-size="14.00">type: visionflow::param::UnsuperClassificationTrainingParameters</text>
<text text-anchor="start" x="1009.5" y="-981.37" font-family="Times New Roman,serif" font-size="14.00">update: 1970&#45;01&#45;01 00:00:00.0000000</text>
<text text-anchor="start" x="1009.5" y="-966.37" font-family="Times New Roman,serif" font-size="14.00">docs: Unsuper Classification Training </text>
<text text-anchor="start" x="1009.5" y="-951.37" font-family="Times New Roman,serif" font-size="14.00">Parameters Group.</text>
</g>
<!-- UnsuperClassification/trainer.conf&#45;&gt;UnsuperClassification/trainer.args -->
<g id="edge35" class="edge">
<title>UnsuperClassification/trainer.conf&#45;&gt;UnsuperClassification/trainer.args</title>
<path fill="none" stroke="black" d="M1176.95,-1073.22C1179.04,-1061.14 1181.22,-1048.49 1183.26,-1036.69"/>
<polygon fill="black" stroke="black" points="1186.75,-1037.03 1185.01,-1026.58 1179.85,-1035.84 1186.75,-1037.03"/>
</g>
<!-- UnsuperClassification/mask&#45;&gt;UnsuperClassification/trainer -->
<g id="edge22" class="edge">
<title>UnsuperClassification/mask&#45;&gt;UnsuperClassification/trainer</title>
<path fill="none" stroke="black" d="M1003.47,-1621.64C1115.8,-1552.2 1331.41,-1398.89 1416,-1201.16 1461.23,-1095.45 1459.43,-1036.7 1392,-943.57 1381.16,-928.59 1367.15,-915.69 1351.87,-904.65"/>
<polygon fill="black" stroke="black" points="1353.48,-901.51 1343.26,-898.72 1349.51,-907.28 1353.48,-901.51"/>
</g>
<!-- UnsuperClassification/tagged_polygons&#45;&gt;UnsuperClassification/view_tagger -->
<g id="edge27" class="edge">
<title>UnsuperClassification/tagged_polygons&#45;&gt;UnsuperClassification/view_tagger</title>
<path fill="none" stroke="black" d="M278.14,-1629.21C276.38,-1619.22 274.32,-1607.61 272.13,-1595.25"/>
<polygon fill="black" stroke="black" points="275.54,-1594.43 270.36,-1585.19 268.65,-1595.65 275.54,-1594.43"/>
</g>
<!-- UnsuperClassification/tagged_views&#45;&gt;UnsuperClassification/comparator -->
<g id="edge28" class="edge">
<title>UnsuperClassification/tagged_views&#45;&gt;UnsuperClassification/comparator</title>
<path fill="none" stroke="black" d="M126.39,-1253.88C94.92,-1243.73 64.26,-1227.38 44,-1201.16 14.7,-1163.24 29,-1033.98 29,-986.07 29,-986.07 29,-986.07 29,-545.5 29,-459.52 11.96,-428.23 55,-353.81 64.54,-337.31 77.47,-322.37 91.75,-309.12"/>
<polygon fill="black" stroke="black" points="94.2,-311.63 99.32,-302.36 89.53,-306.41 94.2,-311.63"/>
</g>
<!-- UnsuperClassification/tagged_views&#45;&gt;UnsuperClassification/image_mean_conf -->
<g id="edge29" class="edge">
<title>UnsuperClassification/tagged_views&#45;&gt;UnsuperClassification/image_mean_conf</title>
<path fill="none" stroke="black" d="M371.56,-1238.92C414,-1227.63 461.75,-1214.39 505,-1201.16 523.23,-1195.58 542.29,-1189.44 561.1,-1183.2"/>
<polygon fill="black" stroke="black" points="562.22,-1186.51 570.6,-1180.03 560,-1179.87 562.22,-1186.51"/>
</g>
<!-- UnsuperClassification/tagged_views&#45;&gt;UnsuperClassification/statistician -->
<g id="edge30" class="edge">
<title>UnsuperClassification/tagged_views&#45;&gt;UnsuperClassification/statistician</title>
<path fill="none" stroke="black" d="M225.92,-1237.13C162.12,-1141.45 -5.82,-857.13 90,-641.19 161.58,-479.88 217.01,-451.46 364,-353.81 404.02,-327.22 451.07,-305.56 495.97,-288.5"/>
<polygon fill="black" stroke="black" points="497.37,-291.72 505.51,-284.93 494.92,-285.16 497.37,-291.72"/>
</g>
<!-- UnsuperClassification/tagged_views&#45;&gt;UnsuperClassification/trainer -->
<g id="edge31" class="edge">
<title>UnsuperClassification/tagged_views&#45;&gt;UnsuperClassification/trainer</title>
<path fill="none" stroke="black" d="M280.83,-1237.01C354.64,-1160.98 537.13,-977.96 616,-943.57 770.29,-876.29 827.06,-935.79 993,-907.57 1016.11,-903.63 1040.32,-898.66 1064.03,-893.29"/>
<polygon fill="black" stroke="black" points="1064.83,-896.7 1073.8,-891.05 1063.27,-889.87 1064.83,-896.7"/>
</g>
<!-- UnsuperClassification/truth&#45;&gt;UnsuperClassification/comparator -->
<g id="edge36" class="edge">
<title>UnsuperClassification/truth&#45;&gt;UnsuperClassification/comparator</title>
<path fill="none" stroke="black" d="M223.17,-963.18C161.68,-950.33 97.5,-931.68 79,-907.57 41.55,-858.74 48.71,-409.9 74,-353.81 80.71,-338.91 90.42,-325.17 101.55,-312.76"/>
<polygon fill="black" stroke="black" points="104.35,-314.89 108.64,-305.21 99.25,-310.1 104.35,-314.89"/>
</g>
<!-- UnsuperClassification/truth&#45;&gt;UnsuperClassification/statistician -->
<g id="edge37" class="edge">
<title>UnsuperClassification/truth&#45;&gt;UnsuperClassification/statistician</title>
<path fill="none" stroke="black" d="M480.52,-947.69C487.76,-946.16 494.95,-944.77 502,-943.57 554.28,-934.61 938.79,-943.28 978,-907.57 1017.12,-871.93 982.11,-840.66 998,-790.19 1003.31,-773.31 1011.13,-771.45 1015,-754.19 1055.91,-571.76 1014.21,-489.87 886,-353.81 863.5,-329.93 834.93,-310.1 805.89,-294.01"/>
<polygon fill="black" stroke="black" points="807.33,-290.81 796.87,-289.14 804,-296.97 807.33,-290.81"/>
</g>
<!-- UnsuperClassification/truth&#45;&gt;UnsuperClassification/trainer -->
<g id="edge38" class="edge">
<title>UnsuperClassification/truth&#45;&gt;UnsuperClassification/trainer</title>
<path fill="none" stroke="black" d="M480.73,-946.3C485.53,-945.31 490.3,-944.39 495,-943.57 713.56,-905.13 773.82,-942.25 993,-907.57 1016.43,-903.86 1040.95,-898.96 1064.95,-893.59"/>
<polygon fill="black" stroke="black" points="1065.85,-896.97 1074.83,-891.34 1064.3,-890.15 1065.85,-896.97"/>
</g>
<!-- UnsuperClassification/image -->
<g id="node19" class="node">
<title>UnsuperClassification/image</title>
<ellipse fill="lightblue" stroke="blue" cx="1465" cy="-1935.7" rx="1.8" ry="1.8"/>
</g>
<!-- UnsuperClassification/image&#45;&gt;UnsuperClassification/infer -->
<g id="edge8" class="edge">
<title>UnsuperClassification/image&#45;&gt;UnsuperClassification/infer</title>
<path fill="none" stroke="black" d="M1465.24,-1933.73C1468.48,-1920.79 1503,-1779.98 1503,-1664.32 1503,-1664.32 1503,-1664.32 1503,-847.88 1503,-733.32 1447.82,-699.13 1349,-641.19 1266.67,-592.92 1029.03,-568.92 849.93,-557.4"/>
<polygon fill="black" stroke="black" points="850.03,-553.9 839.83,-556.76 849.59,-560.89 850.03,-553.9"/>
</g>
<!-- UnsuperClassification/image&#45;&gt;UnsuperClassification/label_oper -->
<g id="edge9" class="edge">
<title>UnsuperClassification/image&#45;&gt;UnsuperClassification/label_oper</title>
<path fill="none" stroke="black" d="M1465.28,-1933.48C1466.44,-1927.99 1470.39,-1905.32 1459,-1894.2 1421.07,-1857.17 1134.86,-1829.85 925.29,-1814.55"/>
<polygon fill="black" stroke="black" points="925.28,-1811.05 915.06,-1813.81 924.78,-1818.03 925.28,-1811.05"/>
</g>
<!-- UnsuperClassification/image&#45;&gt;UnsuperClassification/image_mean_conf -->
<g id="edge7" class="edge">
<title>UnsuperClassification/image&#45;&gt;UnsuperClassification/image_mean_conf</title>
<path fill="none" stroke="black" d="M1464.88,-1933.69C1464.32,-1929.12 1461.9,-1909.85 1459,-1894.2 1456.02,-1878.08 1453.79,-1874.35 1451,-1858.2 1436.23,-1772.64 1427,-1751.14 1427,-1664.32 1427,-1664.32 1427,-1664.32 1427,-1462.49 1427,-1399.52 1059.28,-1258.72 848.33,-1183.12"/>
<polygon fill="black" stroke="black" points="849.31,-1179.76 838.72,-1179.69 846.96,-1186.35 849.31,-1179.76"/>
</g>
<!-- UnsuperClassification/image&#45;&gt;UnsuperClassification/trainer -->
<g id="edge10" class="edge">
<title>UnsuperClassification/image&#45;&gt;UnsuperClassification/trainer</title>
<path fill="none" stroke="black" d="M1465,-1933.73C1465,-1920.68 1465,-1778.85 1465,-1664.32 1465,-1664.32 1465,-1664.32 1465,-1130.86 1465,-1045.15 1472.82,-1010.28 1419,-943.57 1405.37,-926.67 1387.93,-912.6 1369.14,-900.95"/>
<polygon fill="black" stroke="black" points="1370.81,-897.87 1360.43,-895.77 1367.23,-903.88 1370.81,-897.87"/>
</g>
<!-- UnsuperClassification/views -->
<g id="node20" class="node">
<title>UnsuperClassification/views</title>
<ellipse fill="lightblue" stroke="blue" cx="5" cy="-1663.32" rx="1.8" ry="1.8"/>
</g>
<!-- UnsuperClassification/views&#45;&gt;UnsuperClassification/infer -->
<g id="edge40" class="edge">
<title>UnsuperClassification/views&#45;&gt;UnsuperClassification/infer</title>
<path fill="none" stroke="black" d="M4.98,-1661.34C4.62,-1645.45 0,-1438.8 0,-1272.16 0,-1272.16 0,-1272.16 0,-847.88 0,-747.68 11.19,-703.05 90,-641.19 141.15,-601.03 291.13,-577.1 420.53,-563.49"/>
<polygon fill="black" stroke="black" points="421.01,-566.96 430.6,-562.45 420.29,-560 421.01,-566.96"/>
</g>
<!-- UnsuperClassification/views&#45;&gt;UnsuperClassification/view_tagger -->
<g id="edge41" class="edge">
<title>UnsuperClassification/views&#45;&gt;UnsuperClassification/view_tagger</title>
<path fill="none" stroke="black" d="M5.03,-1661.2C5.2,-1656.14 6.5,-1635.09 16,-1621.82 37.57,-1591.66 66.86,-1565.55 97.38,-1543.74"/>
<polygon fill="black" stroke="black" points="99.4,-1546.6 105.59,-1538 95.39,-1540.86 99.4,-1546.6"/>
</g>
<!-- UnsuperClassification/pred&#45;&gt;UnsuperClassification/comparator -->
<g id="edge24" class="edge">
<title>UnsuperClassification/pred&#45;&gt;UnsuperClassification/comparator</title>
<path fill="none" stroke="black" d="M426.82,-361.12C395.78,-344.09 358.89,-323.86 324.16,-304.81"/>
<polygon fill="black" stroke="black" points="325.83,-301.73 315.38,-299.99 322.46,-307.87 325.83,-301.73"/>
</g>
<!-- UnsuperClassification/pred&#45;&gt;UnsuperClassification/statistician -->
<g id="edge25" class="edge">
<title>UnsuperClassification/pred&#45;&gt;UnsuperClassification/statistician</title>
<path fill="none" stroke="black" d="M542.21,-361.12C560.15,-343.41 581.59,-322.24 601.56,-302.53"/>
<polygon fill="black" stroke="black" points="604.18,-304.86 608.84,-295.34 599.26,-299.88 604.18,-304.86"/>
</g>
<!-- UnsuperClassification/base_color&#45;&gt;UnsuperClassification/image_mean_conf -->
<g id="edge1" class="edge">
<title>UnsuperClassification/base_color&#45;&gt;UnsuperClassification/image_mean_conf</title>
<path fill="none" stroke="black" d="M787.05,-1244.66C778.96,-1233.77 769.06,-1220.44 758.95,-1206.83"/>
<polygon fill="black" stroke="black" points="761.76,-1204.74 752.99,-1198.8 756.14,-1208.92 761.76,-1204.74"/>
</g>
<!-- UnsuperClassification/base_color&#45;&gt;UnsuperClassification/trainer -->
<g id="edge2" class="edge">
<title>UnsuperClassification/base_color&#45;&gt;UnsuperClassification/trainer</title>
<path fill="none" stroke="black" d="M854.06,-1244.63C870.57,-1233.47 887.51,-1218.85 898,-1201.16 929.75,-1147.63 896.49,-1120.97 918,-1062.57 939.6,-1003.9 944.97,-983.58 993,-943.57 1015.73,-924.63 1042.77,-909.16 1070.27,-896.65"/>
<polygon fill="black" stroke="black" points="1071.88,-899.76 1079.61,-892.52 1069.04,-893.36 1071.88,-899.76"/>
</g>
<!-- UnsuperClassification/batch_size&#45;&gt;UnsuperClassification/infer -->
<g id="edge4" class="edge">
<title>UnsuperClassification/batch_size&#45;&gt;UnsuperClassification/infer</title>
<path fill="none" stroke="black" d="M633,-641.13C633,-632.74 633,-624 633,-615.38"/>
<polygon fill="black" stroke="black" points="636.5,-615.34 633,-605.34 629.5,-615.34 636.5,-615.34"/>
</g>
<!-- UnsuperClassification/image_mean&#45;&gt;UnsuperClassification/trainer -->
<g id="edge11" class="edge">
<title>UnsuperClassification/image_mean&#45;&gt;UnsuperClassification/trainer</title>
<path fill="none" stroke="black" d="M853.72,-952.52C916.96,-935.13 996.49,-913.26 1065.87,-894.18"/>
<polygon fill="black" stroke="black" points="1066.87,-897.54 1075.59,-891.51 1065.02,-890.79 1066.87,-897.54"/>
</g>
<!-- UnsuperClassification/infer.args&#45;&gt;UnsuperClassification/infer -->
<g id="edge15" class="edge">
<title>UnsuperClassification/infer.args&#45;&gt;UnsuperClassification/infer</title>
<path fill="none" stroke="black" d="M384.73,-656.12C423.97,-638.95 470.2,-618.72 512.06,-600.41"/>
<polygon fill="black" stroke="black" points="513.72,-603.5 521.48,-596.29 510.92,-597.09 513.72,-603.5"/>
</g>
<!-- UnsuperClassification/label_oper.args&#45;&gt;UnsuperClassification/label_oper -->
<g id="edge20" class="edge">
<title>UnsuperClassification/label_oper.args&#45;&gt;UnsuperClassification/label_oper</title>
<path fill="none" stroke="black" d="M701,-1894.07C701,-1885.98 701,-1877.27 701,-1868.54"/>
<polygon fill="black" stroke="black" points="704.5,-1868.32 701,-1858.32 697.5,-1868.32 704.5,-1868.32"/>
</g>
<!-- UnsuperClassification/model&#45;&gt;UnsuperClassification/infer -->
<g id="edge23" class="edge">
<title>UnsuperClassification/model&#45;&gt;UnsuperClassification/infer</title>
<path fill="none" stroke="black" d="M822.3,-656.12C794.65,-640.25 762.45,-621.78 732.53,-604.61"/>
<polygon fill="black" stroke="black" points="734.16,-601.51 723.75,-599.57 730.68,-607.58 734.16,-601.51"/>
</g>
<!-- UnsuperClassification/trainer.args&#45;&gt;UnsuperClassification/trainer -->
<g id="edge34" class="edge">
<title>UnsuperClassification/trainer.args&#45;&gt;UnsuperClassification/trainer</title>
<path fill="none" stroke="black" d="M1202.6,-943.44C1204.73,-935.26 1207.03,-926.45 1209.33,-917.63"/>
<polygon fill="black" stroke="black" points="1212.78,-918.25 1211.92,-907.69 1206.01,-916.48 1212.78,-918.25"/>
</g>
</g>
</svg>
