<?xml version="1.0" encoding="UTF-8" standalone="no"?>
<!DOCTYPE svg PUBLIC "-//W3C//DTD SVG 1.1//EN"
 "http://www.w3.org/Graphics/SVG/1.1/DTD/svg11.dtd">
<!-- Generated by graphviz version 6.0.1 (20220911.1526)
 -->
<!-- Title: OnlyTool: Input Pages: 1 -->
<svg width="1075pt" height="574pt"
 viewBox="0.00 0.00 1075.00 573.55" xmlns="http://www.w3.org/2000/svg" xmlns:xlink="http://www.w3.org/1999/xlink">
<g id="graph0" class="graph" transform="scale(1 1) rotate(0) translate(4 569.55)">
<title>OnlyTool: Input</title>
<polygon fill="white" stroke="none" points="-4,4 -4,-569.55 1071,-569.55 1071,4 -4,4"/>
<text text-anchor="middle" x="533.5" y="-7.8" font-family="Times New Roman,serif" font-size="14.00">OnlyTool: Input</text>
<g id="clust1" class="cluster">
<title>cluster_Input</title>
<polygon fill="none" stroke="black" points="8,-31 8,-557.55 1059,-557.55 1059,-31 8,-31"/>
<text text-anchor="middle" x="533.5" y="-542.35" font-family="Times New Roman,serif" font-size="14.00">Input</text>
</g>
<!-- Input/cam_image_grabber -->
<g id="node1" class="node">
<title>Input/cam_image_grabber</title>
<ellipse fill="lightblue" stroke="blue" cx="708" cy="-191.08" rx="192.17" ry="48.17"/>
<text text-anchor="start" x="580" y="-209.88" font-family="Times New Roman,serif" font-size="14.00">id: Input/cam_image_grabber</text>
<text text-anchor="start" x="580" y="-194.88" font-family="Times New Roman,serif" font-size="14.00">type: visionflow::opers::CameraImageGrabber</text>
<text text-anchor="start" x="580" y="-179.88" font-family="Times New Roman,serif" font-size="14.00">update: 1970&#45;01&#45;01 00:00:00.0000000</text>
<text text-anchor="start" x="580" y="-164.88" font-family="Times New Roman,serif" font-size="14.00">docs: Operator to grab image from camera.</text>
</g>
<!-- Input/image -->
<g id="node6" class="node">
<title>Input/image</title>
<polygon fill="none" stroke="blue" stroke-dasharray="5,2" points="245.5,-107 16.5,-107 16.5,-39 245.5,-39 245.5,-107"/>
<text text-anchor="start" x="24.5" y="-91.8" font-family="Times New Roman,serif" font-size="14.00">id: Input/image</text>
<text text-anchor="start" x="24.5" y="-76.8" font-family="Times New Roman,serif" font-size="14.00">type: visionflow::props::Image</text>
<text text-anchor="start" x="24.5" y="-61.8" font-family="Times New Roman,serif" font-size="14.00">update: 1970&#45;01&#45;01 00:00:00.0000000</text>
<text text-anchor="start" x="24.5" y="-46.8" font-family="Times New Roman,serif" font-size="14.00">docs: Property Image implementation.</text>
</g>
<!-- Input/cam_image_grabber&#45;&gt;Input/image -->
<g id="edge1" class="edge">
<title>Input/cam_image_grabber&#45;&gt;Input/image</title>
<path fill="none" stroke="black" d="M573.2,-156.77C551.15,-151.82 528.49,-147.04 507,-143 398.54,-122.62 367.04,-129.34 255.74,-107.27"/>
<polygon fill="black" stroke="black" points="256.29,-103.81 245.8,-105.27 254.91,-110.68 256.29,-103.81"/>
</g>
<!-- Input/image_info -->
<g id="node7" class="node">
<title>Input/image_info</title>
<polygon fill="none" stroke="blue" stroke-dasharray="5,2" points="496.5,-107 263.5,-107 263.5,-39 496.5,-39 496.5,-107"/>
<text text-anchor="start" x="271.5" y="-91.8" font-family="Times New Roman,serif" font-size="14.00">id: Input/image_info</text>
<text text-anchor="start" x="271.5" y="-76.8" font-family="Times New Roman,serif" font-size="14.00">type: visionflow::props::RawImageInfo</text>
<text text-anchor="start" x="271.5" y="-61.8" font-family="Times New Roman,serif" font-size="14.00">update: 1970&#45;01&#45;01 00:00:00.0000000</text>
<text text-anchor="start" x="271.5" y="-46.8" font-family="Times New Roman,serif" font-size="14.00">docs: Raw Image information.</text>
</g>
<!-- Input/cam_image_grabber&#45;&gt;Input/image_info -->
<g id="edge2" class="edge">
<title>Input/cam_image_grabber&#45;&gt;Input/image_info</title>
<path fill="none" stroke="black" d="M598.78,-151.43C561.49,-138.23 519.92,-123.52 483.13,-110.5"/>
<polygon fill="black" stroke="black" points="483.98,-107.09 473.38,-107.05 481.64,-113.68 483.98,-107.09"/>
</g>
<!-- Input/image_user_data -->
<g id="node8" class="node">
<title>Input/image_user_data</title>
<polygon fill="none" stroke="blue" stroke-dasharray="5,2" points="787,-107 515,-107 515,-39 787,-39 787,-107"/>
<text text-anchor="start" x="523" y="-91.8" font-family="Times New Roman,serif" font-size="14.00">id: Input/image_user_data</text>
<text text-anchor="start" x="523" y="-76.8" font-family="Times New Roman,serif" font-size="14.00">type: visionflow::props::ImageUserData</text>
<text text-anchor="start" x="523" y="-61.8" font-family="Times New Roman,serif" font-size="14.00">update: 1970&#45;01&#45;01 00:00:00.0000000</text>
<text text-anchor="start" x="523" y="-46.8" font-family="Times New Roman,serif" font-size="14.00">docs: User&#45;defined image&#45;related information.</text>
</g>
<!-- Input/cam_image_grabber&#45;&gt;Input/image_user_data -->
<g id="edge3" class="edge">
<title>Input/cam_image_grabber&#45;&gt;Input/image_user_data</title>
<path fill="none" stroke="black" d="M684.98,-143.2C680.62,-134.33 676.09,-125.1 671.81,-116.37"/>
<polygon fill="black" stroke="black" points="674.83,-114.58 667.28,-107.15 668.54,-117.67 674.83,-114.58"/>
</g>
<!-- Input/views -->
<g id="node9" class="node">
<title>Input/views</title>
<polygon fill="none" stroke="blue" stroke-dasharray="5,2" points="1050.5,-107 805.5,-107 805.5,-39 1050.5,-39 1050.5,-107"/>
<text text-anchor="start" x="813.5" y="-91.8" font-family="Times New Roman,serif" font-size="14.00">id: Input/views</text>
<text text-anchor="start" x="813.5" y="-76.8" font-family="Times New Roman,serif" font-size="14.00">type: visionflow::props::ViewList</text>
<text text-anchor="start" x="813.5" y="-61.8" font-family="Times New Roman,serif" font-size="14.00">update: 1970&#45;01&#45;01 00:00:00.0000000</text>
<text text-anchor="start" x="813.5" y="-46.8" font-family="Times New Roman,serif" font-size="14.00">docs: Property ViewList implementation.</text>
</g>
<!-- Input/cam_image_grabber&#45;&gt;Input/views -->
<g id="edge4" class="edge">
<title>Input/cam_image_grabber&#45;&gt;Input/views</title>
<path fill="none" stroke="black" d="M788.98,-147.35C811.07,-135.7 834.83,-123.16 856.36,-111.8"/>
<polygon fill="black" stroke="black" points="858.22,-114.78 865.43,-107.01 854.95,-108.59 858.22,-114.78"/>
</g>
<!-- Input/file_image_grabber -->
<g id="node2" class="node">
<title>Input/file_image_grabber</title>
<ellipse fill="lightblue" stroke="blue" cx="322" cy="-191.08" rx="176.14" ry="48.17"/>
<text text-anchor="start" x="205.5" y="-209.88" font-family="Times New Roman,serif" font-size="14.00">id: Input/file_image_grabber</text>
<text text-anchor="start" x="205.5" y="-194.88" font-family="Times New Roman,serif" font-size="14.00">type: visionflow::opers::FileImageGrabber</text>
<text text-anchor="start" x="205.5" y="-179.88" font-family="Times New Roman,serif" font-size="14.00">update: 1970&#45;01&#45;01 00:00:00.0000000</text>
<text text-anchor="start" x="205.5" y="-164.88" font-family="Times New Roman,serif" font-size="14.00">docs: &#160;Operator to grab image from file.</text>
</g>
<!-- Input/file_image_grabber&#45;&gt;Input/image -->
<g id="edge7" class="edge">
<title>Input/file_image_grabber&#45;&gt;Input/image</title>
<path fill="none" stroke="black" d="M251.15,-147.02C232.45,-135.66 212.39,-123.47 194.12,-112.36"/>
<polygon fill="black" stroke="black" points="195.68,-109.21 185.32,-107.01 192.04,-115.2 195.68,-109.21"/>
</g>
<!-- Input/file_image_grabber&#45;&gt;Input/image_info -->
<g id="edge8" class="edge">
<title>Input/file_image_grabber&#45;&gt;Input/image_info</title>
<path fill="none" stroke="black" d="M345.42,-143.2C349.9,-134.24 354.57,-124.9 358.97,-116.09"/>
<polygon fill="black" stroke="black" points="362.1,-117.66 363.44,-107.15 355.84,-114.53 362.1,-117.66"/>
</g>
<!-- Input/file_image_grabber&#45;&gt;Input/image_user_data -->
<g id="edge9" class="edge">
<title>Input/file_image_grabber&#45;&gt;Input/image_user_data</title>
<path fill="none" stroke="black" d="M428.36,-152.55C466.61,-139.06 509.67,-123.87 547.66,-110.46"/>
<polygon fill="black" stroke="black" points="548.94,-113.72 557.2,-107.1 546.61,-107.12 548.94,-113.72"/>
</g>
<!-- Input/file_image_grabber&#45;&gt;Input/views -->
<g id="edge10" class="edge">
<title>Input/file_image_grabber&#45;&gt;Input/views</title>
<path fill="none" stroke="black" d="M444.92,-156.51C465.55,-151.54 486.81,-146.81 507,-143 630.96,-119.6 666.94,-130.17 794.95,-107.1"/>
<polygon fill="black" stroke="black" points="795.94,-110.48 805.15,-105.23 794.68,-103.59 795.94,-110.48"/>
</g>
<!-- Input/cam_image_grabber.conf -->
<g id="node3" class="node">
<title>Input/cam_image_grabber.conf</title>
<ellipse fill="pink" stroke="red" cx="880" cy="-467.86" rx="159.2" ry="58.88"/>
<text text-anchor="start" x="775.5" y="-494.16" font-family="Times New Roman,serif" font-size="14.00">id: Input/cam_image_grabber.conf</text>
<text text-anchor="start" x="775.5" y="-479.16" font-family="Times New Roman,serif" font-size="14.00">type: visionflow::confs::CustomConf</text>
<text text-anchor="start" x="775.5" y="-464.16" font-family="Times New Roman,serif" font-size="14.00">update: 1970&#45;01&#45;01 00:00:00.0000000</text>
<text text-anchor="start" x="775.5" y="-449.16" font-family="Times New Roman,serif" font-size="14.00">docs: Configurator class to generate </text>
<text text-anchor="start" x="775.5" y="-434.16" font-family="Times New Roman,serif" font-size="14.00">any user&#45;defined parameters</text>
</g>
<!-- Input/cam_image_grabber.args -->
<g id="node10" class="node">
<title>Input/cam_image_grabber.args</title>
<polygon fill="pink" stroke="red" points="946.5,-365.67 721.5,-365.67 721.5,-282.67 946.5,-282.67 946.5,-365.67"/>
<text text-anchor="start" x="729.5" y="-350.47" font-family="Times New Roman,serif" font-size="14.00">id: Input/cam_image_grabber.args</text>
<text text-anchor="start" x="729.5" y="-335.47" font-family="Times New Roman,serif" font-size="14.00">type: visionflow::param::BinaryPacks</text>
<text text-anchor="start" x="729.5" y="-320.47" font-family="Times New Roman,serif" font-size="14.00">update: 1970&#45;01&#45;01 00:00:00.0000000</text>
<text text-anchor="start" x="729.5" y="-305.47" font-family="Times New Roman,serif" font-size="14.00">docs: A container to manage list of </text>
<text text-anchor="start" x="729.5" y="-290.47" font-family="Times New Roman,serif" font-size="14.00">binary data.</text>
</g>
<!-- Input/cam_image_grabber.conf&#45;&gt;Input/cam_image_grabber.args -->
<g id="edge6" class="edge">
<title>Input/cam_image_grabber.conf&#45;&gt;Input/cam_image_grabber.args</title>
<path fill="none" stroke="black" d="M861.29,-409.23C857.67,-398.08 853.91,-386.48 850.37,-375.59"/>
<polygon fill="black" stroke="black" points="853.61,-374.25 847.2,-365.82 846.96,-376.41 853.61,-374.25"/>
</g>
<!-- Input/file_image_grabber.conf -->
<g id="node4" class="node">
<title>Input/file_image_grabber.conf</title>
<ellipse fill="pink" stroke="red" cx="186" cy="-467.86" rx="159.2" ry="58.88"/>
<text text-anchor="start" x="81.5" y="-494.16" font-family="Times New Roman,serif" font-size="14.00">id: Input/file_image_grabber.conf</text>
<text text-anchor="start" x="81.5" y="-479.16" font-family="Times New Roman,serif" font-size="14.00">type: visionflow::confs::CustomConf</text>
<text text-anchor="start" x="81.5" y="-464.16" font-family="Times New Roman,serif" font-size="14.00">update: 1970&#45;01&#45;01 00:00:00.0000000</text>
<text text-anchor="start" x="81.5" y="-449.16" font-family="Times New Roman,serif" font-size="14.00">docs: Configurator class to generate </text>
<text text-anchor="start" x="81.5" y="-434.16" font-family="Times New Roman,serif" font-size="14.00">any user&#45;defined parameters</text>
</g>
<!-- Input/file_image_grabber.args -->
<g id="node11" class="node">
<title>Input/file_image_grabber.args</title>
<polygon fill="pink" stroke="red" points="343.5,-365.67 118.5,-365.67 118.5,-282.67 343.5,-282.67 343.5,-365.67"/>
<text text-anchor="start" x="126.5" y="-350.47" font-family="Times New Roman,serif" font-size="14.00">id: Input/file_image_grabber.args</text>
<text text-anchor="start" x="126.5" y="-335.47" font-family="Times New Roman,serif" font-size="14.00">type: visionflow::param::BinaryPacks</text>
<text text-anchor="start" x="126.5" y="-320.47" font-family="Times New Roman,serif" font-size="14.00">update: 1970&#45;01&#45;01 00:00:00.0000000</text>
<text text-anchor="start" x="126.5" y="-305.47" font-family="Times New Roman,serif" font-size="14.00">docs: A container to manage list of </text>
<text text-anchor="start" x="126.5" y="-290.47" font-family="Times New Roman,serif" font-size="14.00">binary data.</text>
</g>
<!-- Input/file_image_grabber.conf&#45;&gt;Input/file_image_grabber.args -->
<g id="edge12" class="edge">
<title>Input/file_image_grabber.conf&#45;&gt;Input/file_image_grabber.args</title>
<path fill="none" stroke="black" d="M204.3,-409.23C207.84,-398.08 211.53,-386.48 214.99,-375.59"/>
<polygon fill="black" stroke="black" points="218.4,-376.41 218.09,-365.82 211.73,-374.29 218.4,-376.41"/>
</g>
<!-- Input/input_image.conf -->
<g id="node5" class="node">
<title>Input/input_image.conf</title>
<ellipse fill="pink" stroke="red" cx="533" cy="-467.86" rx="169.91" ry="58.88"/>
<text text-anchor="start" x="421" y="-494.16" font-family="Times New Roman,serif" font-size="14.00">id: Input/input_image.conf</text>
<text text-anchor="start" x="421" y="-479.16" font-family="Times New Roman,serif" font-size="14.00">type: visionflow::confs::InputImageConf</text>
<text text-anchor="start" x="421" y="-464.16" font-family="Times New Roman,serif" font-size="14.00">update: 1970&#45;01&#45;01 00:00:00.0000000</text>
<text text-anchor="start" x="421" y="-449.16" font-family="Times New Roman,serif" font-size="14.00">docs: Configurator class to generate </text>
<text text-anchor="start" x="421" y="-434.16" font-family="Times New Roman,serif" font-size="14.00">input image parameter.</text>
</g>
<!-- Input/input_image.param -->
<g id="node12" class="node">
<title>Input/input_image.param</title>
<polygon fill="none" stroke="red" stroke-dasharray="5,2" points="658,-373.17 408,-373.17 408,-275.17 658,-275.17 658,-373.17"/>
<text text-anchor="start" x="416" y="-357.97" font-family="Times New Roman,serif" font-size="14.00">id: Input/input_image.param</text>
<text text-anchor="start" x="416" y="-342.97" font-family="Times New Roman,serif" font-size="14.00">type: visionflow::param::InputImageParam</text>
<text text-anchor="start" x="416" y="-327.97" font-family="Times New Roman,serif" font-size="14.00">update: 1970&#45;01&#45;01 00:00:00.0000000</text>
<text text-anchor="start" x="416" y="-312.97" font-family="Times New Roman,serif" font-size="14.00">docs: 输入图像相关参数，用</text>
<text text-anchor="start" x="416" y="-297.97" font-family="Times New Roman,serif" font-size="14.00">于控制工程的输入图像</text>
<text text-anchor="start" x="416" y="-282.97" font-family="Times New Roman,serif" font-size="14.00">格式规范.</text>
</g>
<!-- Input/input_image.conf&#45;&gt;Input/input_image.param -->
<g id="edge13" class="edge">
<title>Input/input_image.conf&#45;&gt;Input/input_image.param</title>
<path fill="none" stroke="black" d="M533,-408.82C533,-400.45 533,-391.84 533,-383.46"/>
<polygon fill="black" stroke="black" points="536.5,-383.4 533,-373.4 529.5,-383.4 536.5,-383.4"/>
</g>
<!-- Input/cam_image_grabber.args&#45;&gt;Input/cam_image_grabber -->
<g id="edge5" class="edge">
<title>Input/cam_image_grabber.args&#45;&gt;Input/cam_image_grabber</title>
<path fill="none" stroke="black" d="M794.82,-282.41C783.7,-270.83 771.41,-258.05 759.66,-245.83"/>
<polygon fill="black" stroke="black" points="761.88,-243.09 752.43,-238.31 756.84,-247.94 761.88,-243.09"/>
</g>
<!-- Input/file_image_grabber.args&#45;&gt;Input/file_image_grabber -->
<g id="edge11" class="edge">
<title>Input/file_image_grabber.args&#45;&gt;Input/file_image_grabber</title>
<path fill="none" stroke="black" d="M259.29,-282.41C267.02,-271.28 275.52,-259.04 283.7,-247.25"/>
<polygon fill="black" stroke="black" points="286.76,-248.98 289.59,-238.77 281.01,-244.99 286.76,-248.98"/>
</g>
<!-- Input/input_image.param&#45;&gt;Input/cam_image_grabber -->
<g id="edge14" class="edge">
<title>Input/input_image.param&#45;&gt;Input/cam_image_grabber</title>
<path fill="none" stroke="black" d="M597.17,-275.1C611.11,-264.66 625.91,-253.57 640,-243.02"/>
<polygon fill="black" stroke="black" points="642.29,-245.67 648.2,-236.88 638.1,-240.07 642.29,-245.67"/>
</g>
<!-- Input/input_image.param&#45;&gt;Input/file_image_grabber -->
<g id="edge15" class="edge">
<title>Input/input_image.param&#45;&gt;Input/file_image_grabber</title>
<path fill="none" stroke="black" d="M455.63,-275.1C437.64,-263.92 418.47,-252.01 400.43,-240.81"/>
<polygon fill="black" stroke="black" points="402.02,-237.68 391.68,-235.37 398.33,-243.62 402.02,-237.68"/>
</g>
</g>
</svg>
