<?xml version="1.0" encoding="UTF-8" standalone="no"?>
<!DOCTYPE svg PUBLIC "-//W3C//DTD SVG 1.1//EN"
 "http://www.w3.org/Graphics/SVG/1.1/DTD/svg11.dtd">
<!-- Generated by graphviz version 6.0.1 (20220911.1526)
 -->
<!-- Title: OnlyTool: ELClassification Pages: 1 -->
<svg width="1490pt" height="1863pt"
 viewBox="0.00 0.00 1489.81 1862.77" xmlns="http://www.w3.org/2000/svg" xmlns:xlink="http://www.w3.org/1999/xlink">
<g id="graph0" class="graph" transform="scale(1 1) rotate(0) translate(4 1858.77)">
<title>OnlyTool: ELClassification</title>
<polygon fill="white" stroke="none" points="-4,4 -4,-1858.77 1485.81,-1858.77 1485.81,4 -4,4"/>
<text text-anchor="middle" x="740.9" y="-7.8" font-family="Times New Roman,serif" font-size="14.00">OnlyTool: ELClassification</text>
<g id="clust1" class="cluster">
<title>cluster_ELClassification</title>
<polygon fill="none" stroke="black" points="12.02,-31 12.02,-1846.77 1466.02,-1846.77 1466.02,-31 12.02,-31"/>
<text text-anchor="middle" x="739.02" y="-1831.57" font-family="Times New Roman,serif" font-size="14.00">ELClassification</text>
</g>
<!-- ELClassification/comparator -->
<g id="node1" class="node">
<title>ELClassification/comparator</title>
<ellipse fill="lightblue" stroke="blue" cx="1282.02" cy="-237.9" rx="176.14" ry="79.81"/>
<text text-anchor="start" x="1165.52" y="-279.2" font-family="Times New Roman,serif" font-size="14.00">id: ELClassification/comparator</text>
<text text-anchor="start" x="1165.52" y="-264.2" font-family="Times New Roman,serif" font-size="14.00">type: visionflow::opers::RegionsMatcher</text>
<text text-anchor="start" x="1165.52" y="-249.2" font-family="Times New Roman,serif" font-size="14.00">update: 1970&#45;01&#45;01 00:00:00.0000000</text>
<text text-anchor="start" x="1165.52" y="-234.2" font-family="Times New Roman,serif" font-size="14.00">docs: Operator to compare the predicted </text>
<text text-anchor="start" x="1165.52" y="-219.2" font-family="Times New Roman,serif" font-size="14.00">regions with the ground truth </text>
<text text-anchor="start" x="1165.52" y="-204.2" font-family="Times New Roman,serif" font-size="14.00">to get the category (in [TP, FP, </text>
<text text-anchor="start" x="1165.52" y="-189.2" font-family="Times New Roman,serif" font-size="14.00">TN, FN]) of each region.</text>
</g>
<!-- ELClassification/match_result -->
<g id="node13" class="node">
<title>ELClassification/match_result</title>
<polygon fill="lightblue" stroke="blue" points="1422.52,-122 1141.52,-122 1141.52,-39 1422.52,-39 1422.52,-122"/>
<text text-anchor="start" x="1149.52" y="-106.8" font-family="Times New Roman,serif" font-size="14.00">id: ELClassification/match_result</text>
<text text-anchor="start" x="1149.52" y="-91.8" font-family="Times New Roman,serif" font-size="14.00">type: visionflow::props::RegionMatchResultList</text>
<text text-anchor="start" x="1149.52" y="-76.8" font-family="Times New Roman,serif" font-size="14.00">update: 1970&#45;01&#45;01 00:00:00.0000000</text>
<text text-anchor="start" x="1149.52" y="-61.8" font-family="Times New Roman,serif" font-size="14.00">docs: A data structure to store list </text>
<text text-anchor="start" x="1149.52" y="-46.8" font-family="Times New Roman,serif" font-size="14.00">of RegionMatchResult.</text>
</g>
<!-- ELClassification/comparator&#45;&gt;ELClassification/match_result -->
<g id="edge5" class="edge">
<title>ELClassification/comparator&#45;&gt;ELClassification/match_result</title>
<path fill="none" stroke="black" d="M1282.02,-157.84C1282.02,-149.19 1282.02,-140.57 1282.02,-132.39"/>
<polygon fill="black" stroke="black" points="1285.52,-132.31 1282.02,-122.31 1278.52,-132.31 1285.52,-132.31"/>
</g>
<!-- ELClassification/infer -->
<g id="node2" class="node">
<title>ELClassification/infer</title>
<ellipse fill="lightblue" stroke="blue" cx="695.02" cy="-520.89" rx="188.18" ry="48.17"/>
<text text-anchor="start" x="570.02" y="-539.69" font-family="Times New Roman,serif" font-size="14.00">id: ELClassification/infer</text>
<text text-anchor="start" x="570.02" y="-524.69" font-family="Times New Roman,serif" font-size="14.00">type: visionflow::opers::ELClassificationInfer</text>
<text text-anchor="start" x="570.02" y="-509.69" font-family="Times New Roman,serif" font-size="14.00">update: 1970&#45;01&#45;01 00:00:00.0000000</text>
<text text-anchor="start" x="570.02" y="-494.69" font-family="Times New Roman,serif" font-size="14.00">docs: EL Classification inference engine.</text>
</g>
<!-- ELClassification/pred -->
<g id="node19" class="node">
<title>ELClassification/pred</title>
<polygon fill="none" stroke="blue" stroke-dasharray="5,2" points="870.02,-436.81 546.02,-436.81 546.02,-353.81 870.02,-353.81 870.02,-436.81"/>
<text text-anchor="start" x="554.02" y="-421.61" font-family="Times New Roman,serif" font-size="14.00">id: ELClassification/pred</text>
<text text-anchor="start" x="554.02" y="-406.61" font-family="Times New Roman,serif" font-size="14.00">type: visionflow::props::MultiNamesPolygonRegionList</text>
<text text-anchor="start" x="554.02" y="-391.61" font-family="Times New Roman,serif" font-size="14.00">update: 1970&#45;01&#45;01 00:00:00.0000000</text>
<text text-anchor="start" x="554.02" y="-376.61" font-family="Times New Roman,serif" font-size="14.00">docs: List structure to manage polygon </text>
<text text-anchor="start" x="554.02" y="-361.61" font-family="Times New Roman,serif" font-size="14.00">regions.</text>
</g>
<!-- ELClassification/infer&#45;&gt;ELClassification/pred -->
<g id="edge9" class="edge">
<title>ELClassification/infer&#45;&gt;ELClassification/pred</title>
<path fill="none" stroke="black" d="M699.97,-472.82C700.85,-464.47 701.77,-455.75 702.65,-447.31"/>
<polygon fill="black" stroke="black" points="706.15,-447.5 703.72,-437.19 699.19,-446.77 706.15,-447.5"/>
</g>
<!-- ELClassification/label_oper -->
<g id="node3" class="node">
<title>ELClassification/label_oper</title>
<ellipse fill="lightblue" stroke="blue" cx="936.02" cy="-1484.7" rx="187.27" ry="58.88"/>
<text text-anchor="start" x="811.52" y="-1511" font-family="Times New Roman,serif" font-size="14.00">id: ELClassification/label_oper</text>
<text text-anchor="start" x="811.52" y="-1496" font-family="Times New Roman,serif" font-size="14.00">type: visionflow::opers::ClassificationLabeler</text>
<text text-anchor="start" x="811.52" y="-1481" font-family="Times New Roman,serif" font-size="14.00">update: 1970&#45;01&#45;01 00:00:00.0000000</text>
<text text-anchor="start" x="811.52" y="-1466" font-family="Times New Roman,serif" font-size="14.00">docs: Annotate operator for Classification </text>
<text text-anchor="start" x="811.52" y="-1451" font-family="Times New Roman,serif" font-size="14.00">tool.</text>
</g>
<!-- ELClassification/mask -->
<g id="node12" class="node">
<title>ELClassification/mask</title>
<polygon fill="lightblue" stroke="blue" points="1068.52,-1390.01 811.52,-1390.01 811.52,-1307.01 1068.52,-1307.01 1068.52,-1390.01"/>
<text text-anchor="start" x="819.52" y="-1374.81" font-family="Times New Roman,serif" font-size="14.00">id: ELClassification/mask</text>
<text text-anchor="start" x="819.52" y="-1359.81" font-family="Times New Roman,serif" font-size="14.00">type: visionflow::props::PolygonRegionList</text>
<text text-anchor="start" x="819.52" y="-1344.81" font-family="Times New Roman,serif" font-size="14.00">update: 1970&#45;01&#45;01 00:00:00.0000000</text>
<text text-anchor="start" x="819.52" y="-1329.81" font-family="Times New Roman,serif" font-size="14.00">docs: List structure to manage polygon </text>
<text text-anchor="start" x="819.52" y="-1314.81" font-family="Times New Roman,serif" font-size="14.00">regions.</text>
</g>
<!-- ELClassification/label_oper&#45;&gt;ELClassification/mask -->
<g id="edge11" class="edge">
<title>ELClassification/label_oper&#45;&gt;ELClassification/mask</title>
<path fill="none" stroke="black" d="M937.75,-1425.62C938,-1417.26 938.26,-1408.7 938.5,-1400.48"/>
<polygon fill="black" stroke="black" points="942,-1400.4 938.8,-1390.3 935.01,-1400.19 942,-1400.4"/>
</g>
<!-- ELClassification/tagged_polygons -->
<g id="node14" class="node">
<title>ELClassification/tagged_polygons</title>
<polygon fill="lightblue" stroke="blue" points="703.52,-1382.51 398.52,-1382.51 398.52,-1314.51 703.52,-1314.51 703.52,-1382.51"/>
<text text-anchor="start" x="406.52" y="-1367.31" font-family="Times New Roman,serif" font-size="14.00">id: ELClassification/tagged_polygons</text>
<text text-anchor="start" x="406.52" y="-1352.31" font-family="Times New Roman,serif" font-size="14.00">type: visionflow::props::TaggedPolygonList</text>
<text text-anchor="start" x="406.52" y="-1337.31" font-family="Times New Roman,serif" font-size="14.00">update: 1970&#45;01&#45;01 00:00:00.0000000</text>
<text text-anchor="start" x="406.52" y="-1322.31" font-family="Times New Roman,serif" font-size="14.00">docs: Property TaggedPolygonList implementation.</text>
</g>
<!-- ELClassification/label_oper&#45;&gt;ELClassification/tagged_polygons -->
<g id="edge12" class="edge">
<title>ELClassification/label_oper&#45;&gt;ELClassification/tagged_polygons</title>
<path fill="none" stroke="black" d="M812.35,-1440.6C761.74,-1422.96 703.83,-1402.77 655.4,-1385.89"/>
<polygon fill="black" stroke="black" points="656.44,-1382.55 645.84,-1382.56 654.14,-1389.16 656.44,-1382.55"/>
</g>
<!-- ELClassification/truth -->
<g id="node16" class="node">
<title>ELClassification/truth</title>
<polygon fill="lightblue" stroke="blue" points="920.52,-990.35 663.52,-990.35 663.52,-907.35 920.52,-907.35 920.52,-990.35"/>
<text text-anchor="start" x="671.52" y="-975.15" font-family="Times New Roman,serif" font-size="14.00">id: ELClassification/truth</text>
<text text-anchor="start" x="671.52" y="-960.15" font-family="Times New Roman,serif" font-size="14.00">type: visionflow::props::PolygonRegionList</text>
<text text-anchor="start" x="671.52" y="-945.15" font-family="Times New Roman,serif" font-size="14.00">update: 1970&#45;01&#45;01 00:00:00.0000000</text>
<text text-anchor="start" x="671.52" y="-930.15" font-family="Times New Roman,serif" font-size="14.00">docs: List structure to manage polygon </text>
<text text-anchor="start" x="671.52" y="-915.15" font-family="Times New Roman,serif" font-size="14.00">regions.</text>
</g>
<!-- ELClassification/label_oper&#45;&gt;ELClassification/truth -->
<g id="edge13" class="edge">
<title>ELClassification/label_oper&#45;&gt;ELClassification/truth</title>
<path fill="none" stroke="black" d="M841.17,-1434C825.91,-1421.71 812.14,-1407.07 803.02,-1390.01 735.48,-1263.7 760.92,-1086.47 779.41,-1000.54"/>
<polygon fill="black" stroke="black" points="782.88,-1001.05 781.62,-990.53 776.05,-999.54 782.88,-1001.05"/>
</g>
<!-- ELClassification/view_tagger -->
<g id="node4" class="node">
<title>ELClassification/view_tagger</title>
<ellipse fill="lightblue" stroke="blue" cx="483.02" cy="-1148.68" rx="180.12" ry="122.16"/>
<text text-anchor="start" x="363.52" y="-1219.98" font-family="Times New Roman,serif" font-size="14.00">id: ELClassification/view_tagger</text>
<text text-anchor="start" x="363.52" y="-1204.98" font-family="Times New Roman,serif" font-size="14.00">type: visionflow::opers::ViewTagger</text>
<text text-anchor="start" x="363.52" y="-1189.98" font-family="Times New Roman,serif" font-size="14.00">update: 1970&#45;01&#45;01 00:00:00.0000000</text>
<text text-anchor="start" x="363.52" y="-1174.98" font-family="Times New Roman,serif" font-size="14.00">docs: Operator used to tag the views </text>
<text text-anchor="start" x="363.52" y="-1159.98" font-family="Times New Roman,serif" font-size="14.00">with some already tagged polygons </text>
<text text-anchor="start" x="363.52" y="-1144.98" font-family="Times New Roman,serif" font-size="14.00">automatically. The spilt_tag and </text>
<text text-anchor="start" x="363.52" y="-1129.98" font-family="Times New Roman,serif" font-size="14.00">tags of the most matched tagged_polygon </text>
<text text-anchor="start" x="363.52" y="-1114.98" font-family="Times New Roman,serif" font-size="14.00">selected using CIou will be set </text>
<text text-anchor="start" x="363.52" y="-1099.98" font-family="Times New Roman,serif" font-size="14.00">to the view, otherwise, the view </text>
<text text-anchor="start" x="363.52" y="-1084.98" font-family="Times New Roman,serif" font-size="14.00">will remain its original spilt_tag </text>
<text text-anchor="start" x="363.52" y="-1069.98" font-family="Times New Roman,serif" font-size="14.00">and tags info.</text>
</g>
<!-- ELClassification/tagged_views -->
<g id="node15" class="node">
<title>ELClassification/tagged_views</title>
<polygon fill="lightblue" stroke="blue" points="605.52,-982.85 360.52,-982.85 360.52,-914.85 605.52,-914.85 605.52,-982.85"/>
<text text-anchor="start" x="368.52" y="-967.65" font-family="Times New Roman,serif" font-size="14.00">id: ELClassification/tagged_views</text>
<text text-anchor="start" x="368.52" y="-952.65" font-family="Times New Roman,serif" font-size="14.00">type: visionflow::props::ViewList</text>
<text text-anchor="start" x="368.52" y="-937.65" font-family="Times New Roman,serif" font-size="14.00">update: 1970&#45;01&#45;01 00:00:00.0000000</text>
<text text-anchor="start" x="368.52" y="-922.65" font-family="Times New Roman,serif" font-size="14.00">docs: Property ViewList implementation.</text>
</g>
<!-- ELClassification/view_tagger&#45;&gt;ELClassification/tagged_views -->
<g id="edge35" class="edge">
<title>ELClassification/view_tagger&#45;&gt;ELClassification/tagged_views</title>
<path fill="none" stroke="black" d="M483.02,-1026.34C483.02,-1014.59 483.02,-1003.28 483.02,-993.13"/>
<polygon fill="black" stroke="black" points="486.52,-993 483.02,-983 479.52,-993 486.52,-993"/>
</g>
<!-- ELClassification/batch_size_conf -->
<g id="node5" class="node">
<title>ELClassification/batch_size_conf</title>
<ellipse fill="pink" stroke="red" cx="682.02" cy="-812.66" rx="200.64" ry="58.88"/>
<text text-anchor="start" x="548.02" y="-838.96" font-family="Times New Roman,serif" font-size="14.00">id: ELClassification/batch_size_conf</text>
<text text-anchor="start" x="548.02" y="-823.96" font-family="Times New Roman,serif" font-size="14.00">type: visionflow::confs::InferenceBatchSizeConf</text>
<text text-anchor="start" x="548.02" y="-808.96" font-family="Times New Roman,serif" font-size="14.00">update: 1970&#45;01&#45;01 00:00:00.0000000</text>
<text text-anchor="start" x="548.02" y="-793.96" font-family="Times New Roman,serif" font-size="14.00">docs: Configurator to set inference </text>
<text text-anchor="start" x="548.02" y="-778.96" font-family="Times New Roman,serif" font-size="14.00">batch size.</text>
</g>
<!-- ELClassification/batch_size -->
<g id="node20" class="node">
<title>ELClassification/batch_size</title>
<polygon fill="pink" stroke="red" points="818.52,-717.97 559.52,-717.97 559.52,-604.97 818.52,-604.97 818.52,-717.97"/>
<text text-anchor="start" x="567.52" y="-702.77" font-family="Times New Roman,serif" font-size="14.00">id: ELClassification/batch_size</text>
<text text-anchor="start" x="567.52" y="-687.77" font-family="Times New Roman,serif" font-size="14.00">type: visionflow::param::InferenceBatchSize</text>
<text text-anchor="start" x="567.52" y="-672.77" font-family="Times New Roman,serif" font-size="14.00">update: 1970&#45;01&#45;01 00:00:00.0000000</text>
<text text-anchor="start" x="567.52" y="-657.77" font-family="Times New Roman,serif" font-size="14.00">docs: Inference BatchSize and Inference </text>
<text text-anchor="start" x="567.52" y="-642.77" font-family="Times New Roman,serif" font-size="14.00">Mode. Currently only contains </text>
<text text-anchor="start" x="567.52" y="-627.77" font-family="Times New Roman,serif" font-size="14.00">batch size. It may need to be </text>
<text text-anchor="start" x="567.52" y="-612.77" font-family="Times New Roman,serif" font-size="14.00">refactored in the future.</text>
</g>
<!-- ELClassification/batch_size_conf&#45;&gt;ELClassification/batch_size -->
<g id="edge2" class="edge">
<title>ELClassification/batch_size_conf&#45;&gt;ELClassification/batch_size</title>
<path fill="none" stroke="black" d="M684.75,-753.55C685.13,-745.3 685.53,-736.75 685.93,-728.36"/>
<polygon fill="black" stroke="black" points="689.43,-728.37 686.4,-718.22 682.44,-728.05 689.43,-728.37"/>
</g>
<!-- ELClassification/label_classes.conf -->
<g id="node6" class="node">
<title>ELClassification/label_classes.conf</title>
<ellipse fill="pink" stroke="red" cx="1281.02" cy="-1757.08" rx="177.47" ry="58.88"/>
<text text-anchor="start" x="1163.52" y="-1783.38" font-family="Times New Roman,serif" font-size="14.00">id: ELClassification/label_classes.conf</text>
<text text-anchor="start" x="1163.52" y="-1768.38" font-family="Times New Roman,serif" font-size="14.00">type: visionflow::confs::LabelClassesConf</text>
<text text-anchor="start" x="1163.52" y="-1753.38" font-family="Times New Roman,serif" font-size="14.00">update: 1970&#45;01&#45;01 00:00:00.0000000</text>
<text text-anchor="start" x="1163.52" y="-1738.38" font-family="Times New Roman,serif" font-size="14.00">docs: Configurator class to generate </text>
<text text-anchor="start" x="1163.52" y="-1723.38" font-family="Times New Roman,serif" font-size="14.00">label classes parameter.</text>
</g>
<!-- ELClassification/classes -->
<g id="node27" class="node">
<title>ELClassification/classes</title>
<polygon fill="none" stroke="red" stroke-dasharray="5,2" points="1407.52,-1654.89 1154.52,-1654.89 1154.52,-1586.89 1407.52,-1586.89 1407.52,-1654.89"/>
<text text-anchor="start" x="1162.52" y="-1639.69" font-family="Times New Roman,serif" font-size="14.00">id: ELClassification/classes</text>
<text text-anchor="start" x="1162.52" y="-1624.69" font-family="Times New Roman,serif" font-size="14.00">type: visionflow::param::LabelClasses</text>
<text text-anchor="start" x="1162.52" y="-1609.69" font-family="Times New Roman,serif" font-size="14.00">update: 1970&#45;01&#45;01 00:00:00.0000000</text>
<text text-anchor="start" x="1162.52" y="-1594.69" font-family="Times New Roman,serif" font-size="14.00">docs: A container to manage label classes.</text>
</g>
<!-- ELClassification/label_classes.conf&#45;&gt;ELClassification/classes -->
<g id="edge10" class="edge">
<title>ELClassification/label_classes.conf&#45;&gt;ELClassification/classes</title>
<path fill="none" stroke="black" d="M1281.02,-1698C1281.02,-1686.95 1281.02,-1675.57 1281.02,-1665.09"/>
<polygon fill="black" stroke="black" points="1284.52,-1664.94 1281.02,-1654.94 1277.52,-1664.94 1284.52,-1664.94"/>
</g>
<!-- ELClassification/label_oper.conf -->
<g id="node7" class="node">
<title>ELClassification/label_oper.conf</title>
<ellipse fill="pink" stroke="red" cx="926.02" cy="-1757.08" rx="159.2" ry="58.88"/>
<text text-anchor="start" x="821.52" y="-1783.38" font-family="Times New Roman,serif" font-size="14.00">id: ELClassification/label_oper.conf</text>
<text text-anchor="start" x="821.52" y="-1768.38" font-family="Times New Roman,serif" font-size="14.00">type: visionflow::confs::CustomConf</text>
<text text-anchor="start" x="821.52" y="-1753.38" font-family="Times New Roman,serif" font-size="14.00">update: 1970&#45;01&#45;01 00:00:00.0000000</text>
<text text-anchor="start" x="821.52" y="-1738.38" font-family="Times New Roman,serif" font-size="14.00">docs: Configurator class to generate </text>
<text text-anchor="start" x="821.52" y="-1723.38" font-family="Times New Roman,serif" font-size="14.00">any user&#45;defined parameters</text>
</g>
<!-- ELClassification/label_oper.args -->
<g id="node21" class="node">
<title>ELClassification/label_oper.args</title>
<polygon fill="pink" stroke="red" points="1040.52,-1662.39 815.52,-1662.39 815.52,-1579.39 1040.52,-1579.39 1040.52,-1662.39"/>
<text text-anchor="start" x="823.52" y="-1647.19" font-family="Times New Roman,serif" font-size="14.00">id: ELClassification/label_oper.args</text>
<text text-anchor="start" x="823.52" y="-1632.19" font-family="Times New Roman,serif" font-size="14.00">type: visionflow::param::BinaryPacks</text>
<text text-anchor="start" x="823.52" y="-1617.19" font-family="Times New Roman,serif" font-size="14.00">update: 1970&#45;01&#45;01 00:00:00.0000000</text>
<text text-anchor="start" x="823.52" y="-1602.19" font-family="Times New Roman,serif" font-size="14.00">docs: A container to manage list of </text>
<text text-anchor="start" x="823.52" y="-1587.19" font-family="Times New Roman,serif" font-size="14.00">binary data.</text>
</g>
<!-- ELClassification/label_oper.conf&#45;&gt;ELClassification/label_oper.args -->
<g id="edge15" class="edge">
<title>ELClassification/label_oper.conf&#45;&gt;ELClassification/label_oper.args</title>
<path fill="none" stroke="black" d="M926.89,-1698C927.01,-1689.64 927.14,-1681.08 927.26,-1672.86"/>
<polygon fill="black" stroke="black" points="930.76,-1672.73 927.41,-1662.68 923.76,-1672.63 930.76,-1672.73"/>
</g>
<!-- ELClassification/model_health_evaluator -->
<g id="node8" class="node">
<title>ELClassification/model_health_evaluator</title>
<ellipse fill="pink" stroke="red" cx="831.02" cy="-237.9" rx="257.27" ry="58.88"/>
<text text-anchor="start" x="657.02" y="-264.2" font-family="Times New Roman,serif" font-size="14.00">id: ELClassification/model_health_evaluator</text>
<text text-anchor="start" x="657.02" y="-249.2" font-family="Times New Roman,serif" font-size="14.00">type: visionflow::confs::ELClassificationModelHealthEvaluator</text>
<text text-anchor="start" x="657.02" y="-234.2" font-family="Times New Roman,serif" font-size="14.00">update: 1970&#45;01&#45;01 00:00:00.0000000</text>
<text text-anchor="start" x="657.02" y="-219.2" font-family="Times New Roman,serif" font-size="14.00">docs: EL Classification Model Health </text>
<text text-anchor="start" x="657.02" y="-204.2" font-family="Times New Roman,serif" font-size="14.00">Evaluator.</text>
</g>
<!-- ELClassification/model_health -->
<g id="node23" class="node">
<title>ELClassification/model_health</title>
<polygon fill="pink" stroke="red" points="958.02,-114.5 704.02,-114.5 704.02,-46.5 958.02,-46.5 958.02,-114.5"/>
<text text-anchor="start" x="712.02" y="-99.3" font-family="Times New Roman,serif" font-size="14.00">id: ELClassification/model_health</text>
<text text-anchor="start" x="712.02" y="-84.3" font-family="Times New Roman,serif" font-size="14.00">type: visionflow::param::ModelHealth</text>
<text text-anchor="start" x="712.02" y="-69.3" font-family="Times New Roman,serif" font-size="14.00">update: 1970&#45;01&#45;01 00:00:00.0000000</text>
<text text-anchor="start" x="712.02" y="-54.3" font-family="Times New Roman,serif" font-size="14.00">docs: A container to manage model health.</text>
</g>
<!-- ELClassification/model_health_evaluator&#45;&gt;ELClassification/model_health -->
<g id="edge18" class="edge">
<title>ELClassification/model_health_evaluator&#45;&gt;ELClassification/model_health</title>
<path fill="none" stroke="black" d="M831.02,-179.04C831.02,-161.03 831.02,-141.5 831.02,-124.67"/>
<polygon fill="black" stroke="black" points="834.52,-124.59 831.02,-114.59 827.52,-124.59 834.52,-124.59"/>
</g>
<!-- ELClassification/statistician -->
<g id="node9" class="node">
<title>ELClassification/statistician</title>
<ellipse fill="pink" stroke="red" cx="288.02" cy="-237.9" rx="267.99" ry="58.88"/>
<text text-anchor="start" x="106.52" y="-264.2" font-family="Times New Roman,serif" font-size="14.00">id: ELClassification/statistician</text>
<text text-anchor="start" x="106.52" y="-249.2" font-family="Times New Roman,serif" font-size="14.00">type: visionflow::confs::ClassificationRegionMatchResultCounter</text>
<text text-anchor="start" x="106.52" y="-234.2" font-family="Times New Roman,serif" font-size="14.00">update: 1970&#45;01&#45;01 00:00:00.0000000</text>
<text text-anchor="start" x="106.52" y="-219.2" font-family="Times New Roman,serif" font-size="14.00">docs: Configurator to count classification </text>
<text text-anchor="start" x="106.52" y="-204.2" font-family="Times New Roman,serif" font-size="14.00">region match results.</text>
</g>
<!-- ELClassification/statistics -->
<g id="node24" class="node">
<title>ELClassification/statistics</title>
<polygon fill="pink" stroke="red" points="431.52,-114.5 144.52,-114.5 144.52,-46.5 431.52,-46.5 431.52,-114.5"/>
<text text-anchor="start" x="152.52" y="-99.3" font-family="Times New Roman,serif" font-size="14.00">id: ELClassification/statistics</text>
<text text-anchor="start" x="152.52" y="-84.3" font-family="Times New Roman,serif" font-size="14.00">type: visionflow::param::ModelEvaluationMetrics</text>
<text text-anchor="start" x="152.52" y="-69.3" font-family="Times New Roman,serif" font-size="14.00">update: 1970&#45;01&#45;01 00:00:00.0000000</text>
<text text-anchor="start" x="152.52" y="-54.3" font-family="Times New Roman,serif" font-size="14.00">docs: A container to manage table.</text>
</g>
<!-- ELClassification/statistician&#45;&gt;ELClassification/statistics -->
<g id="edge22" class="edge">
<title>ELClassification/statistician&#45;&gt;ELClassification/statistics</title>
<path fill="none" stroke="black" d="M288.02,-179.04C288.02,-161.03 288.02,-141.5 288.02,-124.67"/>
<polygon fill="black" stroke="black" points="291.52,-124.59 288.02,-114.59 284.52,-124.59 291.52,-124.59"/>
</g>
<!-- ELClassification/trainer -->
<g id="node10" class="node">
<title>ELClassification/trainer</title>
<ellipse fill="pink" stroke="red" cx="1255.02" cy="-812.66" rx="197.98" ry="48.17"/>
<text text-anchor="start" x="1123.02" y="-831.46" font-family="Times New Roman,serif" font-size="14.00">id: ELClassification/trainer</text>
<text text-anchor="start" x="1123.02" y="-816.46" font-family="Times New Roman,serif" font-size="14.00">type: visionflow::confs::ELClassificationTrainer</text>
<text text-anchor="start" x="1123.02" y="-801.46" font-family="Times New Roman,serif" font-size="14.00">update: 1970&#45;01&#45;01 00:00:00.0000000</text>
<text text-anchor="start" x="1123.02" y="-786.46" font-family="Times New Roman,serif" font-size="14.00">docs: EL Classification model trainer.</text>
</g>
<!-- ELClassification/model -->
<g id="node22" class="node">
<title>ELClassification/model</title>
<polygon fill="pink" stroke="red" points="1146.52,-702.97 921.52,-702.97 921.52,-619.97 1146.52,-619.97 1146.52,-702.97"/>
<text text-anchor="start" x="929.52" y="-687.77" font-family="Times New Roman,serif" font-size="14.00">id: ELClassification/model</text>
<text text-anchor="start" x="929.52" y="-672.77" font-family="Times New Roman,serif" font-size="14.00">type: visionflow::param::BinaryPacks</text>
<text text-anchor="start" x="929.52" y="-657.77" font-family="Times New Roman,serif" font-size="14.00">update: 1970&#45;01&#45;01 00:00:00.0000000</text>
<text text-anchor="start" x="929.52" y="-642.77" font-family="Times New Roman,serif" font-size="14.00">docs: A container to manage list of </text>
<text text-anchor="start" x="929.52" y="-627.77" font-family="Times New Roman,serif" font-size="14.00">binary data.</text>
</g>
<!-- ELClassification/trainer&#45;&gt;ELClassification/model -->
<g id="edge28" class="edge">
<title>ELClassification/trainer&#45;&gt;ELClassification/model</title>
<path fill="none" stroke="black" d="M1189.01,-767.1C1161.69,-748.66 1130.02,-727.28 1102.45,-708.67"/>
<polygon fill="black" stroke="black" points="1104.29,-705.68 1094.04,-702.99 1100.37,-711.49 1104.29,-705.68"/>
</g>
<!-- ELClassification/training_log -->
<g id="node26" class="node">
<title>ELClassification/training_log</title>
<polygon fill="pink" stroke="red" points="1410.52,-687.97 1185.52,-687.97 1185.52,-634.97 1410.52,-634.97 1410.52,-687.97"/>
<text text-anchor="start" x="1193.52" y="-672.77" font-family="Times New Roman,serif" font-size="14.00">id: ELClassification/training_log</text>
<text text-anchor="start" x="1193.52" y="-657.77" font-family="Times New Roman,serif" font-size="14.00">type: visionflow::param::TrainingLog</text>
<text text-anchor="start" x="1193.52" y="-642.77" font-family="Times New Roman,serif" font-size="14.00">update: 1970&#45;01&#45;01 00:00:00.0000000</text>
</g>
<!-- ELClassification/trainer&#45;&gt;ELClassification/training_log -->
<g id="edge29" class="edge">
<title>ELClassification/trainer&#45;&gt;ELClassification/training_log</title>
<path fill="none" stroke="black" d="M1268.63,-764.46C1274.86,-742.84 1282.11,-717.66 1287.86,-697.73"/>
<polygon fill="black" stroke="black" points="1291.22,-698.7 1290.63,-688.12 1284.5,-696.76 1291.22,-698.7"/>
</g>
<!-- ELClassification/trainer.conf -->
<g id="node11" class="node">
<title>ELClassification/trainer.conf</title>
<ellipse fill="pink" stroke="red" cx="1177.02" cy="-1148.68" rx="217.58" ry="58.88"/>
<text text-anchor="start" x="1031.02" y="-1174.98" font-family="Times New Roman,serif" font-size="14.00">id: ELClassification/trainer.conf</text>
<text text-anchor="start" x="1031.02" y="-1159.98" font-family="Times New Roman,serif" font-size="14.00">type: visionflow::confs::ELClassificationTrainerConf</text>
<text text-anchor="start" x="1031.02" y="-1144.98" font-family="Times New Roman,serif" font-size="14.00">update: 1970&#45;01&#45;01 00:00:00.0000000</text>
<text text-anchor="start" x="1031.02" y="-1129.98" font-family="Times New Roman,serif" font-size="14.00">docs: Configurator to set EL classification </text>
<text text-anchor="start" x="1031.02" y="-1114.98" font-family="Times New Roman,serif" font-size="14.00">trainer options.</text>
</g>
<!-- ELClassification/trainer.args -->
<g id="node25" class="node">
<title>ELClassification/trainer.args</title>
<polygon fill="pink" stroke="red" points="1374.02,-975.35 1024.02,-975.35 1024.02,-922.35 1374.02,-922.35 1374.02,-975.35"/>
<text text-anchor="start" x="1032.02" y="-960.15" font-family="Times New Roman,serif" font-size="14.00">id: ELClassification/trainer.args</text>
<text text-anchor="start" x="1032.02" y="-945.15" font-family="Times New Roman,serif" font-size="14.00">type: visionflow::param::ELClassificationTrainingParameters</text>
<text text-anchor="start" x="1032.02" y="-930.15" font-family="Times New Roman,serif" font-size="14.00">update: 1970&#45;01&#45;01 00:00:00.0000000</text>
</g>
<!-- ELClassification/trainer.conf&#45;&gt;ELClassification/trainer.args -->
<g id="edge31" class="edge">
<title>ELClassification/trainer.conf&#45;&gt;ELClassification/trainer.args</title>
<path fill="none" stroke="black" d="M1183.44,-1089.93C1187.19,-1056.21 1191.81,-1014.72 1195.04,-985.68"/>
<polygon fill="black" stroke="black" points="1198.53,-985.9 1196.16,-975.58 1191.58,-985.13 1198.53,-985.9"/>
</g>
<!-- ELClassification/mask&#45;&gt;ELClassification/trainer -->
<g id="edge16" class="edge">
<title>ELClassification/mask&#45;&gt;ELClassification/trainer</title>
<path fill="none" stroke="black" d="M932.29,-1306.92C918.12,-1218.7 899.2,-1009.25 1015.02,-907.35 1042.26,-883.38 1076.34,-865.2 1110.19,-851.54"/>
<polygon fill="black" stroke="black" points="1111.68,-854.71 1119.72,-847.8 1109.13,-848.19 1111.68,-854.71"/>
</g>
<!-- ELClassification/tagged_polygons&#45;&gt;ELClassification/view_tagger -->
<g id="edge23" class="edge">
<title>ELClassification/tagged_polygons&#45;&gt;ELClassification/view_tagger</title>
<path fill="none" stroke="black" d="M539.64,-1314.4C535.99,-1303.78 531.7,-1291.3 527.15,-1278.05"/>
<polygon fill="black" stroke="black" points="530.35,-1276.6 523.79,-1268.28 523.73,-1278.88 530.35,-1276.6"/>
</g>
<!-- ELClassification/tagged_views&#45;&gt;ELClassification/comparator -->
<g id="edge24" class="edge">
<title>ELClassification/tagged_views&#45;&gt;ELClassification/comparator</title>
<path fill="none" stroke="black" d="M605.84,-917.66C622.33,-913.98 639.06,-910.44 655.02,-907.35 707.32,-897.24 856.34,-910.91 892.02,-871.35 907.58,-854.1 902.02,-685.71 902.02,-662.47 902.02,-662.47 902.02,-662.47 902.02,-519.89 902.02,-455.23 1046.05,-363.69 1156.77,-302.87"/>
<polygon fill="black" stroke="black" points="1158.59,-305.86 1165.68,-297.99 1155.23,-299.72 1158.59,-305.86"/>
</g>
<!-- ELClassification/tagged_views&#45;&gt;ELClassification/model_health_evaluator -->
<g id="edge25" class="edge">
<title>ELClassification/tagged_views&#45;&gt;ELClassification/model_health_evaluator</title>
<path fill="none" stroke="black" d="M469.06,-914.57C464.23,-901.36 459.42,-885.88 457.02,-871.35 448.51,-819.88 453.25,-806 457.02,-753.97 470.14,-573.08 412.4,-485.59 537.02,-353.81 565.87,-323.3 603.77,-300.77 642.74,-284.16"/>
<polygon fill="black" stroke="black" points="644.22,-287.33 652.13,-280.28 641.55,-280.86 644.22,-287.33"/>
</g>
<!-- ELClassification/tagged_views&#45;&gt;ELClassification/statistician -->
<g id="edge26" class="edge">
<title>ELClassification/tagged_views&#45;&gt;ELClassification/statistician</title>
<path fill="none" stroke="black" d="M456.19,-914.55C417.87,-863.51 352.02,-761.42 352.02,-662.47 352.02,-662.47 352.02,-662.47 352.02,-519.89 352.02,-445.43 330.39,-362.59 312.28,-306.27"/>
<polygon fill="black" stroke="black" points="315.5,-304.84 309.06,-296.42 308.84,-307.01 315.5,-304.84"/>
</g>
<!-- ELClassification/tagged_views&#45;&gt;ELClassification/trainer -->
<g id="edge27" class="edge">
<title>ELClassification/tagged_views&#45;&gt;ELClassification/trainer</title>
<path fill="none" stroke="black" d="M605.82,-917.53C622.31,-913.87 639.04,-910.37 655.02,-907.35 766.19,-886.37 795.21,-888.6 907.02,-871.35 964.97,-862.41 1028.26,-852.09 1084.78,-842.67"/>
<polygon fill="black" stroke="black" points="1085.6,-846.08 1094.88,-840.98 1084.44,-839.17 1085.6,-846.08"/>
</g>
<!-- ELClassification/truth&#45;&gt;ELClassification/comparator -->
<g id="edge32" class="edge">
<title>ELClassification/truth&#45;&gt;ELClassification/comparator</title>
<path fill="none" stroke="black" d="M855.83,-907.16C872.73,-895.91 890.78,-883.46 907.02,-871.35 972.39,-822.62 976.78,-793.64 1048.02,-753.97 1092.23,-729.36 1122.79,-756.13 1156.02,-717.97 1189.56,-679.45 1165.3,-654.69 1177.02,-604.97 1199.64,-509.05 1231.51,-400.73 1254.2,-326.96"/>
<polygon fill="black" stroke="black" points="1257.59,-327.83 1257.2,-317.24 1250.91,-325.76 1257.59,-327.83"/>
</g>
<!-- ELClassification/truth&#45;&gt;ELClassification/statistician -->
<g id="edge33" class="edge">
<title>ELClassification/truth&#45;&gt;ELClassification/statistician</title>
<path fill="none" stroke="black" d="M663.31,-917.94C575.12,-897.31 473.74,-873.27 472.02,-871.35 454.45,-851.79 462.39,-779.71 457.02,-753.97 419.16,-572.58 404.38,-527.57 340.02,-353.81 334.19,-338.08 327.2,-321.47 320.26,-305.93"/>
<polygon fill="black" stroke="black" points="323.26,-304.07 315.95,-296.4 316.88,-306.95 323.26,-304.07"/>
</g>
<!-- ELClassification/truth&#45;&gt;ELClassification/trainer -->
<g id="edge34" class="edge">
<title>ELClassification/truth&#45;&gt;ELClassification/trainer</title>
<path fill="none" stroke="black" d="M920.68,-910.56C982.66,-892.6 1056.98,-871.06 1119.8,-852.85"/>
<polygon fill="black" stroke="black" points="1121.15,-856.11 1129.78,-849.96 1119.2,-849.38 1121.15,-856.11"/>
</g>
<!-- ELClassification/image -->
<g id="node17" class="node">
<title>ELClassification/image</title>
<ellipse fill="lightblue" stroke="blue" cx="1476.02" cy="-1620.89" rx="1.8" ry="1.8"/>
</g>
<!-- ELClassification/image&#45;&gt;ELClassification/infer -->
<g id="edge6" class="edge">
<title>ELClassification/image&#45;&gt;ELClassification/infer</title>
<path fill="none" stroke="black" d="M1476.05,-1618.92C1476.48,-1605.88 1481.02,-1464.07 1481.02,-1349.51 1481.02,-1349.51 1481.02,-1349.51 1481.02,-811.66 1481.02,-715.88 1493.34,-666.6 1420.02,-604.97 1379.9,-571.25 1088.79,-546.42 887.89,-533.06"/>
<polygon fill="black" stroke="black" points="888,-529.56 877.79,-532.4 887.54,-536.55 888,-529.56"/>
</g>
<!-- ELClassification/image&#45;&gt;ELClassification/label_oper -->
<g id="edge7" class="edge">
<title>ELClassification/image&#45;&gt;ELClassification/label_oper</title>
<path fill="none" stroke="black" d="M1476.28,-1618.69C1477.39,-1613.25 1481.13,-1590.8 1470.02,-1579.39 1423.3,-1531.41 1263.54,-1507.83 1130.83,-1496.34"/>
<polygon fill="black" stroke="black" points="1130.78,-1492.82 1120.52,-1495.46 1130.19,-1499.79 1130.78,-1492.82"/>
</g>
<!-- ELClassification/image&#45;&gt;ELClassification/trainer -->
<g id="edge8" class="edge">
<title>ELClassification/image&#45;&gt;ELClassification/trainer</title>
<path fill="none" stroke="black" d="M1475.87,-1618.82C1473.49,-1601.45 1443.02,-1378.59 1443.02,-1349.51 1443.02,-1349.51 1443.02,-1349.51 1443.02,-1147.68 1443.02,-1039.47 1463.79,-997.56 1404.02,-907.35 1391.87,-889.02 1374.78,-873.59 1356.48,-860.88"/>
<polygon fill="black" stroke="black" points="1358.26,-857.86 1348,-855.23 1354.38,-863.68 1358.26,-857.86"/>
</g>
<!-- ELClassification/views -->
<g id="node18" class="node">
<title>ELClassification/views</title>
<ellipse fill="lightblue" stroke="blue" cx="2.02" cy="-1348.51" rx="1.8" ry="1.8"/>
</g>
<!-- ELClassification/views&#45;&gt;ELClassification/infer -->
<g id="edge36" class="edge">
<title>ELClassification/views&#45;&gt;ELClassification/infer</title>
<path fill="none" stroke="black" d="M2.05,-1346.48C2.19,-1341.8 3.09,-1322.15 8.02,-1307.01 63.48,-1136.63 195.02,-1129.03 195.02,-949.85 195.02,-949.85 195.02,-949.85 195.02,-811.66 195.02,-655.35 380.2,-581.97 525.17,-548.48"/>
<polygon fill="black" stroke="black" points="526.12,-551.85 535.1,-546.23 524.57,-545.03 526.12,-551.85"/>
</g>
<!-- ELClassification/views&#45;&gt;ELClassification/view_tagger -->
<g id="edge37" class="edge">
<title>ELClassification/views&#45;&gt;ELClassification/view_tagger</title>
<path fill="none" stroke="black" d="M1.76,-1346.31C0.65,-1340.88 -3.07,-1318.44 8.02,-1307.01 71.22,-1241.88 122.24,-1297.57 209.02,-1271.01 248.74,-1258.85 290.34,-1242.47 328.78,-1225.69"/>
<polygon fill="black" stroke="black" points="330.22,-1228.88 337.96,-1221.65 327.4,-1222.48 330.22,-1228.88"/>
</g>
<!-- ELClassification/pred&#45;&gt;ELClassification/comparator -->
<g id="edge19" class="edge">
<title>ELClassification/pred&#45;&gt;ELClassification/comparator</title>
<path fill="none" stroke="black" d="M870.07,-359.22C879.18,-357.36 888.21,-355.54 897.02,-353.81 985.63,-336.34 1010.49,-343.69 1097.02,-317.81 1114.45,-312.59 1132.45,-306.23 1150.06,-299.41"/>
<polygon fill="black" stroke="black" points="1151.78,-302.5 1159.8,-295.58 1149.21,-295.98 1151.78,-302.5"/>
</g>
<!-- ELClassification/pred&#45;&gt;ELClassification/model_health_evaluator -->
<g id="edge20" class="edge">
<title>ELClassification/pred&#45;&gt;ELClassification/model_health_evaluator</title>
<path fill="none" stroke="black" d="M740.34,-353.48C752.33,-338.33 766.24,-320.75 779.52,-303.97"/>
<polygon fill="black" stroke="black" points="782.51,-305.83 785.97,-295.82 777.02,-301.49 782.51,-305.83"/>
</g>
<!-- ELClassification/pred&#45;&gt;ELClassification/statistician -->
<g id="edge21" class="edge">
<title>ELClassification/pred&#45;&gt;ELClassification/statistician</title>
<path fill="none" stroke="black" d="M598.49,-353.78C547.72,-334.99 486.68,-312.41 432.22,-292.26"/>
<polygon fill="black" stroke="black" points="433.43,-288.97 422.84,-288.79 431,-295.54 433.43,-288.97"/>
</g>
<!-- ELClassification/batch_size&#45;&gt;ELClassification/infer -->
<g id="edge1" class="edge">
<title>ELClassification/batch_size&#45;&gt;ELClassification/infer</title>
<path fill="none" stroke="black" d="M691.43,-604.9C691.79,-596.45 692.17,-587.7 692.54,-579.21"/>
<polygon fill="black" stroke="black" points="696.04,-579.15 692.98,-569 689.05,-578.84 696.04,-579.15"/>
</g>
<!-- ELClassification/label_oper.args&#45;&gt;ELClassification/label_oper -->
<g id="edge14" class="edge">
<title>ELClassification/label_oper.args&#45;&gt;ELClassification/label_oper</title>
<path fill="none" stroke="black" d="M930.44,-1579.27C930.92,-1571.17 931.44,-1562.46 931.96,-1553.74"/>
<polygon fill="black" stroke="black" points="935.47,-1553.71 932.57,-1543.51 928.48,-1553.29 935.47,-1553.71"/>
</g>
<!-- ELClassification/model&#45;&gt;ELClassification/infer -->
<g id="edge17" class="edge">
<title>ELClassification/model&#45;&gt;ELClassification/infer</title>
<path fill="none" stroke="black" d="M934.6,-619.83C893.19,-602.9 845,-583.2 802.75,-565.93"/>
<polygon fill="black" stroke="black" points="803.85,-562.6 793.27,-562.05 801.2,-569.08 803.85,-562.6"/>
</g>
<!-- ELClassification/trainer.args&#45;&gt;ELClassification/trainer -->
<g id="edge30" class="edge">
<title>ELClassification/trainer.args&#45;&gt;ELClassification/trainer</title>
<path fill="none" stroke="black" d="M1209.69,-922.3C1215.87,-907.47 1223.92,-888.18 1231.52,-869.97"/>
<polygon fill="black" stroke="black" points="1234.82,-871.16 1235.44,-860.58 1228.36,-868.46 1234.82,-871.16"/>
</g>
<!-- ELClassification/classes&#45;&gt;ELClassification/label_oper -->
<g id="edge3" class="edge">
<title>ELClassification/classes&#45;&gt;ELClassification/label_oper</title>
<path fill="none" stroke="black" d="M1195.74,-1586.72C1155.31,-1571 1106.22,-1551.9 1061.64,-1534.56"/>
<polygon fill="black" stroke="black" points="1062.79,-1531.25 1052.2,-1530.89 1060.25,-1537.78 1062.79,-1531.25"/>
</g>
<!-- ELClassification/classes&#45;&gt;ELClassification/trainer -->
<g id="edge4" class="edge">
<title>ELClassification/classes&#45;&gt;ELClassification/trainer</title>
<path fill="none" stroke="black" d="M1309.88,-1586.64C1349,-1538.03 1414.02,-1443.15 1414.02,-1349.51 1414.02,-1349.51 1414.02,-1349.51 1414.02,-1147.68 1414.02,-1039.98 1439.94,-998.78 1383.02,-907.35 1372.55,-890.53 1357.85,-875.76 1342.13,-863.22"/>
<polygon fill="black" stroke="black" points="1343.9,-860.17 1333.83,-856.87 1339.64,-865.73 1343.9,-860.17"/>
</g>
</g>
</svg>
