<?xml version="1.0" encoding="UTF-8" standalone="no"?>
<!DOCTYPE svg PUBLIC "-//W3C//DTD SVG 1.1//EN"
 "http://www.w3.org/Graphics/SVG/1.1/DTD/svg11.dtd">
<!-- Generated by graphviz version 6.0.1 (20220911.1526)
 -->
<!-- Title: OnlyTool: ELUnsuperClassification Pages: 1 -->
<svg width="1484pt" height="1554pt"
 viewBox="0.00 0.00 1484.00 1554.18" xmlns="http://www.w3.org/2000/svg" xmlns:xlink="http://www.w3.org/1999/xlink">
<g id="graph0" class="graph" transform="scale(1 1) rotate(0) translate(4 1550.18)">
<title>OnlyTool: ELUnsuperClassification</title>
<polygon fill="white" stroke="none" points="-4,4 -4,-1550.18 1480,-1550.18 1480,4 -4,4"/>
<text text-anchor="middle" x="738" y="-7.8" font-family="Times New Roman,serif" font-size="14.00">OnlyTool: ELUnsuperClassification</text>
<g id="clust1" class="cluster">
<title>cluster_ELUnsuperClassification</title>
<polygon fill="none" stroke="black" points="20,-31 20,-1538.18 1456,-1538.18 1456,-31 20,-31"/>
<text text-anchor="middle" x="738" y="-1522.98" font-family="Times New Roman,serif" font-size="14.00">ELUnsuperClassification</text>
</g>
<!-- ELUnsuperClassification/infer -->
<g id="node1" class="node">
<title>ELUnsuperClassification/infer</title>
<ellipse fill="lightblue" stroke="blue" cx="555" cy="-216.69" rx="222.06" ry="58.88"/>
<text text-anchor="start" x="406" y="-242.99" font-family="Times New Roman,serif" font-size="14.00">id: ELUnsuperClassification/infer</text>
<text text-anchor="start" x="406" y="-227.99" font-family="Times New Roman,serif" font-size="14.00">type: visionflow::opers::ELUnsuperClassificationInfer</text>
<text text-anchor="start" x="406" y="-212.99" font-family="Times New Roman,serif" font-size="14.00">update: 1970&#45;01&#45;01 00:00:00.0000000</text>
<text text-anchor="start" x="406" y="-197.99" font-family="Times New Roman,serif" font-size="14.00">docs: EL Unsuper Classification inference </text>
<text text-anchor="start" x="406" y="-182.99" font-family="Times New Roman,serif" font-size="14.00">engine.</text>
</g>
<!-- ELUnsuperClassification/pred -->
<g id="node15" class="node">
<title>ELUnsuperClassification/pred</title>
<polygon fill="none" stroke="blue" stroke-dasharray="5,2" points="683.5,-122 426.5,-122 426.5,-39 683.5,-39 683.5,-122"/>
<text text-anchor="start" x="434.5" y="-106.8" font-family="Times New Roman,serif" font-size="14.00">id: ELUnsuperClassification/pred</text>
<text text-anchor="start" x="434.5" y="-91.8" font-family="Times New Roman,serif" font-size="14.00">type: visionflow::props::PolygonRegionList</text>
<text text-anchor="start" x="434.5" y="-76.8" font-family="Times New Roman,serif" font-size="14.00">update: 1970&#45;01&#45;01 00:00:00.0000000</text>
<text text-anchor="start" x="434.5" y="-61.8" font-family="Times New Roman,serif" font-size="14.00">docs: List structure to manage polygon </text>
<text text-anchor="start" x="434.5" y="-46.8" font-family="Times New Roman,serif" font-size="14.00">regions.</text>
</g>
<!-- ELUnsuperClassification/infer&#45;&gt;ELUnsuperClassification/pred -->
<g id="edge6" class="edge">
<title>ELUnsuperClassification/infer&#45;&gt;ELUnsuperClassification/pred</title>
<path fill="none" stroke="black" d="M555,-157.61C555,-149.25 555,-140.69 555,-132.47"/>
<polygon fill="black" stroke="black" points="558.5,-132.29 555,-122.29 551.5,-132.29 558.5,-132.29"/>
</g>
<!-- ELUnsuperClassification/label_oper -->
<g id="node2" class="node">
<title>ELUnsuperClassification/label_oper</title>
<ellipse fill="lightblue" stroke="blue" cx="1081" cy="-1176.11" rx="220.73" ry="58.88"/>
<text text-anchor="start" x="933" y="-1202.41" font-family="Times New Roman,serif" font-size="14.00">id: ELUnsuperClassification/label_oper</text>
<text text-anchor="start" x="933" y="-1187.41" font-family="Times New Roman,serif" font-size="14.00">type: visionflow::opers::UnsuperClassificationLabeler</text>
<text text-anchor="start" x="933" y="-1172.41" font-family="Times New Roman,serif" font-size="14.00">update: 1970&#45;01&#45;01 00:00:00.0000000</text>
<text text-anchor="start" x="933" y="-1157.41" font-family="Times New Roman,serif" font-size="14.00">docs: Annotate operator for unsuper </text>
<text text-anchor="start" x="933" y="-1142.41" font-family="Times New Roman,serif" font-size="14.00">classification tool.</text>
</g>
<!-- ELUnsuperClassification/mask -->
<g id="node9" class="node">
<title>ELUnsuperClassification/mask</title>
<polygon fill="lightblue" stroke="blue" points="1385.5,-1081.42 1128.5,-1081.42 1128.5,-998.42 1385.5,-998.42 1385.5,-1081.42"/>
<text text-anchor="start" x="1136.5" y="-1066.22" font-family="Times New Roman,serif" font-size="14.00">id: ELUnsuperClassification/mask</text>
<text text-anchor="start" x="1136.5" y="-1051.22" font-family="Times New Roman,serif" font-size="14.00">type: visionflow::props::PolygonRegionList</text>
<text text-anchor="start" x="1136.5" y="-1036.22" font-family="Times New Roman,serif" font-size="14.00">update: 1970&#45;01&#45;01 00:00:00.0000000</text>
<text text-anchor="start" x="1136.5" y="-1021.22" font-family="Times New Roman,serif" font-size="14.00">docs: List structure to manage polygon </text>
<text text-anchor="start" x="1136.5" y="-1006.22" font-family="Times New Roman,serif" font-size="14.00">regions.</text>
</g>
<!-- ELUnsuperClassification/label_oper&#45;&gt;ELUnsuperClassification/mask -->
<g id="edge9" class="edge">
<title>ELUnsuperClassification/label_oper&#45;&gt;ELUnsuperClassification/mask</title>
<path fill="none" stroke="black" d="M1152.59,-1120.53C1166.91,-1109.61 1181.83,-1098.23 1195.76,-1087.61"/>
<polygon fill="black" stroke="black" points="1198.01,-1090.3 1203.84,-1081.45 1193.76,-1084.73 1198.01,-1090.3"/>
</g>
<!-- ELUnsuperClassification/tagged_polygons -->
<g id="node10" class="node">
<title>ELUnsuperClassification/tagged_polygons</title>
<polygon fill="lightblue" stroke="blue" points="1110.5,-1073.92 805.5,-1073.92 805.5,-1005.92 1110.5,-1005.92 1110.5,-1073.92"/>
<text text-anchor="start" x="813.5" y="-1058.72" font-family="Times New Roman,serif" font-size="14.00">id: ELUnsuperClassification/tagged_polygons</text>
<text text-anchor="start" x="813.5" y="-1043.72" font-family="Times New Roman,serif" font-size="14.00">type: visionflow::props::TaggedPolygonList</text>
<text text-anchor="start" x="813.5" y="-1028.72" font-family="Times New Roman,serif" font-size="14.00">update: 1970&#45;01&#45;01 00:00:00.0000000</text>
<text text-anchor="start" x="813.5" y="-1013.72" font-family="Times New Roman,serif" font-size="14.00">docs: Property TaggedPolygonList implementation.</text>
</g>
<!-- ELUnsuperClassification/label_oper&#45;&gt;ELUnsuperClassification/tagged_polygons -->
<g id="edge10" class="edge">
<title>ELUnsuperClassification/label_oper&#45;&gt;ELUnsuperClassification/tagged_polygons</title>
<path fill="none" stroke="black" d="M1029.55,-1118.98C1018.1,-1106.49 1006.18,-1093.48 995.42,-1081.74"/>
<polygon fill="black" stroke="black" points="997.87,-1079.24 988.53,-1074.23 992.71,-1083.97 997.87,-1079.24"/>
</g>
<!-- ELUnsuperClassification/truth -->
<g id="node12" class="node">
<title>ELUnsuperClassification/truth</title>
<polygon fill="lightblue" stroke="blue" points="323.5,-881.59 66.5,-881.59 66.5,-798.59 323.5,-798.59 323.5,-881.59"/>
<text text-anchor="start" x="74.5" y="-866.39" font-family="Times New Roman,serif" font-size="14.00">id: ELUnsuperClassification/truth</text>
<text text-anchor="start" x="74.5" y="-851.39" font-family="Times New Roman,serif" font-size="14.00">type: visionflow::props::PolygonRegionList</text>
<text text-anchor="start" x="74.5" y="-836.39" font-family="Times New Roman,serif" font-size="14.00">update: 1970&#45;01&#45;01 00:00:00.0000000</text>
<text text-anchor="start" x="74.5" y="-821.39" font-family="Times New Roman,serif" font-size="14.00">docs: List structure to manage polygon </text>
<text text-anchor="start" x="74.5" y="-806.39" font-family="Times New Roman,serif" font-size="14.00">regions.</text>
</g>
<!-- ELUnsuperClassification/label_oper&#45;&gt;ELUnsuperClassification/truth -->
<g id="edge11" class="edge">
<title>ELUnsuperClassification/label_oper&#45;&gt;ELUnsuperClassification/truth</title>
<path fill="none" stroke="black" d="M892.01,-1145.68C734.94,-1115.68 509.28,-1059.44 332,-962.42 297.25,-943.4 263.85,-914.12 238.73,-889.09"/>
<polygon fill="black" stroke="black" points="241.06,-886.47 231.54,-881.82 236.08,-891.39 241.06,-886.47"/>
</g>
<!-- ELUnsuperClassification/view_tagger -->
<g id="node3" class="node">
<title>ELUnsuperClassification/view_tagger</title>
<ellipse fill="lightblue" stroke="blue" cx="1043" cy="-840.09" rx="180.12" ry="122.16"/>
<text text-anchor="start" x="923.5" y="-911.39" font-family="Times New Roman,serif" font-size="14.00">id: ELUnsuperClassification/view_tagger</text>
<text text-anchor="start" x="923.5" y="-896.39" font-family="Times New Roman,serif" font-size="14.00">type: visionflow::opers::ViewTagger</text>
<text text-anchor="start" x="923.5" y="-881.39" font-family="Times New Roman,serif" font-size="14.00">update: 1970&#45;01&#45;01 00:00:00.0000000</text>
<text text-anchor="start" x="923.5" y="-866.39" font-family="Times New Roman,serif" font-size="14.00">docs: Operator used to tag the views </text>
<text text-anchor="start" x="923.5" y="-851.39" font-family="Times New Roman,serif" font-size="14.00">with some already tagged polygons </text>
<text text-anchor="start" x="923.5" y="-836.39" font-family="Times New Roman,serif" font-size="14.00">automatically. The spilt_tag and </text>
<text text-anchor="start" x="923.5" y="-821.39" font-family="Times New Roman,serif" font-size="14.00">tags of the most matched tagged_polygon </text>
<text text-anchor="start" x="923.5" y="-806.39" font-family="Times New Roman,serif" font-size="14.00">selected using CIou will be set </text>
<text text-anchor="start" x="923.5" y="-791.39" font-family="Times New Roman,serif" font-size="14.00">to the view, otherwise, the view </text>
<text text-anchor="start" x="923.5" y="-776.39" font-family="Times New Roman,serif" font-size="14.00">will remain its original spilt_tag </text>
<text text-anchor="start" x="923.5" y="-761.39" font-family="Times New Roman,serif" font-size="14.00">and tags info.</text>
</g>
<!-- ELUnsuperClassification/tagged_views -->
<g id="node11" class="node">
<title>ELUnsuperClassification/tagged_views</title>
<polygon fill="lightblue" stroke="blue" points="1116,-681.76 864,-681.76 864,-613.76 1116,-613.76 1116,-681.76"/>
<text text-anchor="start" x="872" y="-666.56" font-family="Times New Roman,serif" font-size="14.00">id: ELUnsuperClassification/tagged_views</text>
<text text-anchor="start" x="872" y="-651.56" font-family="Times New Roman,serif" font-size="14.00">type: visionflow::props::ViewList</text>
<text text-anchor="start" x="872" y="-636.56" font-family="Times New Roman,serif" font-size="14.00">update: 1970&#45;01&#45;01 00:00:00.0000000</text>
<text text-anchor="start" x="872" y="-621.56" font-family="Times New Roman,serif" font-size="14.00">docs: Property ViewList implementation.</text>
</g>
<!-- ELUnsuperClassification/view_tagger&#45;&gt;ELUnsuperClassification/tagged_views -->
<g id="edge23" class="edge">
<title>ELUnsuperClassification/view_tagger&#45;&gt;ELUnsuperClassification/tagged_views</title>
<path fill="none" stroke="black" d="M1009.74,-719.63C1006.98,-709.75 1004.34,-700.25 1001.93,-691.59"/>
<polygon fill="black" stroke="black" points="1005.26,-690.53 999.21,-681.83 998.52,-692.4 1005.26,-690.53"/>
</g>
<!-- ELUnsuperClassification/batch_size_conf -->
<g id="node4" class="node">
<title>ELUnsuperClassification/batch_size_conf</title>
<ellipse fill="pink" stroke="red" cx="229" cy="-519.07" rx="200.64" ry="58.88"/>
<text text-anchor="start" x="95" y="-545.37" font-family="Times New Roman,serif" font-size="14.00">id: ELUnsuperClassification/batch_size_conf</text>
<text text-anchor="start" x="95" y="-530.37" font-family="Times New Roman,serif" font-size="14.00">type: visionflow::confs::InferenceBatchSizeConf</text>
<text text-anchor="start" x="95" y="-515.37" font-family="Times New Roman,serif" font-size="14.00">update: 1970&#45;01&#45;01 00:00:00.0000000</text>
<text text-anchor="start" x="95" y="-500.37" font-family="Times New Roman,serif" font-size="14.00">docs: Configurator to set inference </text>
<text text-anchor="start" x="95" y="-485.37" font-family="Times New Roman,serif" font-size="14.00">batch size.</text>
</g>
<!-- ELUnsuperClassification/batch_size -->
<g id="node16" class="node">
<title>ELUnsuperClassification/batch_size</title>
<polygon fill="pink" stroke="red" points="371.5,-424.38 112.5,-424.38 112.5,-311.38 371.5,-311.38 371.5,-424.38"/>
<text text-anchor="start" x="120.5" y="-409.18" font-family="Times New Roman,serif" font-size="14.00">id: ELUnsuperClassification/batch_size</text>
<text text-anchor="start" x="120.5" y="-394.18" font-family="Times New Roman,serif" font-size="14.00">type: visionflow::param::InferenceBatchSize</text>
<text text-anchor="start" x="120.5" y="-379.18" font-family="Times New Roman,serif" font-size="14.00">update: 1970&#45;01&#45;01 00:00:00.0000000</text>
<text text-anchor="start" x="120.5" y="-364.18" font-family="Times New Roman,serif" font-size="14.00">docs: Inference BatchSize and Inference </text>
<text text-anchor="start" x="120.5" y="-349.18" font-family="Times New Roman,serif" font-size="14.00">Mode. Currently only contains </text>
<text text-anchor="start" x="120.5" y="-334.18" font-family="Times New Roman,serif" font-size="14.00">batch size. It may need to be </text>
<text text-anchor="start" x="120.5" y="-319.18" font-family="Times New Roman,serif" font-size="14.00">refactored in the future.</text>
</g>
<!-- ELUnsuperClassification/batch_size_conf&#45;&gt;ELUnsuperClassification/batch_size -->
<g id="edge2" class="edge">
<title>ELUnsuperClassification/batch_size_conf&#45;&gt;ELUnsuperClassification/batch_size</title>
<path fill="none" stroke="black" d="M234.03,-460.39C234.77,-451.9 235.53,-443.11 236.28,-434.48"/>
<polygon fill="black" stroke="black" points="239.78,-434.71 237.16,-424.45 232.8,-434.1 239.78,-434.71"/>
</g>
<!-- ELUnsuperClassification/infer.conf -->
<g id="node5" class="node">
<title>ELUnsuperClassification/infer.conf</title>
<ellipse fill="pink" stroke="red" cx="1188" cy="-519.07" rx="260.43" ry="58.88"/>
<text text-anchor="start" x="1012" y="-545.37" font-family="Times New Roman,serif" font-size="14.00">id: ELUnsuperClassification/infer.conf</text>
<text text-anchor="start" x="1012" y="-530.37" font-family="Times New Roman,serif" font-size="14.00">type: visionflow::confs::ELUnsuperClassificationInferenceConf</text>
<text text-anchor="start" x="1012" y="-515.37" font-family="Times New Roman,serif" font-size="14.00">update: 1970&#45;01&#45;01 00:00:00.0000000</text>
<text text-anchor="start" x="1012" y="-500.37" font-family="Times New Roman,serif" font-size="14.00">docs: Configurator to set EL Unsuper </text>
<text text-anchor="start" x="1012" y="-485.37" font-family="Times New Roman,serif" font-size="14.00">classification Inference options.</text>
</g>
<!-- ELUnsuperClassification/infer.args -->
<g id="node17" class="node">
<title>ELUnsuperClassification/infer.args</title>
<polygon fill="pink" stroke="red" points="1364,-394.38 960,-394.38 960,-341.38 1364,-341.38 1364,-394.38"/>
<text text-anchor="start" x="968" y="-379.18" font-family="Times New Roman,serif" font-size="14.00">id: ELUnsuperClassification/infer.args</text>
<text text-anchor="start" x="968" y="-364.18" font-family="Times New Roman,serif" font-size="14.00">type: visionflow::param::ELUnsuperClassificationInferenceParameters</text>
<text text-anchor="start" x="968" y="-349.18" font-family="Times New Roman,serif" font-size="14.00">update: 1970&#45;01&#45;01 00:00:00.0000000</text>
</g>
<!-- ELUnsuperClassification/infer.conf&#45;&gt;ELUnsuperClassification/infer.args -->
<g id="edge8" class="edge">
<title>ELUnsuperClassification/infer.conf&#45;&gt;ELUnsuperClassification/infer.args</title>
<path fill="none" stroke="black" d="M1177.95,-460.39C1174.66,-441.51 1171.1,-421.11 1168.19,-404.37"/>
<polygon fill="black" stroke="black" points="1171.62,-403.72 1166.46,-394.47 1164.73,-404.92 1171.62,-403.72"/>
</g>
<!-- ELUnsuperClassification/label_oper.conf -->
<g id="node6" class="node">
<title>ELUnsuperClassification/label_oper.conf</title>
<ellipse fill="pink" stroke="red" cx="1081" cy="-1448.49" rx="186.85" ry="58.88"/>
<text text-anchor="start" x="957" y="-1474.79" font-family="Times New Roman,serif" font-size="14.00">id: ELUnsuperClassification/label_oper.conf</text>
<text text-anchor="start" x="957" y="-1459.79" font-family="Times New Roman,serif" font-size="14.00">type: visionflow::confs::CustomConf</text>
<text text-anchor="start" x="957" y="-1444.79" font-family="Times New Roman,serif" font-size="14.00">update: 1970&#45;01&#45;01 00:00:00.0000000</text>
<text text-anchor="start" x="957" y="-1429.79" font-family="Times New Roman,serif" font-size="14.00">docs: Configurator class to generate </text>
<text text-anchor="start" x="957" y="-1414.79" font-family="Times New Roman,serif" font-size="14.00">any user&#45;defined parameters</text>
</g>
<!-- ELUnsuperClassification/label_oper.args -->
<g id="node18" class="node">
<title>ELUnsuperClassification/label_oper.args</title>
<polygon fill="pink" stroke="red" points="1212,-1353.8 950,-1353.8 950,-1270.8 1212,-1270.8 1212,-1353.8"/>
<text text-anchor="start" x="958" y="-1338.6" font-family="Times New Roman,serif" font-size="14.00">id: ELUnsuperClassification/label_oper.args</text>
<text text-anchor="start" x="958" y="-1323.6" font-family="Times New Roman,serif" font-size="14.00">type: visionflow::param::BinaryPacks</text>
<text text-anchor="start" x="958" y="-1308.6" font-family="Times New Roman,serif" font-size="14.00">update: 1970&#45;01&#45;01 00:00:00.0000000</text>
<text text-anchor="start" x="958" y="-1293.6" font-family="Times New Roman,serif" font-size="14.00">docs: A container to manage list of </text>
<text text-anchor="start" x="958" y="-1278.6" font-family="Times New Roman,serif" font-size="14.00">binary data.</text>
</g>
<!-- ELUnsuperClassification/label_oper.conf&#45;&gt;ELUnsuperClassification/label_oper.args -->
<g id="edge13" class="edge">
<title>ELUnsuperClassification/label_oper.conf&#45;&gt;ELUnsuperClassification/label_oper.args</title>
<path fill="none" stroke="black" d="M1081,-1389.41C1081,-1381.04 1081,-1372.49 1081,-1364.27"/>
<polygon fill="black" stroke="black" points="1084.5,-1364.09 1081,-1354.09 1077.5,-1364.09 1084.5,-1364.09"/>
</g>
<!-- ELUnsuperClassification/trainer -->
<g id="node7" class="node">
<title>ELUnsuperClassification/trainer</title>
<ellipse fill="pink" stroke="red" cx="679" cy="-519.07" rx="231.45" ry="48.17"/>
<text text-anchor="start" x="523.5" y="-537.87" font-family="Times New Roman,serif" font-size="14.00">id: ELUnsuperClassification/trainer</text>
<text text-anchor="start" x="523.5" y="-522.87" font-family="Times New Roman,serif" font-size="14.00">type: visionflow::confs::ELUnsuperClassificationTrainer</text>
<text text-anchor="start" x="523.5" y="-507.87" font-family="Times New Roman,serif" font-size="14.00">update: 1970&#45;01&#45;01 00:00:00.0000000</text>
<text text-anchor="start" x="523.5" y="-492.87" font-family="Times New Roman,serif" font-size="14.00">docs: EL Classification model trainer.</text>
</g>
<!-- ELUnsuperClassification/model -->
<g id="node19" class="node">
<title>ELUnsuperClassification/model</title>
<polygon fill="pink" stroke="red" points="667.5,-409.38 442.5,-409.38 442.5,-326.38 667.5,-326.38 667.5,-409.38"/>
<text text-anchor="start" x="450.5" y="-394.18" font-family="Times New Roman,serif" font-size="14.00">id: ELUnsuperClassification/model</text>
<text text-anchor="start" x="450.5" y="-379.18" font-family="Times New Roman,serif" font-size="14.00">type: visionflow::param::BinaryPacks</text>
<text text-anchor="start" x="450.5" y="-364.18" font-family="Times New Roman,serif" font-size="14.00">update: 1970&#45;01&#45;01 00:00:00.0000000</text>
<text text-anchor="start" x="450.5" y="-349.18" font-family="Times New Roman,serif" font-size="14.00">docs: A container to manage list of </text>
<text text-anchor="start" x="450.5" y="-334.18" font-family="Times New Roman,serif" font-size="14.00">binary data.</text>
</g>
<!-- ELUnsuperClassification/trainer&#45;&gt;ELUnsuperClassification/model -->
<g id="edge18" class="edge">
<title>ELUnsuperClassification/trainer&#45;&gt;ELUnsuperClassification/model</title>
<path fill="none" stroke="black" d="M640.11,-471.27C625.82,-454.08 609.62,-434.59 595.21,-417.26"/>
<polygon fill="black" stroke="black" points="597.82,-414.92 588.74,-409.47 592.44,-419.4 597.82,-414.92"/>
</g>
<!-- ELUnsuperClassification/training_log -->
<g id="node21" class="node">
<title>ELUnsuperClassification/training_log</title>
<polygon fill="pink" stroke="red" points="928,-394.38 686,-394.38 686,-341.38 928,-341.38 928,-394.38"/>
<text text-anchor="start" x="694" y="-379.18" font-family="Times New Roman,serif" font-size="14.00">id: ELUnsuperClassification/training_log</text>
<text text-anchor="start" x="694" y="-364.18" font-family="Times New Roman,serif" font-size="14.00">type: visionflow::param::TrainingLog</text>
<text text-anchor="start" x="694" y="-349.18" font-family="Times New Roman,serif" font-size="14.00">update: 1970&#45;01&#45;01 00:00:00.0000000</text>
</g>
<!-- ELUnsuperClassification/trainer&#45;&gt;ELUnsuperClassification/training_log -->
<g id="edge19" class="edge">
<title>ELUnsuperClassification/trainer&#45;&gt;ELUnsuperClassification/training_log</title>
<path fill="none" stroke="black" d="M718.8,-471.68C738.11,-449.18 760.86,-422.66 778.42,-402.19"/>
<polygon fill="black" stroke="black" points="781.26,-404.25 785.12,-394.39 775.95,-399.7 781.26,-404.25"/>
</g>
<!-- ELUnsuperClassification/trainer.conf -->
<g id="node8" class="node">
<title>ELUnsuperClassification/trainer.conf</title>
<ellipse fill="pink" stroke="red" cx="593" cy="-840.09" rx="251.96" ry="58.88"/>
<text text-anchor="start" x="423" y="-866.39" font-family="Times New Roman,serif" font-size="14.00">id: ELUnsuperClassification/trainer.conf</text>
<text text-anchor="start" x="423" y="-851.39" font-family="Times New Roman,serif" font-size="14.00">type: visionflow::confs::ELUnsuperClassificationTrainerConf</text>
<text text-anchor="start" x="423" y="-836.39" font-family="Times New Roman,serif" font-size="14.00">update: 1970&#45;01&#45;01 00:00:00.0000000</text>
<text text-anchor="start" x="423" y="-821.39" font-family="Times New Roman,serif" font-size="14.00">docs: Configurator to set EL Unsuper </text>
<text text-anchor="start" x="423" y="-806.39" font-family="Times New Roman,serif" font-size="14.00">classification trainer options.</text>
</g>
<!-- ELUnsuperClassification/trainer.args -->
<g id="node20" class="node">
<title>ELUnsuperClassification/trainer.args</title>
<polygon fill="pink" stroke="red" points="819,-674.26 421,-674.26 421,-621.26 819,-621.26 819,-674.26"/>
<text text-anchor="start" x="429" y="-659.06" font-family="Times New Roman,serif" font-size="14.00">id: ELUnsuperClassification/trainer.args</text>
<text text-anchor="start" x="429" y="-644.06" font-family="Times New Roman,serif" font-size="14.00">type: visionflow::param::ELUnsuperClassificationTrainingParameters</text>
<text text-anchor="start" x="429" y="-629.06" font-family="Times New Roman,serif" font-size="14.00">update: 1970&#45;01&#45;01 00:00:00.0000000</text>
</g>
<!-- ELUnsuperClassification/trainer.conf&#45;&gt;ELUnsuperClassification/trainer.args -->
<g id="edge21" class="edge">
<title>ELUnsuperClassification/trainer.conf&#45;&gt;ELUnsuperClassification/trainer.args</title>
<path fill="none" stroke="black" d="M601.21,-781.21C605.68,-749.73 611.06,-711.79 614.92,-684.6"/>
<polygon fill="black" stroke="black" points="618.43,-684.78 616.37,-674.38 611.5,-683.79 618.43,-684.78"/>
</g>
<!-- ELUnsuperClassification/mask&#45;&gt;ELUnsuperClassification/trainer -->
<g id="edge14" class="edge">
<title>ELUnsuperClassification/mask&#45;&gt;ELUnsuperClassification/trainer</title>
<path fill="none" stroke="black" d="M1262.64,-998.33C1269.55,-935.05 1275.53,-810.54 1232,-717.76 1203.83,-657.72 1184.06,-643.92 1125,-613.76 1042.22,-571.49 1010.01,-596.63 919,-577.76 891.51,-572.06 862.36,-565.5 834.22,-558.89"/>
<polygon fill="black" stroke="black" points="834.84,-555.44 824.31,-556.55 833.24,-562.25 834.84,-555.44"/>
</g>
<!-- ELUnsuperClassification/tagged_polygons&#45;&gt;ELUnsuperClassification/view_tagger -->
<g id="edge16" class="edge">
<title>ELUnsuperClassification/tagged_polygons&#45;&gt;ELUnsuperClassification/view_tagger</title>
<path fill="none" stroke="black" d="M972.23,-1005.81C977.03,-994.62 982.72,-981.37 988.76,-967.33"/>
<polygon fill="black" stroke="black" points="992.03,-968.57 992.77,-958 985.6,-965.81 992.03,-968.57"/>
</g>
<!-- ELUnsuperClassification/tagged_views&#45;&gt;ELUnsuperClassification/trainer -->
<g id="edge17" class="edge">
<title>ELUnsuperClassification/tagged_views&#45;&gt;ELUnsuperClassification/trainer</title>
<path fill="none" stroke="black" d="M908.69,-613.64C873.11,-599.14 830.75,-581.89 792.15,-566.16"/>
<polygon fill="black" stroke="black" points="793.01,-562.73 782.43,-562.2 790.37,-569.22 793.01,-562.73"/>
</g>
<!-- ELUnsuperClassification/truth&#45;&gt;ELUnsuperClassification/trainer -->
<g id="edge22" class="edge">
<title>ELUnsuperClassification/truth&#45;&gt;ELUnsuperClassification/trainer</title>
<path fill="none" stroke="black" d="M224.37,-798.53C262.46,-748.6 333.4,-664.24 412,-613.76 446.49,-591.61 486.85,-573.95 525.6,-560.2"/>
<polygon fill="black" stroke="black" points="527.12,-563.38 535.42,-556.79 524.82,-556.77 527.12,-563.38"/>
</g>
<!-- ELUnsuperClassification/image -->
<g id="node13" class="node">
<title>ELUnsuperClassification/image</title>
<ellipse fill="lightblue" stroke="blue" cx="1466" cy="-1312.3" rx="1.8" ry="1.8"/>
</g>
<!-- ELUnsuperClassification/image&#45;&gt;ELUnsuperClassification/infer -->
<g id="edge3" class="edge">
<title>ELUnsuperClassification/image&#45;&gt;ELUnsuperClassification/infer</title>
<path fill="none" stroke="black" d="M1466.06,-1310.33C1466.92,-1297.29 1476,-1155.53 1476,-1040.92 1476,-1040.92 1476,-1040.92 1476,-518.07 1476,-450.92 1386.05,-320.04 1373,-311.38 1279.68,-249.47 994.17,-228.25 786.69,-221.1"/>
<polygon fill="black" stroke="black" points="786.67,-217.6 776.56,-220.76 786.43,-224.59 786.67,-217.6"/>
</g>
<!-- ELUnsuperClassification/image&#45;&gt;ELUnsuperClassification/label_oper -->
<g id="edge4" class="edge">
<title>ELUnsuperClassification/image&#45;&gt;ELUnsuperClassification/label_oper</title>
<path fill="none" stroke="black" d="M1466.24,-1310.11C1467.27,-1304.75 1470.71,-1282.58 1460,-1270.8 1434.78,-1243.05 1360.54,-1221.78 1284.39,-1206.58"/>
<polygon fill="black" stroke="black" points="1284.61,-1203.06 1274.12,-1204.57 1283.26,-1209.93 1284.61,-1203.06"/>
</g>
<!-- ELUnsuperClassification/image&#45;&gt;ELUnsuperClassification/trainer -->
<g id="edge5" class="edge">
<title>ELUnsuperClassification/image&#45;&gt;ELUnsuperClassification/trainer</title>
<path fill="none" stroke="black" d="M1465.86,-1310.29C1465.23,-1305.73 1462.56,-1286.51 1460,-1270.8 1443.28,-1168.37 1419,-1144.7 1419,-1040.92 1419,-1040.92 1419,-1040.92 1419,-839.09 1419,-588.34 1165.31,-624.71 919,-577.76 890.85,-572.39 861.04,-565.9 832.34,-559.22"/>
<polygon fill="black" stroke="black" points="832.78,-555.73 822.24,-556.86 831.18,-562.55 832.78,-555.73"/>
</g>
<!-- ELUnsuperClassification/views -->
<g id="node14" class="node">
<title>ELUnsuperClassification/views</title>
<ellipse fill="lightblue" stroke="blue" cx="5" cy="-1039.92" rx="1.8" ry="1.8"/>
</g>
<!-- ELUnsuperClassification/views&#45;&gt;ELUnsuperClassification/infer -->
<g id="edge24" class="edge">
<title>ELUnsuperClassification/views&#45;&gt;ELUnsuperClassification/infer</title>
<path fill="none" stroke="black" d="M4.98,-1037.94C4.62,-1022.05 0,-815.4 0,-648.76 0,-648.76 0,-648.76 0,-518.07 0,-450.52 91.81,-320.25 104,-311.38 143.4,-282.74 247.42,-260.14 345.64,-244.32"/>
<polygon fill="black" stroke="black" points="346.42,-247.74 355.74,-242.71 345.32,-240.83 346.42,-247.74"/>
</g>
<!-- ELUnsuperClassification/views&#45;&gt;ELUnsuperClassification/view_tagger -->
<g id="edge25" class="edge">
<title>ELUnsuperClassification/views&#45;&gt;ELUnsuperClassification/view_tagger</title>
<path fill="none" stroke="black" d="M4.88,-1037.66C4.39,-1031.97 3.25,-1008.61 16,-998.42 88.8,-940.23 765.16,-990.57 854,-962.42 874.31,-955.98 894.56,-946.77 913.84,-936.26"/>
<polygon fill="black" stroke="black" points="915.62,-939.28 922.64,-931.34 912.2,-933.17 915.62,-939.28"/>
</g>
<!-- ELUnsuperClassification/batch_size&#45;&gt;ELUnsuperClassification/infer -->
<g id="edge1" class="edge">
<title>ELUnsuperClassification/batch_size&#45;&gt;ELUnsuperClassification/infer</title>
<path fill="none" stroke="black" d="M358.55,-311.33C384.98,-298.73 413.04,-285.35 439.43,-272.77"/>
<polygon fill="black" stroke="black" points="441.17,-275.82 448.69,-268.36 438.16,-269.5 441.17,-275.82"/>
</g>
<!-- ELUnsuperClassification/infer.args&#45;&gt;ELUnsuperClassification/infer -->
<g id="edge7" class="edge">
<title>ELUnsuperClassification/infer.args&#45;&gt;ELUnsuperClassification/infer</title>
<path fill="none" stroke="black" d="M1058.68,-341.36C1020.45,-331.93 976.75,-321.16 937,-311.38 868.1,-294.43 792.19,-275.81 726.32,-259.66"/>
<polygon fill="black" stroke="black" points="726.8,-256.17 716.25,-257.19 725.13,-262.97 726.8,-256.17"/>
</g>
<!-- ELUnsuperClassification/label_oper.args&#45;&gt;ELUnsuperClassification/label_oper -->
<g id="edge12" class="edge">
<title>ELUnsuperClassification/label_oper.args&#45;&gt;ELUnsuperClassification/label_oper</title>
<path fill="none" stroke="black" d="M1081,-1270.67C1081,-1262.58 1081,-1253.87 1081,-1245.14"/>
<polygon fill="black" stroke="black" points="1084.5,-1244.92 1081,-1234.92 1077.5,-1244.92 1084.5,-1244.92"/>
</g>
<!-- ELUnsuperClassification/model&#45;&gt;ELUnsuperClassification/infer -->
<g id="edge15" class="edge">
<title>ELUnsuperClassification/model&#45;&gt;ELUnsuperClassification/infer</title>
<path fill="none" stroke="black" d="M555,-326.11C555,-313.55 555,-299.36 555,-285.48"/>
<polygon fill="black" stroke="black" points="558.5,-285.46 555,-275.46 551.5,-285.46 558.5,-285.46"/>
</g>
<!-- ELUnsuperClassification/trainer.args&#45;&gt;ELUnsuperClassification/trainer -->
<g id="edge20" class="edge">
<title>ELUnsuperClassification/trainer.args&#45;&gt;ELUnsuperClassification/trainer</title>
<path fill="none" stroke="black" d="M631.94,-621.12C637.96,-608.19 645.52,-591.96 652.81,-576.31"/>
<polygon fill="black" stroke="black" points="656.01,-577.74 657.05,-567.19 649.66,-574.78 656.01,-577.74"/>
</g>
</g>
</svg>
