<?xml version="1.0" encoding="UTF-8" standalone="no"?>
<!DOCTYPE svg PUBLIC "-//W3C//DTD SVG 1.1//EN"
 "http://www.w3.org/Graphics/SVG/1.1/DTD/svg11.dtd">
<!-- Generated by graphviz version 6.0.1 (20220911.1526)
 -->
<!-- Title: OnlyTool: IDReader Pages: 1 -->
<svg width="1382pt" height="1699pt"
 viewBox="0.00 0.00 1382.17 1699.28" xmlns="http://www.w3.org/2000/svg" xmlns:xlink="http://www.w3.org/1999/xlink">
<g id="graph0" class="graph" transform="scale(1 1) rotate(0) translate(4 1695.28)">
<title>OnlyTool: IDReader</title>
<polygon fill="white" stroke="none" points="-4,4 -4,-1695.28 1378.17,-1695.28 1378.17,4 -4,4"/>
<text text-anchor="middle" x="687.08" y="-7.8" font-family="Times New Roman,serif" font-size="14.00">OnlyTool: IDReader</text>
<g id="clust1" class="cluster">
<title>cluster_IDReader</title>
<polygon fill="none" stroke="black" points="8,-31 8,-1683.28 1340,-1683.28 1340,-31 8,-31"/>
<text text-anchor="middle" x="674" y="-1668.08" font-family="Times New Roman,serif" font-size="14.00">IDReader</text>
</g>
<!-- IDReader/decoder -->
<g id="node1" class="node">
<title>IDReader/decoder</title>
<ellipse fill="lightblue" stroke="blue" cx="1135" cy="-206.08" rx="177.47" ry="48.17"/>
<text text-anchor="start" x="1017.5" y="-224.88" font-family="Times New Roman,serif" font-size="14.00">id: IDReader/decoder</text>
<text text-anchor="start" x="1017.5" y="-209.88" font-family="Times New Roman,serif" font-size="14.00">type: visionflow::opers::IDReaderDecoder</text>
<text text-anchor="start" x="1017.5" y="-194.88" font-family="Times New Roman,serif" font-size="14.00">update: 1970&#45;01&#45;01 00:00:00.0000000</text>
<text text-anchor="start" x="1017.5" y="-179.88" font-family="Times New Roman,serif" font-size="14.00">docs: IDReader inference engine.</text>
</g>
<!-- IDReader/pred -->
<g id="node17" class="node">
<title>IDReader/pred</title>
<polygon fill="none" stroke="blue" stroke-dasharray="5,2" points="1267.5,-122 1002.5,-122 1002.5,-39 1267.5,-39 1267.5,-122"/>
<text text-anchor="start" x="1010.5" y="-106.8" font-family="Times New Roman,serif" font-size="14.00">id: IDReader/pred</text>
<text text-anchor="start" x="1010.5" y="-91.8" font-family="Times New Roman,serif" font-size="14.00">type: visionflow::props::IDReaderRegionList</text>
<text text-anchor="start" x="1010.5" y="-76.8" font-family="Times New Roman,serif" font-size="14.00">update: 1970&#45;01&#45;01 00:00:00.0000000</text>
<text text-anchor="start" x="1010.5" y="-61.8" font-family="Times New Roman,serif" font-size="14.00">docs: List structure to manage polygon </text>
<text text-anchor="start" x="1010.5" y="-46.8" font-family="Times New Roman,serif" font-size="14.00">regions.</text>
</g>
<!-- IDReader/decoder&#45;&gt;IDReader/pred -->
<g id="edge3" class="edge">
<title>IDReader/decoder&#45;&gt;IDReader/pred</title>
<path fill="none" stroke="black" d="M1135,-157.66C1135,-149.33 1135,-140.64 1135,-132.23"/>
<polygon fill="black" stroke="black" points="1138.5,-132.16 1135,-122.16 1131.5,-132.16 1138.5,-132.16"/>
</g>
<!-- IDReader/featmap_filter -->
<g id="node2" class="node">
<title>IDReader/featmap_filter</title>
<ellipse fill="lightblue" stroke="blue" cx="724" cy="-761.45" rx="225.63" ry="58.88"/>
<text text-anchor="start" x="572.5" y="-787.75" font-family="Times New Roman,serif" font-size="14.00">id: IDReader/featmap_filter</text>
<text text-anchor="start" x="572.5" y="-772.75" font-family="Times New Roman,serif" font-size="14.00">type: visionflow::opers::SegmentationFeatureMapFilter</text>
<text text-anchor="start" x="572.5" y="-757.75" font-family="Times New Roman,serif" font-size="14.00">update: 1970&#45;01&#45;01 00:00:00.0000000</text>
<text text-anchor="start" x="572.5" y="-742.75" font-family="Times New Roman,serif" font-size="14.00">docs: Operator to filter feature map </text>
<text text-anchor="start" x="572.5" y="-727.75" font-family="Times New Roman,serif" font-size="14.00">into list of polygon regions.</text>
</g>
<!-- IDReader/raw_pred -->
<g id="node14" class="node">
<title>IDReader/raw_pred</title>
<polygon fill="lightblue" stroke="blue" points="866.5,-666.76 609.5,-666.76 609.5,-583.76 866.5,-583.76 866.5,-666.76"/>
<text text-anchor="start" x="617.5" y="-651.56" font-family="Times New Roman,serif" font-size="14.00">id: IDReader/raw_pred</text>
<text text-anchor="start" x="617.5" y="-636.56" font-family="Times New Roman,serif" font-size="14.00">type: visionflow::props::PolygonRegionList</text>
<text text-anchor="start" x="617.5" y="-621.56" font-family="Times New Roman,serif" font-size="14.00">update: 1970&#45;01&#45;01 00:00:00.0000000</text>
<text text-anchor="start" x="617.5" y="-606.56" font-family="Times New Roman,serif" font-size="14.00">docs: List structure to manage polygon </text>
<text text-anchor="start" x="617.5" y="-591.56" font-family="Times New Roman,serif" font-size="14.00">regions.</text>
</g>
<!-- IDReader/featmap_filter&#45;&gt;IDReader/raw_pred -->
<g id="edge6" class="edge">
<title>IDReader/featmap_filter&#45;&gt;IDReader/raw_pred</title>
<path fill="none" stroke="black" d="M730.02,-702.76C730.91,-694.18 731.83,-685.38 732.71,-676.95"/>
<polygon fill="black" stroke="black" points="736.2,-677.21 733.76,-666.9 729.24,-676.48 736.2,-677.21"/>
</g>
<!-- IDReader/filter -->
<g id="node3" class="node">
<title>IDReader/filter</title>
<ellipse fill="lightblue" stroke="blue" cx="753" cy="-478.46" rx="166.75" ry="69.09"/>
<text text-anchor="start" x="643" y="-512.26" font-family="Times New Roman,serif" font-size="14.00">id: IDReader/filter</text>
<text text-anchor="start" x="643" y="-497.26" font-family="Times New Roman,serif" font-size="14.00">type: visionflow::opers::PolygonsFilter</text>
<text text-anchor="start" x="643" y="-482.26" font-family="Times New Roman,serif" font-size="14.00">update: 1970&#45;01&#45;01 00:00:00.0000000</text>
<text text-anchor="start" x="643" y="-467.26" font-family="Times New Roman,serif" font-size="14.00">docs: An operator to filter list of </text>
<text text-anchor="start" x="643" y="-452.26" font-family="Times New Roman,serif" font-size="14.00">regions with some common thresholds </text>
<text text-anchor="start" x="643" y="-437.26" font-family="Times New Roman,serif" font-size="14.00">or customized python filter script.</text>
</g>
<!-- IDReader/filter_pred -->
<g id="node13" class="node">
<title>IDReader/filter_pred</title>
<polygon fill="lightblue" stroke="blue" points="920.5,-373.17 663.5,-373.17 663.5,-290.17 920.5,-290.17 920.5,-373.17"/>
<text text-anchor="start" x="671.5" y="-357.97" font-family="Times New Roman,serif" font-size="14.00">id: IDReader/filter_pred</text>
<text text-anchor="start" x="671.5" y="-342.97" font-family="Times New Roman,serif" font-size="14.00">type: visionflow::props::PolygonRegionList</text>
<text text-anchor="start" x="671.5" y="-327.97" font-family="Times New Roman,serif" font-size="14.00">update: 1970&#45;01&#45;01 00:00:00.0000000</text>
<text text-anchor="start" x="671.5" y="-312.97" font-family="Times New Roman,serif" font-size="14.00">docs: List structure to manage polygon </text>
<text text-anchor="start" x="671.5" y="-297.97" font-family="Times New Roman,serif" font-size="14.00">regions.</text>
</g>
<!-- IDReader/filter&#45;&gt;IDReader/filter_pred -->
<g id="edge10" class="edge">
<title>IDReader/filter&#45;&gt;IDReader/filter_pred</title>
<path fill="none" stroke="black" d="M771.36,-409.3C773.74,-400.45 776.15,-391.51 778.44,-383.01"/>
<polygon fill="black" stroke="black" points="781.84,-383.84 781.06,-373.28 775.08,-382.02 781.84,-383.84"/>
</g>
<!-- IDReader/infer -->
<g id="node4" class="node">
<title>IDReader/infer</title>
<ellipse fill="lightblue" stroke="blue" cx="724" cy="-1048.83" rx="166.75" ry="48.17"/>
<text text-anchor="start" x="614" y="-1067.63" font-family="Times New Roman,serif" font-size="14.00">id: IDReader/infer</text>
<text text-anchor="start" x="614" y="-1052.63" font-family="Times New Roman,serif" font-size="14.00">type: visionflow::opers::IDReaderInfer</text>
<text text-anchor="start" x="614" y="-1037.63" font-family="Times New Roman,serif" font-size="14.00">update: 1970&#45;01&#45;01 00:00:00.0000000</text>
<text text-anchor="start" x="614" y="-1022.63" font-family="Times New Roman,serif" font-size="14.00">docs: IDReader Caffe inference engine.</text>
</g>
<!-- IDReader/feature_map -->
<g id="node12" class="node">
<title>IDReader/feature_map</title>
<polygon fill="lightblue" stroke="blue" points="836.5,-954.14 611.5,-954.14 611.5,-856.14 836.5,-856.14 836.5,-954.14"/>
<text text-anchor="start" x="619.5" y="-938.94" font-family="Times New Roman,serif" font-size="14.00">id: IDReader/feature_map</text>
<text text-anchor="start" x="619.5" y="-923.94" font-family="Times New Roman,serif" font-size="14.00">type: visionflow::props::FeatureMap</text>
<text text-anchor="start" x="619.5" y="-908.94" font-family="Times New Roman,serif" font-size="14.00">update: 1970&#45;01&#45;01 00:00:00.0000000</text>
<text text-anchor="start" x="619.5" y="-893.94" font-family="Times New Roman,serif" font-size="14.00">docs: A data structure used to store </text>
<text text-anchor="start" x="619.5" y="-878.94" font-family="Times New Roman,serif" font-size="14.00">feature maps detected by each </text>
<text text-anchor="start" x="619.5" y="-863.94" font-family="Times New Roman,serif" font-size="14.00">algorithm module.</text>
</g>
<!-- IDReader/infer&#45;&gt;IDReader/feature_map -->
<g id="edge16" class="edge">
<title>IDReader/infer&#45;&gt;IDReader/feature_map</title>
<path fill="none" stroke="black" d="M724,-1000.65C724,-989.19 724,-976.8 724,-964.88"/>
<polygon fill="black" stroke="black" points="727.5,-964.57 724,-954.57 720.5,-964.57 727.5,-964.57"/>
</g>
<!-- IDReader/batch_size.conf -->
<g id="node5" class="node">
<title>IDReader/batch_size.conf</title>
<ellipse fill="pink" stroke="red" cx="1131" cy="-1351.21" rx="200.64" ry="58.88"/>
<text text-anchor="start" x="997" y="-1377.51" font-family="Times New Roman,serif" font-size="14.00">id: IDReader/batch_size.conf</text>
<text text-anchor="start" x="997" y="-1362.51" font-family="Times New Roman,serif" font-size="14.00">type: visionflow::confs::InferenceBatchSizeConf</text>
<text text-anchor="start" x="997" y="-1347.51" font-family="Times New Roman,serif" font-size="14.00">update: 1970&#45;01&#45;01 00:00:00.0000000</text>
<text text-anchor="start" x="997" y="-1332.51" font-family="Times New Roman,serif" font-size="14.00">docs: Configurator to set inference </text>
<text text-anchor="start" x="997" y="-1317.51" font-family="Times New Roman,serif" font-size="14.00">batch size.</text>
</g>
<!-- IDReader/batch_size -->
<g id="node18" class="node">
<title>IDReader/batch_size</title>
<polygon fill="pink" stroke="red" points="1215.5,-1256.52 956.5,-1256.52 956.5,-1143.52 1215.5,-1143.52 1215.5,-1256.52"/>
<text text-anchor="start" x="964.5" y="-1241.32" font-family="Times New Roman,serif" font-size="14.00">id: IDReader/batch_size</text>
<text text-anchor="start" x="964.5" y="-1226.32" font-family="Times New Roman,serif" font-size="14.00">type: visionflow::param::InferenceBatchSize</text>
<text text-anchor="start" x="964.5" y="-1211.32" font-family="Times New Roman,serif" font-size="14.00">update: 1970&#45;01&#45;01 00:00:00.0000000</text>
<text text-anchor="start" x="964.5" y="-1196.32" font-family="Times New Roman,serif" font-size="14.00">docs: Inference BatchSize and Inference </text>
<text text-anchor="start" x="964.5" y="-1181.32" font-family="Times New Roman,serif" font-size="14.00">Mode. Currently only contains </text>
<text text-anchor="start" x="964.5" y="-1166.32" font-family="Times New Roman,serif" font-size="14.00">batch size. It may need to be </text>
<text text-anchor="start" x="964.5" y="-1151.32" font-family="Times New Roman,serif" font-size="14.00">refactored in the future.</text>
</g>
<!-- IDReader/batch_size.conf&#45;&gt;IDReader/batch_size -->
<g id="edge2" class="edge">
<title>IDReader/batch_size.conf&#45;&gt;IDReader/batch_size</title>
<path fill="none" stroke="black" d="M1113.6,-1292.53C1111.01,-1283.95 1108.33,-1275.06 1105.7,-1266.33"/>
<polygon fill="black" stroke="black" points="1109,-1265.15 1102.76,-1256.58 1102.3,-1267.17 1109,-1265.15"/>
</g>
<!-- IDReader/decoder.conf -->
<g id="node6" class="node">
<title>IDReader/decoder.conf</title>
<ellipse fill="pink" stroke="red" cx="1135" cy="-478.46" rx="197.07" ry="58.88"/>
<text text-anchor="start" x="1003.5" y="-504.76" font-family="Times New Roman,serif" font-size="14.00">id: IDReader/decoder.conf</text>
<text text-anchor="start" x="1003.5" y="-489.76" font-family="Times New Roman,serif" font-size="14.00">type: visionflow::confs::IDReaderDecoderConf</text>
<text text-anchor="start" x="1003.5" y="-474.76" font-family="Times New Roman,serif" font-size="14.00">update: 1970&#45;01&#45;01 00:00:00.0000000</text>
<text text-anchor="start" x="1003.5" y="-459.76" font-family="Times New Roman,serif" font-size="14.00">docs: Configurator to config the IDReader </text>
<text text-anchor="start" x="1003.5" y="-444.76" font-family="Times New Roman,serif" font-size="14.00">inference parameters.</text>
</g>
<!-- IDReader/decoder.args -->
<g id="node19" class="node">
<title>IDReader/decoder.args</title>
<polygon fill="pink" stroke="red" points="1292.5,-358.17 977.5,-358.17 977.5,-305.17 1292.5,-305.17 1292.5,-358.17"/>
<text text-anchor="start" x="985.5" y="-342.97" font-family="Times New Roman,serif" font-size="14.00">id: IDReader/decoder.args</text>
<text text-anchor="start" x="985.5" y="-327.97" font-family="Times New Roman,serif" font-size="14.00">type: visionflow::param::IDReaderDecoderParameters</text>
<text text-anchor="start" x="985.5" y="-312.97" font-family="Times New Roman,serif" font-size="14.00">update: 1970&#45;01&#45;01 00:00:00.0000000</text>
</g>
<!-- IDReader/decoder.conf&#45;&gt;IDReader/decoder.args -->
<g id="edge5" class="edge">
<title>IDReader/decoder.conf&#45;&gt;IDReader/decoder.args</title>
<path fill="none" stroke="black" d="M1135,-419.4C1135,-402.14 1135,-383.75 1135,-368.36"/>
<polygon fill="black" stroke="black" points="1138.5,-368.24 1135,-358.24 1131.5,-368.24 1138.5,-368.24"/>
</g>
<!-- IDReader/featmap_filter.conf -->
<g id="node7" class="node">
<title>IDReader/featmap_filter.conf</title>
<ellipse fill="pink" stroke="red" cx="1101" cy="-1048.83" rx="192.17" ry="58.88"/>
<text text-anchor="start" x="973" y="-1075.13" font-family="Times New Roman,serif" font-size="14.00">id: IDReader/featmap_filter.conf</text>
<text text-anchor="start" x="973" y="-1060.13" font-family="Times New Roman,serif" font-size="14.00">type: visionflow::confs::FeatureMapFilterConf</text>
<text text-anchor="start" x="973" y="-1045.13" font-family="Times New Roman,serif" font-size="14.00">update: 1970&#45;01&#45;01 00:00:00.0000000</text>
<text text-anchor="start" x="973" y="-1030.13" font-family="Times New Roman,serif" font-size="14.00">docs: Configurator UI to config the </text>
<text text-anchor="start" x="973" y="-1015.13" font-family="Times New Roman,serif" font-size="14.00">feature map filter.</text>
</g>
<!-- IDReader/featmap_filter.args -->
<g id="node20" class="node">
<title>IDReader/featmap_filter.args</title>
<polygon fill="pink" stroke="red" points="1209,-946.64 901,-946.64 901,-863.64 1209,-863.64 1209,-946.64"/>
<text text-anchor="start" x="909" y="-931.44" font-family="Times New Roman,serif" font-size="14.00">id: IDReader/featmap_filter.args</text>
<text text-anchor="start" x="909" y="-916.44" font-family="Times New Roman,serif" font-size="14.00">type: visionflow::param::FeatureMapFilterParameters</text>
<text text-anchor="start" x="909" y="-901.44" font-family="Times New Roman,serif" font-size="14.00">update: 1970&#45;01&#45;01 00:00:00.0000000</text>
<text text-anchor="start" x="909" y="-886.44" font-family="Times New Roman,serif" font-size="14.00">docs: Parameters to config the feature </text>
<text text-anchor="start" x="909" y="-871.44" font-family="Times New Roman,serif" font-size="14.00">map filter.</text>
</g>
<!-- IDReader/featmap_filter.conf&#45;&gt;IDReader/featmap_filter.args -->
<g id="edge8" class="edge">
<title>IDReader/featmap_filter.conf&#45;&gt;IDReader/featmap_filter.args</title>
<path fill="none" stroke="black" d="M1082.29,-990.2C1078.67,-979.05 1074.91,-967.46 1071.37,-956.56"/>
<polygon fill="black" stroke="black" points="1074.61,-955.22 1068.2,-946.79 1067.96,-957.38 1074.61,-955.22"/>
</g>
<!-- IDReader/filter.conf -->
<g id="node8" class="node">
<title>IDReader/filter.conf</title>
<ellipse fill="pink" stroke="red" cx="1150" cy="-761.45" rx="182.37" ry="58.88"/>
<text text-anchor="start" x="1029" y="-787.75" font-family="Times New Roman,serif" font-size="14.00">id: IDReader/filter.conf</text>
<text text-anchor="start" x="1029" y="-772.75" font-family="Times New Roman,serif" font-size="14.00">type: visionflow::confs::PolygonsFilterConf</text>
<text text-anchor="start" x="1029" y="-757.75" font-family="Times New Roman,serif" font-size="14.00">update: 1970&#45;01&#45;01 00:00:00.0000000</text>
<text text-anchor="start" x="1029" y="-742.75" font-family="Times New Roman,serif" font-size="14.00">docs: Configurator UI to generate the </text>
<text text-anchor="start" x="1029" y="-727.75" font-family="Times New Roman,serif" font-size="14.00">polygon filter args.</text>
</g>
<!-- IDReader/filter.args -->
<g id="node21" class="node">
<title>IDReader/filter.args</title>
<polygon fill="pink" stroke="red" points="1231,-651.76 937,-651.76 937,-598.76 1231,-598.76 1231,-651.76"/>
<text text-anchor="start" x="945" y="-636.56" font-family="Times New Roman,serif" font-size="14.00">id: IDReader/filter.args</text>
<text text-anchor="start" x="945" y="-621.56" font-family="Times New Roman,serif" font-size="14.00">type: visionflow::param::PolygonsFilterParameters</text>
<text text-anchor="start" x="945" y="-606.56" font-family="Times New Roman,serif" font-size="14.00">update: 1970&#45;01&#45;01 00:00:00.0000000</text>
</g>
<!-- IDReader/filter.conf&#45;&gt;IDReader/filter.args -->
<g id="edge12" class="edge">
<title>IDReader/filter.conf&#45;&gt;IDReader/filter.args</title>
<path fill="none" stroke="black" d="M1121.82,-703.15C1114.84,-688.96 1107.56,-674.17 1101.28,-661.4"/>
<polygon fill="black" stroke="black" points="1104.25,-659.5 1096.69,-652.07 1097.97,-662.58 1104.25,-659.5"/>
</g>
<!-- IDReader/infer.conf -->
<g id="node9" class="node">
<title>IDReader/infer.conf</title>
<ellipse fill="pink" stroke="red" cx="697" cy="-1351.21" rx="214.92" ry="58.88"/>
<text text-anchor="start" x="553" y="-1377.51" font-family="Times New Roman,serif" font-size="14.00">id: IDReader/infer.conf</text>
<text text-anchor="start" x="553" y="-1362.51" font-family="Times New Roman,serif" font-size="14.00">type: visionflow::confs::SegmentationInferenceConf</text>
<text text-anchor="start" x="553" y="-1347.51" font-family="Times New Roman,serif" font-size="14.00">update: 1970&#45;01&#45;01 00:00:00.0000000</text>
<text text-anchor="start" x="553" y="-1332.51" font-family="Times New Roman,serif" font-size="14.00">docs: Configurator to config the segmentation </text>
<text text-anchor="start" x="553" y="-1317.51" font-family="Times New Roman,serif" font-size="14.00">inference parameters.</text>
</g>
<!-- IDReader/infer.args -->
<g id="node22" class="node">
<title>IDReader/infer.args</title>
<polygon fill="pink" stroke="red" points="880,-1226.52 540,-1226.52 540,-1173.52 880,-1173.52 880,-1226.52"/>
<text text-anchor="start" x="548" y="-1211.32" font-family="Times New Roman,serif" font-size="14.00">id: IDReader/infer.args</text>
<text text-anchor="start" x="548" y="-1196.32" font-family="Times New Roman,serif" font-size="14.00">type: visionflow::param::SegmentationInferenceParameters</text>
<text text-anchor="start" x="548" y="-1181.32" font-family="Times New Roman,serif" font-size="14.00">update: 1970&#45;01&#45;01 00:00:00.0000000</text>
</g>
<!-- IDReader/infer.conf&#45;&gt;IDReader/infer.args -->
<g id="edge18" class="edge">
<title>IDReader/infer.conf&#45;&gt;IDReader/infer.args</title>
<path fill="none" stroke="black" d="M702.03,-1292.53C703.66,-1273.83 705.42,-1253.63 706.87,-1236.98"/>
<polygon fill="black" stroke="black" points="710.39,-1236.87 707.77,-1226.61 703.42,-1236.26 710.39,-1236.87"/>
</g>
<!-- IDReader/model.conf -->
<g id="node10" class="node">
<title>IDReader/model.conf</title>
<ellipse fill="pink" stroke="red" cx="265" cy="-1593.59" rx="248.8" ry="58.88"/>
<text text-anchor="start" x="97" y="-1619.89" font-family="Times New Roman,serif" font-size="14.00">id: IDReader/model.conf</text>
<text text-anchor="start" x="97" y="-1604.89" font-family="Times New Roman,serif" font-size="14.00">type: visionflow::confs::IDReaderLocationModelParamConf</text>
<text text-anchor="start" x="97" y="-1589.89" font-family="Times New Roman,serif" font-size="14.00">update: 1970&#45;01&#45;01 00:00:00.0000000</text>
<text text-anchor="start" x="97" y="-1574.89" font-family="Times New Roman,serif" font-size="14.00">docs: Configurator to config the IDReader </text>
<text text-anchor="start" x="97" y="-1559.89" font-family="Times New Roman,serif" font-size="14.00">location model parameters.</text>
</g>
<!-- IDReader/model.args -->
<g id="node24" class="node">
<title>IDReader/model.args</title>
<polygon fill="pink" stroke="red" points="428.5,-1498.9 75.5,-1498.9 75.5,-1445.9 428.5,-1445.9 428.5,-1498.9"/>
<text text-anchor="start" x="83.5" y="-1483.7" font-family="Times New Roman,serif" font-size="14.00">id: IDReader/model.args</text>
<text text-anchor="start" x="83.5" y="-1468.7" font-family="Times New Roman,serif" font-size="14.00">type: visionflow::param::IDReaderLocationModelParameters</text>
<text text-anchor="start" x="83.5" y="-1453.7" font-family="Times New Roman,serif" font-size="14.00">update: 1970&#45;01&#45;01 00:00:00.0000000</text>
</g>
<!-- IDReader/model.conf&#45;&gt;IDReader/model.args -->
<g id="edge21" class="edge">
<title>IDReader/model.conf&#45;&gt;IDReader/model.args</title>
<path fill="none" stroke="black" d="M258.69,-1534.74C257.74,-1526 256.78,-1517.2 255.9,-1509.11"/>
<polygon fill="black" stroke="black" points="259.35,-1508.51 254.79,-1498.95 252.39,-1509.27 259.35,-1508.51"/>
</g>
<!-- IDReader/model_generator -->
<g id="node11" class="node">
<title>IDReader/model_generator</title>
<ellipse fill="pink" stroke="red" cx="240" cy="-1351.21" rx="224.31" ry="48.17"/>
<text text-anchor="start" x="89.5" y="-1370.01" font-family="Times New Roman,serif" font-size="14.00">id: IDReader/model_generator</text>
<text text-anchor="start" x="89.5" y="-1355.01" font-family="Times New Roman,serif" font-size="14.00">type: visionflow::confs::IDReaderLocationModelConf</text>
<text text-anchor="start" x="89.5" y="-1340.01" font-family="Times New Roman,serif" font-size="14.00">update: 1970&#45;01&#45;01 00:00:00.0000000</text>
<text text-anchor="start" x="89.5" y="-1325.01" font-family="Times New Roman,serif" font-size="14.00">docs: IDReader location model configurator.</text>
</g>
<!-- IDReader/model -->
<g id="node23" class="node">
<title>IDReader/model</title>
<polygon fill="pink" stroke="red" points="430.5,-1241.52 205.5,-1241.52 205.5,-1158.52 430.5,-1158.52 430.5,-1241.52"/>
<text text-anchor="start" x="213.5" y="-1226.32" font-family="Times New Roman,serif" font-size="14.00">id: IDReader/model</text>
<text text-anchor="start" x="213.5" y="-1211.32" font-family="Times New Roman,serif" font-size="14.00">type: visionflow::param::BinaryPacks</text>
<text text-anchor="start" x="213.5" y="-1196.32" font-family="Times New Roman,serif" font-size="14.00">update: 1970&#45;01&#45;01 00:00:00.0000000</text>
<text text-anchor="start" x="213.5" y="-1181.32" font-family="Times New Roman,serif" font-size="14.00">docs: A container to manage list of </text>
<text text-anchor="start" x="213.5" y="-1166.32" font-family="Times New Roman,serif" font-size="14.00">binary data.</text>
</g>
<!-- IDReader/model_generator&#45;&gt;IDReader/model -->
<g id="edge22" class="edge">
<title>IDReader/model_generator&#45;&gt;IDReader/model</title>
<path fill="none" stroke="black" d="M264.68,-1303C273.34,-1286.44 283.1,-1267.78 291.87,-1250.99"/>
<polygon fill="black" stroke="black" points="295.1,-1252.37 296.63,-1241.88 288.9,-1249.12 295.1,-1252.37"/>
</g>
<!-- IDReader/feature_map&#45;&gt;IDReader/featmap_filter -->
<g id="edge9" class="edge">
<title>IDReader/feature_map&#45;&gt;IDReader/featmap_filter</title>
<path fill="none" stroke="black" d="M724,-855.77C724,-847.59 724,-838.96 724,-830.39"/>
<polygon fill="black" stroke="black" points="727.5,-830.38 724,-820.38 720.5,-830.39 727.5,-830.38"/>
</g>
<!-- IDReader/filter_pred&#45;&gt;IDReader/decoder -->
<g id="edge13" class="edge">
<title>IDReader/filter_pred&#45;&gt;IDReader/decoder</title>
<path fill="none" stroke="black" d="M904.79,-290.03C941.8,-276.69 982.96,-261.86 1020.13,-248.47"/>
<polygon fill="black" stroke="black" points="1021.77,-251.6 1029.99,-244.92 1019.39,-245.02 1021.77,-251.6"/>
</g>
<!-- IDReader/raw_pred&#45;&gt;IDReader/filter -->
<g id="edge23" class="edge">
<title>IDReader/raw_pred&#45;&gt;IDReader/filter</title>
<path fill="none" stroke="black" d="M742.22,-583.54C743.06,-575.46 743.96,-566.72 744.88,-557.86"/>
<polygon fill="black" stroke="black" points="748.37,-558.14 745.92,-547.83 741.41,-557.42 748.37,-558.14"/>
</g>
<!-- IDReader/image -->
<g id="node15" class="node">
<title>IDReader/image</title>
<ellipse fill="lightblue" stroke="blue" cx="1372" cy="-1200.02" rx="1.8" ry="1.8"/>
</g>
<!-- IDReader/image&#45;&gt;IDReader/decoder -->
<g id="edge14" class="edge">
<title>IDReader/image&#45;&gt;IDReader/decoder</title>
<path fill="none" stroke="black" d="M1371.96,-1197.97C1371.45,-1183.84 1366,-1030.23 1366,-906.14 1366,-906.14 1366,-906.14 1366,-477.46 1366,-389.49 1359.95,-356.35 1302,-290.17 1287.75,-273.9 1269.58,-260.46 1250.49,-249.49"/>
<polygon fill="black" stroke="black" points="1252.12,-246.39 1241.67,-244.62 1248.73,-252.52 1252.12,-246.39"/>
</g>
<!-- IDReader/image&#45;&gt;IDReader/infer -->
<g id="edge15" class="edge">
<title>IDReader/image&#45;&gt;IDReader/infer</title>
<path fill="none" stroke="black" d="M1372.18,-1198.05C1373.23,-1191.94 1378.03,-1158.66 1361,-1143.52 1322.6,-1109.39 950.38,-1117.59 900,-1107.52 878.3,-1103.18 855.55,-1097.01 833.88,-1090.3"/>
<polygon fill="black" stroke="black" points="834.93,-1086.96 824.34,-1087.29 832.82,-1093.63 834.93,-1086.96"/>
</g>
<!-- IDReader/views -->
<g id="node16" class="node">
<title>IDReader/views</title>
<ellipse fill="lightblue" stroke="blue" cx="1350" cy="-1200.02" rx="1.8" ry="1.8"/>
</g>
<!-- IDReader/views&#45;&gt;IDReader/infer -->
<g id="edge24" class="edge">
<title>IDReader/views&#45;&gt;IDReader/infer</title>
<path fill="none" stroke="black" d="M1350.28,-1198.06C1351.95,-1192.04 1360.11,-1159.2 1344,-1143.52 1308.54,-1108.99 948.52,-1117.3 900,-1107.52 878.54,-1103.2 856.05,-1097.09 834.59,-1090.46"/>
<polygon fill="black" stroke="black" points="835.4,-1087.05 824.81,-1087.38 833.3,-1093.72 835.4,-1087.05"/>
</g>
<!-- IDReader/batch_size&#45;&gt;IDReader/infer -->
<g id="edge1" class="edge">
<title>IDReader/batch_size&#45;&gt;IDReader/infer</title>
<path fill="none" stroke="black" d="M956.33,-1145.58C913.98,-1128.13 867.55,-1108.99 827.4,-1092.44"/>
<polygon fill="black" stroke="black" points="828.71,-1089.2 818.13,-1088.62 826.05,-1095.67 828.71,-1089.2"/>
</g>
<!-- IDReader/decoder.args&#45;&gt;IDReader/decoder -->
<g id="edge4" class="edge">
<title>IDReader/decoder.args&#45;&gt;IDReader/decoder</title>
<path fill="none" stroke="black" d="M1135,-305.06C1135,-293.28 1135,-278.8 1135,-264.62"/>
<polygon fill="black" stroke="black" points="1138.5,-264.38 1135,-254.38 1131.5,-264.38 1138.5,-264.38"/>
</g>
<!-- IDReader/featmap_filter.args&#45;&gt;IDReader/featmap_filter -->
<g id="edge7" class="edge">
<title>IDReader/featmap_filter.args&#45;&gt;IDReader/featmap_filter</title>
<path fill="none" stroke="black" d="M960.15,-863.54C925.54,-848.72 885.86,-831.74 849.03,-815.97"/>
<polygon fill="black" stroke="black" points="850.31,-812.71 839.74,-811.99 847.55,-819.14 850.31,-812.71"/>
</g>
<!-- IDReader/filter.args&#45;&gt;IDReader/filter -->
<g id="edge11" class="edge">
<title>IDReader/filter.args&#45;&gt;IDReader/filter</title>
<path fill="none" stroke="black" d="M1025.59,-598.71C984.26,-580.63 927.34,-555.73 876.19,-533.35"/>
<polygon fill="black" stroke="black" points="877.27,-530.01 866.71,-529.21 874.47,-536.42 877.27,-530.01"/>
</g>
<!-- IDReader/infer.args&#45;&gt;IDReader/infer -->
<g id="edge17" class="edge">
<title>IDReader/infer.args&#45;&gt;IDReader/infer</title>
<path fill="none" stroke="black" d="M712.41,-1173.37C714.12,-1155.16 716.48,-1129.97 718.63,-1107.09"/>
<polygon fill="black" stroke="black" points="722.11,-1107.39 719.56,-1097.11 715.14,-1106.74 722.11,-1107.39"/>
</g>
<!-- IDReader/model&#45;&gt;IDReader/infer -->
<g id="edge19" class="edge">
<title>IDReader/model&#45;&gt;IDReader/infer</title>
<path fill="none" stroke="black" d="M428.41,-1158.45C485.79,-1137.36 555.74,-1111.66 613.19,-1090.55"/>
<polygon fill="black" stroke="black" points="614.48,-1093.8 622.66,-1087.07 612.07,-1087.23 614.48,-1093.8"/>
</g>
<!-- IDReader/model.args&#45;&gt;IDReader/model_generator -->
<g id="edge20" class="edge">
<title>IDReader/model.args&#45;&gt;IDReader/model_generator</title>
<path fill="none" stroke="black" d="M249.43,-1445.83C248.35,-1435.14 247.05,-1422.26 245.77,-1409.52"/>
<polygon fill="black" stroke="black" points="249.23,-1408.97 244.75,-1399.37 242.27,-1409.67 249.23,-1408.97"/>
</g>
</g>
</svg>
