<?xml version="1.0" encoding="UTF-8" standalone="no"?>
<!DOCTYPE svg PUBLIC "-//W3C//DTD SVG 1.1//EN"
 "http://www.w3.org/Graphics/SVG/1.1/DTD/svg11.dtd">
<!-- Generated by graphviz version 6.0.1 (20220911.1526)
 -->
<!-- Title: OnlyTool: RegionCalculation Pages: 1 -->
<svg width="1273pt" height="580pt"
 viewBox="0.00 0.00 1272.68 579.76" xmlns="http://www.w3.org/2000/svg" xmlns:xlink="http://www.w3.org/1999/xlink">
<g id="graph0" class="graph" transform="scale(1 1) rotate(0) translate(4 575.76)">
<title>OnlyTool: RegionCalculation</title>
<polygon fill="white" stroke="none" points="-4,4 -4,-575.76 1268.68,-575.76 1268.68,4 -4,4"/>
<text text-anchor="middle" x="632.34" y="-7.8" font-family="Times New Roman,serif" font-size="14.00">OnlyTool: RegionCalculation</text>
<g id="clust1" class="cluster">
<title>cluster_RegionCalculation</title>
<polygon fill="none" stroke="black" points="8,-31 8,-563.76 791,-563.76 791,-31 8,-31"/>
<text text-anchor="middle" x="399.5" y="-548.56" font-family="Times New Roman,serif" font-size="14.00">RegionCalculation</text>
</g>
<!-- RegionCalculation/calculator -->
<g id="node1" class="node">
<title>RegionCalculation/calculator</title>
<ellipse fill="lightblue" stroke="blue" cx="586" cy="-216.69" rx="173.48" ry="58.88"/>
<text text-anchor="start" x="471.5" y="-242.99" font-family="Times New Roman,serif" font-size="14.00">id: RegionCalculation/calculator</text>
<text text-anchor="start" x="471.5" y="-227.99" font-family="Times New Roman,serif" font-size="14.00">type: visionflow::opers::RegionCalculator</text>
<text text-anchor="start" x="471.5" y="-212.99" font-family="Times New Roman,serif" font-size="14.00">update: 1970&#45;01&#45;01 00:00:00.0000000</text>
<text text-anchor="start" x="471.5" y="-197.99" font-family="Times New Roman,serif" font-size="14.00">docs: Region Calculator operator for </text>
<text text-anchor="start" x="471.5" y="-182.99" font-family="Times New Roman,serif" font-size="14.00">RegionCalculation tool.</text>
</g>
<!-- RegionCalculation/pred -->
<g id="node5" class="node">
<title>RegionCalculation/pred</title>
<polygon fill="none" stroke="blue" stroke-dasharray="5,2" points="714.5,-122 457.5,-122 457.5,-39 714.5,-39 714.5,-122"/>
<text text-anchor="start" x="465.5" y="-106.8" font-family="Times New Roman,serif" font-size="14.00">id: RegionCalculation/pred</text>
<text text-anchor="start" x="465.5" y="-91.8" font-family="Times New Roman,serif" font-size="14.00">type: visionflow::props::PolygonRegionList</text>
<text text-anchor="start" x="465.5" y="-76.8" font-family="Times New Roman,serif" font-size="14.00">update: 1970&#45;01&#45;01 00:00:00.0000000</text>
<text text-anchor="start" x="465.5" y="-61.8" font-family="Times New Roman,serif" font-size="14.00">docs: List structure to manage polygon </text>
<text text-anchor="start" x="465.5" y="-46.8" font-family="Times New Roman,serif" font-size="14.00">regions.</text>
</g>
<!-- RegionCalculation/calculator&#45;&gt;RegionCalculation/pred -->
<g id="edge1" class="edge">
<title>RegionCalculation/calculator&#45;&gt;RegionCalculation/pred</title>
<path fill="none" stroke="black" d="M586,-157.61C586,-149.25 586,-140.69 586,-132.47"/>
<polygon fill="black" stroke="black" points="589.5,-132.29 586,-122.29 582.5,-132.29 589.5,-132.29"/>
</g>
<!-- RegionCalculation/calculator.conf -->
<g id="node2" class="node">
<title>RegionCalculation/calculator.conf</title>
<ellipse fill="pink" stroke="red" cx="586" cy="-474.07" rx="197.07" ry="58.88"/>
<text text-anchor="start" x="454.5" y="-500.37" font-family="Times New Roman,serif" font-size="14.00">id: RegionCalculation/calculator.conf</text>
<text text-anchor="start" x="454.5" y="-485.37" font-family="Times New Roman,serif" font-size="14.00">type: visionflow::confs::RegionCalculationConf</text>
<text text-anchor="start" x="454.5" y="-470.37" font-family="Times New Roman,serif" font-size="14.00">update: 1970&#45;01&#45;01 00:00:00.0000000</text>
<text text-anchor="start" x="454.5" y="-455.37" font-family="Times New Roman,serif" font-size="14.00">docs: Configurator to config the region </text>
<text text-anchor="start" x="454.5" y="-440.37" font-family="Times New Roman,serif" font-size="14.00">calculator parameter.</text>
</g>
<!-- RegionCalculation/calculator.args -->
<g id="node6" class="node">
<title>RegionCalculation/calculator.args</title>
<polygon fill="pink" stroke="red" points="740.5,-371.88 431.5,-371.88 431.5,-318.88 740.5,-318.88 740.5,-371.88"/>
<text text-anchor="start" x="439.5" y="-356.68" font-family="Times New Roman,serif" font-size="14.00">id: RegionCalculation/calculator.args</text>
<text text-anchor="start" x="439.5" y="-341.68" font-family="Times New Roman,serif" font-size="14.00">type: visionflow::param::RegionCalculationParameter</text>
<text text-anchor="start" x="439.5" y="-326.68" font-family="Times New Roman,serif" font-size="14.00">update: 1970&#45;01&#45;01 00:00:00.0000000</text>
</g>
<!-- RegionCalculation/calculator.conf&#45;&gt;RegionCalculation/calculator.args -->
<g id="edge3" class="edge">
<title>RegionCalculation/calculator.conf&#45;&gt;RegionCalculation/calculator.args</title>
<path fill="none" stroke="black" d="M586,-415.29C586,-404.05 586,-392.58 586,-382.3"/>
<polygon fill="black" stroke="black" points="589.5,-382.08 586,-372.08 582.5,-382.08 589.5,-382.08"/>
</g>
<!-- RegionCalculation/label_classes.conf -->
<g id="node3" class="node">
<title>RegionCalculation/label_classes.conf</title>
<ellipse fill="pink" stroke="red" cx="193" cy="-474.07" rx="177.47" ry="58.88"/>
<text text-anchor="start" x="75.5" y="-500.37" font-family="Times New Roman,serif" font-size="14.00">id: RegionCalculation/label_classes.conf</text>
<text text-anchor="start" x="75.5" y="-485.37" font-family="Times New Roman,serif" font-size="14.00">type: visionflow::confs::LabelClassesConf</text>
<text text-anchor="start" x="75.5" y="-470.37" font-family="Times New Roman,serif" font-size="14.00">update: 1970&#45;01&#45;01 00:00:00.0000000</text>
<text text-anchor="start" x="75.5" y="-455.37" font-family="Times New Roman,serif" font-size="14.00">docs: Configurator class to generate </text>
<text text-anchor="start" x="75.5" y="-440.37" font-family="Times New Roman,serif" font-size="14.00">label classes parameter.</text>
</g>
<!-- RegionCalculation/classes -->
<g id="node7" class="node">
<title>RegionCalculation/classes</title>
<polygon fill="none" stroke="red" stroke-dasharray="5,2" points="366.5,-379.38 113.5,-379.38 113.5,-311.38 366.5,-311.38 366.5,-379.38"/>
<text text-anchor="start" x="121.5" y="-364.18" font-family="Times New Roman,serif" font-size="14.00">id: RegionCalculation/classes</text>
<text text-anchor="start" x="121.5" y="-349.18" font-family="Times New Roman,serif" font-size="14.00">type: visionflow::param::LabelClasses</text>
<text text-anchor="start" x="121.5" y="-334.18" font-family="Times New Roman,serif" font-size="14.00">update: 1970&#45;01&#45;01 00:00:00.0000000</text>
<text text-anchor="start" x="121.5" y="-319.18" font-family="Times New Roman,serif" font-size="14.00">docs: A container to manage label classes.</text>
</g>
<!-- RegionCalculation/label_classes.conf&#45;&gt;RegionCalculation/classes -->
<g id="edge5" class="edge">
<title>RegionCalculation/label_classes.conf&#45;&gt;RegionCalculation/classes</title>
<path fill="none" stroke="black" d="M214.3,-415.66C217.58,-406.81 220.92,-397.81 224.06,-389.35"/>
<polygon fill="black" stroke="black" points="227.44,-390.3 227.64,-379.71 220.88,-387.87 227.44,-390.3"/>
</g>
<!-- RegionCalculation/properties -->
<g id="node4" class="node">
<title>RegionCalculation/properties</title>
<polygon fill="lightblue" stroke="blue" points="1032,-322.38 1264.86,-356.88 799.14,-356.88 1032,-322.38"/>
<text text-anchor="middle" x="1032" y="-341.68" font-family="Times New Roman,serif" font-size="14.00">RegionCalculation/properties</text>
</g>
<!-- RegionCalculation/properties&#45;&gt;RegionCalculation/calculator -->
<g id="edge6" class="edge">
<title>RegionCalculation/properties&#45;&gt;RegionCalculation/calculator</title>
<path fill="none" stroke="black" d="M980.84,-329.85C919.42,-312.4 813.87,-282.42 727.35,-257.84"/>
<polygon fill="black" stroke="black" points="728.27,-254.47 717.7,-255.1 726.36,-261.2 728.27,-254.47"/>
</g>
<!-- RegionCalculation/calculator.args&#45;&gt;RegionCalculation/calculator -->
<g id="edge2" class="edge">
<title>RegionCalculation/calculator.args&#45;&gt;RegionCalculation/calculator</title>
<path fill="none" stroke="black" d="M586,-318.74C586,-309.07 586,-297.55 586,-285.81"/>
<polygon fill="black" stroke="black" points="589.5,-285.48 586,-275.48 582.5,-285.48 589.5,-285.48"/>
</g>
<!-- RegionCalculation/classes&#45;&gt;RegionCalculation/calculator -->
<g id="edge4" class="edge">
<title>RegionCalculation/classes&#45;&gt;RegionCalculation/calculator</title>
<path fill="none" stroke="black" d="M330.46,-311.26C370.01,-296.78 417.09,-279.54 459.99,-263.83"/>
<polygon fill="black" stroke="black" points="461.46,-267.02 469.65,-260.29 459.06,-260.44 461.46,-267.02"/>
</g>
</g>
</svg>
