<?xml version="1.0" encoding="UTF-8" standalone="no"?>
<!DOCTYPE svg PUBLIC "-//W3C//DTD SVG 1.1//EN"
 "http://www.w3.org/Graphics/SVG/1.1/DTD/svg11.dtd">
<!-- Generated by graphviz version 6.0.1 (20220911.1526)
 -->
<!-- Title: OnlyTool: Gauge Pages: 1 -->
<svg width="404pt" height="559pt"
 viewBox="0.00 0.00 403.80 558.55" xmlns="http://www.w3.org/2000/svg" xmlns:xlink="http://www.w3.org/1999/xlink">
<g id="graph0" class="graph" transform="scale(1 1) rotate(0) translate(4 554.55)">
<title>OnlyTool: Gauge</title>
<polygon fill="white" stroke="none" points="-4,4 -4,-554.55 399.8,-554.55 399.8,4 -4,4"/>
<text text-anchor="middle" x="197.9" y="-7.8" font-family="Times New Roman,serif" font-size="14.00">OnlyTool: Gauge</text>
<g id="clust1" class="cluster">
<title>cluster_Gauge</title>
<polygon fill="none" stroke="black" points="8,-31 8,-542.55 362,-542.55 362,-31 8,-31"/>
<text text-anchor="middle" x="185" y="-527.35" font-family="Times New Roman,serif" font-size="14.00">Gauge</text>
</g>
<!-- Gauge/infer -->
<g id="node1" class="node">
<title>Gauge/infer</title>
<ellipse fill="lightblue" stroke="blue" cx="195" cy="-206.08" rx="159.2" ry="48.17"/>
<text text-anchor="start" x="90.5" y="-224.88" font-family="Times New Roman,serif" font-size="14.00">id: Gauge/infer</text>
<text text-anchor="start" x="90.5" y="-209.88" font-family="Times New Roman,serif" font-size="14.00">type: visionflow::opers::GaugeInfer</text>
<text text-anchor="start" x="90.5" y="-194.88" font-family="Times New Roman,serif" font-size="14.00">update: 1970&#45;01&#45;01 00:00:00.0000000</text>
<text text-anchor="start" x="90.5" y="-179.88" font-family="Times New Roman,serif" font-size="14.00">docs: Gauge tool inference operator.</text>
</g>
<!-- Gauge/pred -->
<g id="node5" class="node">
<title>Gauge/pred</title>
<polygon fill="none" stroke="blue" stroke-dasharray="5,2" points="318.5,-122 71.5,-122 71.5,-39 318.5,-39 318.5,-122"/>
<text text-anchor="start" x="79.5" y="-106.8" font-family="Times New Roman,serif" font-size="14.00">id: Gauge/pred</text>
<text text-anchor="start" x="79.5" y="-91.8" font-family="Times New Roman,serif" font-size="14.00">type: visionflow::props::GaugeRegionList</text>
<text text-anchor="start" x="79.5" y="-76.8" font-family="Times New Roman,serif" font-size="14.00">update: 1970&#45;01&#45;01 00:00:00.0000000</text>
<text text-anchor="start" x="79.5" y="-61.8" font-family="Times New Roman,serif" font-size="14.00">docs: List structure to manage polygon </text>
<text text-anchor="start" x="79.5" y="-46.8" font-family="Times New Roman,serif" font-size="14.00">regions.</text>
</g>
<!-- Gauge/infer&#45;&gt;Gauge/pred -->
<g id="edge2" class="edge">
<title>Gauge/infer&#45;&gt;Gauge/pred</title>
<path fill="none" stroke="black" d="M195,-157.66C195,-149.33 195,-140.64 195,-132.23"/>
<polygon fill="black" stroke="black" points="198.5,-132.16 195,-122.16 191.5,-132.16 198.5,-132.16"/>
</g>
<!-- Gauge/infer.conf -->
<g id="node2" class="node">
<title>Gauge/infer.conf</title>
<ellipse fill="pink" stroke="red" cx="185" cy="-452.86" rx="169" ry="58.88"/>
<text text-anchor="start" x="73.5" y="-479.16" font-family="Times New Roman,serif" font-size="14.00">id: Gauge/infer.conf</text>
<text text-anchor="start" x="73.5" y="-464.16" font-family="Times New Roman,serif" font-size="14.00">type: visionflow::confs::GaugeInferConf</text>
<text text-anchor="start" x="73.5" y="-449.16" font-family="Times New Roman,serif" font-size="14.00">update: 1970&#45;01&#45;01 00:00:00.0000000</text>
<text text-anchor="start" x="73.5" y="-434.16" font-family="Times New Roman,serif" font-size="14.00">docs: Configurator to set Gauge tool </text>
<text text-anchor="start" x="73.5" y="-419.16" font-family="Times New Roman,serif" font-size="14.00">parameters.</text>
</g>
<!-- Gauge/infer.args -->
<g id="node6" class="node">
<title>Gauge/infer.args</title>
<polygon fill="pink" stroke="red" points="314.5,-358.17 65.5,-358.17 65.5,-290.17 314.5,-290.17 314.5,-358.17"/>
<text text-anchor="start" x="73.5" y="-342.97" font-family="Times New Roman,serif" font-size="14.00">id: Gauge/infer.args</text>
<text text-anchor="start" x="73.5" y="-327.97" font-family="Times New Roman,serif" font-size="14.00">type: visionflow::param::GaugeParameters</text>
<text text-anchor="start" x="73.5" y="-312.97" font-family="Times New Roman,serif" font-size="14.00">update: 1970&#45;01&#45;01 00:00:00.0000000</text>
<text text-anchor="start" x="73.5" y="-297.97" font-family="Times New Roman,serif" font-size="14.00">docs: Parameter for gauge tool.</text>
</g>
<!-- Gauge/infer.conf&#45;&gt;Gauge/infer.args -->
<g id="edge4" class="edge">
<title>Gauge/infer.conf&#45;&gt;Gauge/infer.args</title>
<path fill="none" stroke="black" d="M187.28,-394.07C187.62,-385.45 187.97,-376.68 188.29,-368.42"/>
<polygon fill="black" stroke="black" points="191.8,-368.42 188.69,-358.28 184.8,-368.14 191.8,-368.42"/>
</g>
<!-- Gauge/image -->
<g id="node3" class="node">
<title>Gauge/image</title>
<ellipse fill="lightblue" stroke="blue" cx="372" cy="-324.17" rx="1.8" ry="1.8"/>
</g>
<!-- Gauge/image&#45;&gt;Gauge/infer -->
<g id="edge1" class="edge">
<title>Gauge/image&#45;&gt;Gauge/infer</title>
<path fill="none" stroke="black" d="M372.11,-322.24C372.57,-318.03 373.89,-300.56 366,-290.17 352.18,-271.96 333.33,-257.52 313.17,-246.15"/>
<polygon fill="black" stroke="black" points="314.61,-242.95 304.15,-241.3 311.3,-249.12 314.61,-242.95"/>
</g>
<!-- Gauge/views -->
<g id="node4" class="node">
<title>Gauge/views</title>
<ellipse fill="lightblue" stroke="blue" cx="394" cy="-324.17" rx="1.8" ry="1.8"/>
</g>
<!-- Gauge/views&#45;&gt;Gauge/infer -->
<g id="edge5" class="edge">
<title>Gauge/views&#45;&gt;Gauge/infer</title>
<path fill="none" stroke="black" d="M393.95,-322.22C393.7,-317.93 392.1,-300.17 383,-290.17 365.33,-270.74 342.28,-255.62 318.4,-243.93"/>
<polygon fill="black" stroke="black" points="319.76,-240.7 309.22,-239.61 316.78,-247.04 319.76,-240.7"/>
</g>
<!-- Gauge/infer.args&#45;&gt;Gauge/infer -->
<g id="edge3" class="edge">
<title>Gauge/infer.args&#45;&gt;Gauge/infer</title>
<path fill="none" stroke="black" d="M191.43,-289.9C191.78,-281.91 192.15,-273.14 192.53,-264.4"/>
<polygon fill="black" stroke="black" points="196.04,-264.33 192.97,-254.19 189.04,-264.03 196.04,-264.33"/>
</g>
</g>
</svg>
