<?xml version="1.0" encoding="UTF-8" standalone="no"?>
<!DOCTYPE svg PUBLIC "-//W3C//DTD SVG 1.1//EN"
 "http://www.w3.org/Graphics/SVG/1.1/DTD/svg11.dtd">
<!-- Generated by graphviz version 6.0.1 (20220911.1526)
 -->
<!-- Title: OnlyTool: Integration Pages: 1 -->
<svg width="802pt" height="550pt"
 viewBox="0.00 0.00 801.78 549.76" xmlns="http://www.w3.org/2000/svg" xmlns:xlink="http://www.w3.org/1999/xlink">
<g id="graph0" class="graph" transform="scale(1 1) rotate(0) translate(4 545.76)">
<title>OnlyTool: Integration</title>
<polygon fill="white" stroke="none" points="-4,4 -4,-545.76 797.78,-545.76 797.78,4 -4,4"/>
<text text-anchor="middle" x="396.89" y="-7.8" font-family="Times New Roman,serif" font-size="14.00">OnlyTool: Integration</text>
<g id="clust1" class="cluster">
<title>cluster_Integration</title>
<polygon fill="none" stroke="black" points="8,-31 8,-533.76 432,-533.76 432,-31 8,-31"/>
<text text-anchor="middle" x="220" y="-518.56" font-family="Times New Roman,serif" font-size="14.00">Integration</text>
</g>
<!-- Integration/classifier -->
<g id="node1" class="node">
<title>Integration/classifier</title>
<ellipse fill="lightblue" stroke="blue" cx="235" cy="-201.69" rx="183.7" ry="58.88"/>
<text text-anchor="start" x="113" y="-227.99" font-family="Times New Roman,serif" font-size="14.00">id: Integration/classifier</text>
<text text-anchor="start" x="113" y="-212.99" font-family="Times New Roman,serif" font-size="14.00">type: visionflow::opers::IntegrationClassifier</text>
<text text-anchor="start" x="113" y="-197.99" font-family="Times New Roman,serif" font-size="14.00">update: 1970&#45;01&#45;01 00:00:00.0000000</text>
<text text-anchor="start" x="113" y="-182.99" font-family="Times New Roman,serif" font-size="14.00">docs: Classifier operator for integration </text>
<text text-anchor="start" x="113" y="-167.99" font-family="Times New Roman,serif" font-size="14.00">tool.</text>
</g>
<!-- Integration/integration_class -->
<g id="node4" class="node">
<title>Integration/integration_class</title>
<polygon fill="none" stroke="blue" stroke-dasharray="5,2" points="351,-107 119,-107 119,-39 351,-39 351,-107"/>
<text text-anchor="start" x="127" y="-91.8" font-family="Times New Roman,serif" font-size="14.00">id: Integration/integration_class</text>
<text text-anchor="start" x="127" y="-76.8" font-family="Times New Roman,serif" font-size="14.00">type: visionflow::props::StringMessage</text>
<text text-anchor="start" x="127" y="-61.8" font-family="Times New Roman,serif" font-size="14.00">update: 1970&#45;01&#45;01 00:00:00.0000000</text>
<text text-anchor="start" x="127" y="-46.8" font-family="Times New Roman,serif" font-size="14.00">docs: Properties for string message.</text>
</g>
<!-- Integration/classifier&#45;&gt;Integration/integration_class -->
<g id="edge1" class="edge">
<title>Integration/classifier&#45;&gt;Integration/integration_class</title>
<path fill="none" stroke="black" d="M235,-142.91C235,-134.28 235,-125.51 235,-117.26"/>
<polygon fill="black" stroke="black" points="238.5,-117.12 235,-107.12 231.5,-117.12 238.5,-117.12"/>
</g>
<!-- Integration/classifier.conf -->
<g id="node2" class="node">
<title>Integration/classifier.conf</title>
<ellipse fill="pink" stroke="red" cx="220" cy="-444.07" rx="203.79" ry="58.88"/>
<text text-anchor="start" x="84" y="-470.37" font-family="Times New Roman,serif" font-size="14.00">id: Integration/classifier.conf</text>
<text text-anchor="start" x="84" y="-455.37" font-family="Times New Roman,serif" font-size="14.00">type: visionflow::confs::IntegrationClassifierConf</text>
<text text-anchor="start" x="84" y="-440.37" font-family="Times New Roman,serif" font-size="14.00">update: 1970&#45;01&#45;01 00:00:00.0000000</text>
<text text-anchor="start" x="84" y="-425.37" font-family="Times New Roman,serif" font-size="14.00">docs: Configurator to config the integration </text>
<text text-anchor="start" x="84" y="-410.37" font-family="Times New Roman,serif" font-size="14.00">classifier.</text>
</g>
<!-- Integration/classifier.args -->
<g id="node5" class="node">
<title>Integration/classifier.args</title>
<polygon fill="pink" stroke="red" points="380.5,-349.38 69.5,-349.38 69.5,-296.38 380.5,-296.38 380.5,-349.38"/>
<text text-anchor="start" x="77.5" y="-334.18" font-family="Times New Roman,serif" font-size="14.00">id: Integration/classifier.args</text>
<text text-anchor="start" x="77.5" y="-319.18" font-family="Times New Roman,serif" font-size="14.00">type: visionflow::param::IntegrationClassifyParameter</text>
<text text-anchor="start" x="77.5" y="-304.18" font-family="Times New Roman,serif" font-size="14.00">update: 1970&#45;01&#45;01 00:00:00.0000000</text>
</g>
<!-- Integration/classifier.conf&#45;&gt;Integration/classifier.args -->
<g id="edge3" class="edge">
<title>Integration/classifier.conf&#45;&gt;Integration/classifier.args</title>
<path fill="none" stroke="black" d="M222.43,-385.22C222.79,-376.48 223.16,-367.68 223.5,-359.59"/>
<polygon fill="black" stroke="black" points="227.01,-359.57 223.93,-349.43 220.01,-359.27 227.01,-359.57"/>
</g>
<!-- Integration/properties -->
<g id="node3" class="node">
<title>Integration/properties</title>
<polygon fill="lightblue" stroke="blue" points="617,-299.88 793.57,-334.38 440.43,-334.38 617,-299.88"/>
<text text-anchor="middle" x="617" y="-319.18" font-family="Times New Roman,serif" font-size="14.00">Integration/properties</text>
</g>
<!-- Integration/properties&#45;&gt;Integration/classifier -->
<g id="edge4" class="edge">
<title>Integration/properties&#45;&gt;Integration/classifier</title>
<path fill="none" stroke="black" d="M573.55,-308.32C525.37,-293.29 445.15,-268.26 374.89,-246.34"/>
<polygon fill="black" stroke="black" points="375.63,-242.9 365.04,-243.26 373.55,-249.58 375.63,-242.9"/>
</g>
<!-- Integration/classifier.args&#45;&gt;Integration/classifier -->
<g id="edge2" class="edge">
<title>Integration/classifier.args&#45;&gt;Integration/classifier</title>
<path fill="none" stroke="black" d="M227.15,-296.31C227.79,-288.57 228.54,-279.69 229.31,-270.54"/>
<polygon fill="black" stroke="black" points="232.8,-270.8 230.15,-260.55 225.82,-270.22 232.8,-270.8"/>
</g>
</g>
</svg>
