<?xml version="1.0" encoding="UTF-8" standalone="no"?>
<!DOCTYPE svg PUBLIC "-//W3C//DTD SVG 1.1//EN"
 "http://www.w3.org/Graphics/SVG/1.1/DTD/svg11.dtd">
<!-- Generated by graphviz version 6.0.1 (20220911.1526)
 -->
<!-- Title: OnlyTool: ViewTransformer Pages: 1 -->
<svg width="856pt" height="949pt"
 viewBox="0.00 0.00 855.60 949.42" xmlns="http://www.w3.org/2000/svg" xmlns:xlink="http://www.w3.org/1999/xlink">
<g id="graph0" class="graph" transform="scale(1 1) rotate(0) translate(4 945.42)">
<title>OnlyTool: ViewTransformer</title>
<polygon fill="white" stroke="none" points="-4,4 -4,-945.42 851.6,-945.42 851.6,4 -4,4"/>
<text text-anchor="middle" x="423.8" y="-7.8" font-family="Times New Roman,serif" font-size="14.00">OnlyTool: ViewTransformer</text>
<g id="clust1" class="cluster">
<title>cluster_ViewTransformer</title>
<polygon fill="none" stroke="black" points="11.8,-31 11.8,-933.42 813.8,-933.42 813.8,-31 11.8,-31"/>
<text text-anchor="middle" x="412.8" y="-918.22" font-family="Times New Roman,serif" font-size="14.00">ViewTransformer</text>
</g>
<!-- ViewTransformer/filter -->
<g id="node1" class="node">
<title>ViewTransformer/filter</title>
<ellipse fill="lightblue" stroke="blue" cx="615.8" cy="-601.35" rx="189.51" ry="58.88"/>
<text text-anchor="start" x="489.8" y="-627.65" font-family="Times New Roman,serif" font-size="14.00">id: ViewTransformer/filter</text>
<text text-anchor="start" x="489.8" y="-612.65" font-family="Times New Roman,serif" font-size="14.00">type: visionflow::opers::ViewFilter</text>
<text text-anchor="start" x="489.8" y="-597.65" font-family="Times New Roman,serif" font-size="14.00">update: 1970&#45;01&#45;01 00:00:00.0000000</text>
<text text-anchor="start" x="489.8" y="-582.65" font-family="Times New Roman,serif" font-size="14.00">docs: Region filter in each ViewTransformer </text>
<text text-anchor="start" x="489.8" y="-567.65" font-family="Times New Roman,serif" font-size="14.00">tool.</text>
</g>
<!-- ViewTransformer/filtered_regions -->
<g id="node5" class="node">
<title>ViewTransformer/filtered_regions</title>
<polygon fill="lightblue" stroke="blue" points="695.3,-506.66 438.3,-506.66 438.3,-423.66 695.3,-423.66 695.3,-506.66"/>
<text text-anchor="start" x="446.3" y="-491.46" font-family="Times New Roman,serif" font-size="14.00">id: ViewTransformer/filtered_regions</text>
<text text-anchor="start" x="446.3" y="-476.46" font-family="Times New Roman,serif" font-size="14.00">type: visionflow::props::PolygonRegionList</text>
<text text-anchor="start" x="446.3" y="-461.46" font-family="Times New Roman,serif" font-size="14.00">update: 1970&#45;01&#45;01 00:00:00.0000000</text>
<text text-anchor="start" x="446.3" y="-446.46" font-family="Times New Roman,serif" font-size="14.00">docs: List structure to manage polygon </text>
<text text-anchor="start" x="446.3" y="-431.46" font-family="Times New Roman,serif" font-size="14.00">regions.</text>
</g>
<!-- ViewTransformer/filter&#45;&gt;ViewTransformer/filtered_regions -->
<g id="edge1" class="edge">
<title>ViewTransformer/filter&#45;&gt;ViewTransformer/filtered_regions</title>
<path fill="none" stroke="black" d="M594.74,-542.66C591.53,-533.89 588.25,-524.89 585.11,-516.3"/>
<polygon fill="black" stroke="black" points="588.36,-514.99 581.64,-506.8 581.78,-517.39 588.36,-514.99"/>
</g>
<!-- ViewTransformer/transformer -->
<g id="node2" class="node">
<title>ViewTransformer/transformer</title>
<ellipse fill="lightblue" stroke="blue" cx="213.8" cy="-265.33" rx="174.81" ry="122.16"/>
<text text-anchor="start" x="98.3" y="-336.63" font-family="Times New Roman,serif" font-size="14.00">id: ViewTransformer/transformer</text>
<text text-anchor="start" x="98.3" y="-321.63" font-family="Times New Roman,serif" font-size="14.00">type: visionflow::opers::ViewTransformer</text>
<text text-anchor="start" x="98.3" y="-306.63" font-family="Times New Roman,serif" font-size="14.00">update: 1970&#45;01&#45;01 00:00:00.0000000</text>
<text text-anchor="start" x="98.3" y="-291.63" font-family="Times New Roman,serif" font-size="14.00">docs: Operator used to transform the </text>
<text text-anchor="start" x="98.3" y="-276.63" font-family="Times New Roman,serif" font-size="14.00">result of the previous tool&#39;s </text>
<text text-anchor="start" x="98.3" y="-261.63" font-family="Times New Roman,serif" font-size="14.00">detection output with translation, </text>
<text text-anchor="start" x="98.3" y="-246.63" font-family="Times New Roman,serif" font-size="14.00">scaling, rotation, masking and </text>
<text text-anchor="start" x="98.3" y="-231.63" font-family="Times New Roman,serif" font-size="14.00">other transformation parameters </text>
<text text-anchor="start" x="98.3" y="-216.63" font-family="Times New Roman,serif" font-size="14.00">to obtain new view windows that </text>
<text text-anchor="start" x="98.3" y="-201.63" font-family="Times New Roman,serif" font-size="14.00">can be used as input to the next </text>
<text text-anchor="start" x="98.3" y="-186.63" font-family="Times New Roman,serif" font-size="14.00">tool.</text>
</g>
<!-- ViewTransformer/transformed_views -->
<g id="node9" class="node">
<title>ViewTransformer/transformed_views</title>
<polygon fill="none" stroke="blue" stroke-dasharray="5,2" points="336.3,-107 91.3,-107 91.3,-39 336.3,-39 336.3,-107"/>
<text text-anchor="start" x="99.3" y="-91.8" font-family="Times New Roman,serif" font-size="14.00">id: ViewTransformer/transformed_views</text>
<text text-anchor="start" x="99.3" y="-76.8" font-family="Times New Roman,serif" font-size="14.00">type: visionflow::props::ViewList</text>
<text text-anchor="start" x="99.3" y="-61.8" font-family="Times New Roman,serif" font-size="14.00">update: 1970&#45;01&#45;01 00:00:00.0000000</text>
<text text-anchor="start" x="99.3" y="-46.8" font-family="Times New Roman,serif" font-size="14.00">docs: Property ViewList implementation.</text>
</g>
<!-- ViewTransformer/transformer&#45;&gt;ViewTransformer/transformed_views -->
<g id="edge8" class="edge">
<title>ViewTransformer/transformer&#45;&gt;ViewTransformer/transformed_views</title>
<path fill="none" stroke="black" d="M213.8,-142.98C213.8,-133.94 213.8,-125.23 213.8,-117.24"/>
<polygon fill="black" stroke="black" points="217.3,-117.16 213.8,-107.16 210.3,-117.16 217.3,-117.16"/>
</g>
<!-- ViewTransformer/filter.conf -->
<g id="node3" class="node">
<title>ViewTransformer/filter.conf</title>
<ellipse fill="pink" stroke="red" cx="615.8" cy="-843.73" rx="165.43" ry="58.88"/>
<text text-anchor="start" x="506.8" y="-870.03" font-family="Times New Roman,serif" font-size="14.00">id: ViewTransformer/filter.conf</text>
<text text-anchor="start" x="506.8" y="-855.03" font-family="Times New Roman,serif" font-size="14.00">type: visionflow::confs::ViewFilterConf</text>
<text text-anchor="start" x="506.8" y="-840.03" font-family="Times New Roman,serif" font-size="14.00">update: 1970&#45;01&#45;01 00:00:00.0000000</text>
<text text-anchor="start" x="506.8" y="-825.03" font-family="Times New Roman,serif" font-size="14.00">docs: Configurator to config the filter </text>
<text text-anchor="start" x="506.8" y="-810.03" font-family="Times New Roman,serif" font-size="14.00">parameter before view transformer.</text>
</g>
<!-- ViewTransformer/filter.args -->
<g id="node10" class="node">
<title>ViewTransformer/filter.args</title>
<polygon fill="pink" stroke="red" points="750.8,-749.04 480.8,-749.04 480.8,-696.04 750.8,-696.04 750.8,-749.04"/>
<text text-anchor="start" x="488.8" y="-733.84" font-family="Times New Roman,serif" font-size="14.00">id: ViewTransformer/filter.args</text>
<text text-anchor="start" x="488.8" y="-718.84" font-family="Times New Roman,serif" font-size="14.00">type: visionflow::param::ViewFilterParameters</text>
<text text-anchor="start" x="488.8" y="-703.84" font-family="Times New Roman,serif" font-size="14.00">update: 1970&#45;01&#45;01 00:00:00.0000000</text>
</g>
<!-- ViewTransformer/filter.conf&#45;&gt;ViewTransformer/filter.args -->
<g id="edge3" class="edge">
<title>ViewTransformer/filter.conf&#45;&gt;ViewTransformer/filter.args</title>
<path fill="none" stroke="black" d="M615.8,-784.88C615.8,-776.14 615.8,-767.34 615.8,-759.25"/>
<polygon fill="black" stroke="black" points="619.3,-759.09 615.8,-749.09 612.3,-759.09 619.3,-759.09"/>
</g>
<!-- ViewTransformer/transformer.conf -->
<g id="node4" class="node">
<title>ViewTransformer/transformer.conf</title>
<ellipse fill="pink" stroke="red" cx="213.8" cy="-601.35" rx="194.41" ry="58.88"/>
<text text-anchor="start" x="84.3" y="-627.65" font-family="Times New Roman,serif" font-size="14.00">id: ViewTransformer/transformer.conf</text>
<text text-anchor="start" x="84.3" y="-612.65" font-family="Times New Roman,serif" font-size="14.00">type: visionflow::confs::ViewTransformerConf</text>
<text text-anchor="start" x="84.3" y="-597.65" font-family="Times New Roman,serif" font-size="14.00">update: 1970&#45;01&#45;01 00:00:00.0000000</text>
<text text-anchor="start" x="84.3" y="-582.65" font-family="Times New Roman,serif" font-size="14.00">docs: Configurator to config the view </text>
<text text-anchor="start" x="84.3" y="-567.65" font-family="Times New Roman,serif" font-size="14.00">transformer.</text>
</g>
<!-- ViewTransformer/transformer.args -->
<g id="node11" class="node">
<title>ViewTransformer/transformer.args</title>
<polygon fill="pink" stroke="red" points="371.8,-506.66 55.8,-506.66 55.8,-423.66 371.8,-423.66 371.8,-506.66"/>
<text text-anchor="start" x="63.8" y="-491.46" font-family="Times New Roman,serif" font-size="14.00">id: ViewTransformer/transformer.args</text>
<text text-anchor="start" x="63.8" y="-476.46" font-family="Times New Roman,serif" font-size="14.00">type: visionflow::param::ViewTransformParameterList</text>
<text text-anchor="start" x="63.8" y="-461.46" font-family="Times New Roman,serif" font-size="14.00">update: 1970&#45;01&#45;01 00:00:00.0000000</text>
<text text-anchor="start" x="63.8" y="-446.46" font-family="Times New Roman,serif" font-size="14.00">docs: A container to manage list of </text>
<text text-anchor="start" x="63.8" y="-431.46" font-family="Times New Roman,serif" font-size="14.00">view transform parameters.</text>
</g>
<!-- ViewTransformer/transformer.conf&#45;&gt;ViewTransformer/transformer.args -->
<g id="edge10" class="edge">
<title>ViewTransformer/transformer.conf&#45;&gt;ViewTransformer/transformer.args</title>
<path fill="none" stroke="black" d="M213.8,-542.27C213.8,-533.9 213.8,-525.35 213.8,-517.13"/>
<polygon fill="black" stroke="black" points="217.3,-516.95 213.8,-506.95 210.3,-516.95 217.3,-516.95"/>
</g>
<!-- ViewTransformer/filtered_regions&#45;&gt;ViewTransformer/transformer -->
<g id="edge4" class="edge">
<title>ViewTransformer/filtered_regions&#45;&gt;ViewTransformer/transformer</title>
<path fill="none" stroke="black" d="M494.51,-423.65C455.29,-401.66 405.36,-373.69 358.53,-347.44"/>
<polygon fill="black" stroke="black" points="359.95,-344.22 349.51,-342.39 356.52,-350.33 359.95,-344.22"/>
</g>
<!-- ViewTransformer/image_info -->
<g id="node6" class="node">
<title>ViewTransformer/image_info</title>
<ellipse fill="lightblue" stroke="blue" cx="1.8" cy="-465.16" rx="1.8" ry="1.8"/>
</g>
<!-- ViewTransformer/image_info&#45;&gt;ViewTransformer/transformer -->
<g id="edge5" class="edge">
<title>ViewTransformer/image_info&#45;&gt;ViewTransformer/transformer</title>
<path fill="none" stroke="black" d="M1.68,-463.06C1.18,-458.1 -0.29,-437.37 7.8,-423.66 24.11,-395.99 47.34,-371.53 72.36,-350.63"/>
<polygon fill="black" stroke="black" points="74.64,-353.28 80.18,-344.25 70.21,-347.86 74.64,-353.28"/>
</g>
<!-- ViewTransformer/input_views -->
<g id="node7" class="node">
<title>ViewTransformer/input_views</title>
<ellipse fill="lightblue" stroke="blue" cx="823.8" cy="-722.54" rx="1.8" ry="1.8"/>
</g>
<!-- ViewTransformer/input_views&#45;&gt;ViewTransformer/filter -->
<g id="edge6" class="edge">
<title>ViewTransformer/input_views&#45;&gt;ViewTransformer/filter</title>
<path fill="none" stroke="black" d="M823.86,-720.42C824.01,-716.57 824.01,-703.65 817.8,-696.04 801.74,-676.33 780.6,-660.56 758.04,-648.02"/>
<polygon fill="black" stroke="black" points="759.47,-644.81 749,-643.19 756.17,-650.98 759.47,-644.81"/>
</g>
<!-- ViewTransformer/regions -->
<g id="node8" class="node">
<title>ViewTransformer/regions</title>
<ellipse fill="lightblue" stroke="blue" cx="845.8" cy="-722.54" rx="1.8" ry="1.8"/>
</g>
<!-- ViewTransformer/regions&#45;&gt;ViewTransformer/filter -->
<g id="edge7" class="edge">
<title>ViewTransformer/regions&#45;&gt;ViewTransformer/filter</title>
<path fill="none" stroke="black" d="M845.62,-720.4C844.94,-716.49 842.18,-703.39 834.8,-696.04 814.3,-675.6 788.64,-659.34 762.17,-646.49"/>
<polygon fill="black" stroke="black" points="763.32,-643.16 752.78,-642.09 760.35,-649.5 763.32,-643.16"/>
</g>
<!-- ViewTransformer/filter.args&#45;&gt;ViewTransformer/filter -->
<g id="edge2" class="edge">
<title>ViewTransformer/filter.args&#45;&gt;ViewTransformer/filter</title>
<path fill="none" stroke="black" d="M615.8,-695.97C615.8,-688.32 615.8,-679.54 615.8,-670.49"/>
<polygon fill="black" stroke="black" points="619.3,-670.2 615.8,-660.2 612.3,-670.2 619.3,-670.2"/>
</g>
<!-- ViewTransformer/transformer.args&#45;&gt;ViewTransformer/transformer -->
<g id="edge9" class="edge">
<title>ViewTransformer/transformer.args&#45;&gt;ViewTransformer/transformer</title>
<path fill="none" stroke="black" d="M213.8,-423.65C213.8,-415.85 213.8,-407.29 213.8,-398.32"/>
<polygon fill="black" stroke="black" points="217.3,-398.04 213.8,-388.04 210.3,-398.04 217.3,-398.04"/>
</g>
</g>
</svg>
