<?xml version="1.0" encoding="UTF-8" standalone="no"?>
<!DOCTYPE svg PUBLIC "-//W3C//DTD SVG 1.1//EN"
 "http://www.w3.org/Graphics/SVG/1.1/DTD/svg11.dtd">
<!-- Generated by graphviz version 6.0.1 (20220911.1526)
 -->
<!-- Title: OnlyTool: CameraCalibration Pages: 1 -->
<svg width="1294pt" height="831pt"
 viewBox="0.00 0.00 1293.80 830.93" xmlns="http://www.w3.org/2000/svg" xmlns:xlink="http://www.w3.org/1999/xlink">
<g id="graph0" class="graph" transform="scale(1 1) rotate(0) translate(4 826.93)">
<title>OnlyTool: CameraCalibration</title>
<polygon fill="white" stroke="none" points="-4,4 -4,-826.93 1289.8,-826.93 1289.8,4 -4,4"/>
<text text-anchor="middle" x="642.9" y="-7.8" font-family="Times New Roman,serif" font-size="14.00">OnlyTool: CameraCalibration</text>
<g id="clust1" class="cluster">
<title>cluster_CameraCalibration</title>
<polygon fill="none" stroke="black" points="8,-31 8,-814.93 1273,-814.93 1273,-31 8,-31"/>
<text text-anchor="middle" x="640.5" y="-799.73" font-family="Times New Roman,serif" font-size="14.00">CameraCalibration</text>
</g>
<!-- CameraCalibration/infer -->
<g id="node1" class="node">
<title>CameraCalibration/infer</title>
<ellipse fill="lightblue" stroke="blue" cx="1068" cy="-191.08" rx="196.65" ry="48.17"/>
<text text-anchor="start" x="937" y="-209.88" font-family="Times New Roman,serif" font-size="14.00">id: CameraCalibration/infer</text>
<text text-anchor="start" x="937" y="-194.88" font-family="Times New Roman,serif" font-size="14.00">type: visionflow::opers::CameraCalibrationInfer</text>
<text text-anchor="start" x="937" y="-179.88" font-family="Times New Roman,serif" font-size="14.00">update: 1970&#45;01&#45;01 00:00:00.0000000</text>
<text text-anchor="start" x="937" y="-164.88" font-family="Times New Roman,serif" font-size="14.00">docs: Camera calibrate inference engine.</text>
</g>
<!-- CameraCalibration/pred -->
<g id="node6" class="node">
<title>CameraCalibration/pred</title>
<polygon fill="none" stroke="blue" stroke-dasharray="5,2" points="1182.5,-107 953.5,-107 953.5,-39 1182.5,-39 1182.5,-107"/>
<text text-anchor="start" x="961.5" y="-91.8" font-family="Times New Roman,serif" font-size="14.00">id: CameraCalibration/pred</text>
<text text-anchor="start" x="961.5" y="-76.8" font-family="Times New Roman,serif" font-size="14.00">type: visionflow::props::Image</text>
<text text-anchor="start" x="961.5" y="-61.8" font-family="Times New Roman,serif" font-size="14.00">update: 1970&#45;01&#45;01 00:00:00.0000000</text>
<text text-anchor="start" x="961.5" y="-46.8" font-family="Times New Roman,serif" font-size="14.00">docs: Property Image implementation.</text>
</g>
<!-- CameraCalibration/infer&#45;&gt;CameraCalibration/pred -->
<g id="edge3" class="edge">
<title>CameraCalibration/infer&#45;&gt;CameraCalibration/pred</title>
<path fill="none" stroke="black" d="M1068,-142.87C1068,-134.48 1068,-125.78 1068,-117.51"/>
<polygon fill="black" stroke="black" points="1071.5,-117.3 1068,-107.3 1064.5,-117.3 1071.5,-117.3"/>
</g>
<!-- CameraCalibration/infer.conf -->
<g id="node2" class="node">
<title>CameraCalibration/infer.conf</title>
<ellipse fill="pink" stroke="red" cx="1048" cy="-452.86" rx="217.16" ry="58.88"/>
<text text-anchor="start" x="902.5" y="-479.16" font-family="Times New Roman,serif" font-size="14.00">id: CameraCalibration/infer.conf</text>
<text text-anchor="start" x="902.5" y="-464.16" font-family="Times New Roman,serif" font-size="14.00">type: visionflow::confs::CameraCalibrationInferConf</text>
<text text-anchor="start" x="902.5" y="-449.16" font-family="Times New Roman,serif" font-size="14.00">update: 1970&#45;01&#45;01 00:00:00.0000000</text>
<text text-anchor="start" x="902.5" y="-434.16" font-family="Times New Roman,serif" font-size="14.00">docs: Configurator to set Camera Calibrate </text>
<text text-anchor="start" x="902.5" y="-419.16" font-family="Times New Roman,serif" font-size="14.00">Infer options.</text>
</g>
<!-- CameraCalibration/infer.args -->
<g id="node9" class="node">
<title>CameraCalibration/infer.args</title>
<polygon fill="pink" stroke="red" points="1264.5,-358.17 921.5,-358.17 921.5,-275.17 1264.5,-275.17 1264.5,-358.17"/>
<text text-anchor="start" x="929.5" y="-342.97" font-family="Times New Roman,serif" font-size="14.00">id: CameraCalibration/infer.args</text>
<text text-anchor="start" x="929.5" y="-327.97" font-family="Times New Roman,serif" font-size="14.00">type: visionflow::param::CameraCalibrationInferParameters</text>
<text text-anchor="start" x="929.5" y="-312.97" font-family="Times New Roman,serif" font-size="14.00">update: 1970&#45;01&#45;01 00:00:00.0000000</text>
<text text-anchor="start" x="929.5" y="-297.97" font-family="Times New Roman,serif" font-size="14.00">docs: Camera calibrate Infer Parameter </text>
<text text-anchor="start" x="929.5" y="-282.97" font-family="Times New Roman,serif" font-size="14.00">Group</text>
</g>
<!-- CameraCalibration/infer.conf&#45;&gt;CameraCalibration/infer.args -->
<g id="edge5" class="edge">
<title>CameraCalibration/infer.conf&#45;&gt;CameraCalibration/infer.args</title>
<path fill="none" stroke="black" d="M1067.35,-394.17C1070.29,-385.4 1073.3,-376.4 1076.19,-367.81"/>
<polygon fill="black" stroke="black" points="1079.51,-368.9 1079.37,-358.3 1072.87,-366.67 1079.51,-368.9"/>
</g>
<!-- CameraCalibration/trainer -->
<g id="node3" class="node">
<title>CameraCalibration/trainer</title>
<ellipse fill="pink" stroke="red" cx="416" cy="-452.86" rx="206.45" ry="48.17"/>
<text text-anchor="start" x="278" y="-471.66" font-family="Times New Roman,serif" font-size="14.00">id: CameraCalibration/trainer</text>
<text text-anchor="start" x="278" y="-456.66" font-family="Times New Roman,serif" font-size="14.00">type: visionflow::confs::CameraCalibrationTrainer</text>
<text text-anchor="start" x="278" y="-441.66" font-family="Times New Roman,serif" font-size="14.00">update: 1970&#45;01&#45;01 00:00:00.0000000</text>
<text text-anchor="start" x="278" y="-426.66" font-family="Times New Roman,serif" font-size="14.00">docs: Camera Calibrate model trainer.</text>
</g>
<!-- CameraCalibration/camera_model -->
<g id="node7" class="node">
<title>CameraCalibration/camera_model</title>
<polygon fill="pink" stroke="red" points="241.5,-358.17 16.5,-358.17 16.5,-275.17 241.5,-275.17 241.5,-358.17"/>
<text text-anchor="start" x="24.5" y="-342.97" font-family="Times New Roman,serif" font-size="14.00">id: CameraCalibration/camera_model</text>
<text text-anchor="start" x="24.5" y="-327.97" font-family="Times New Roman,serif" font-size="14.00">type: visionflow::param::BinaryPacks</text>
<text text-anchor="start" x="24.5" y="-312.97" font-family="Times New Roman,serif" font-size="14.00">update: 1970&#45;01&#45;01 00:00:00.0000000</text>
<text text-anchor="start" x="24.5" y="-297.97" font-family="Times New Roman,serif" font-size="14.00">docs: A container to manage list of </text>
<text text-anchor="start" x="24.5" y="-282.97" font-family="Times New Roman,serif" font-size="14.00">binary data.</text>
</g>
<!-- CameraCalibration/trainer&#45;&gt;CameraCalibration/camera_model -->
<g id="edge6" class="edge">
<title>CameraCalibration/trainer&#45;&gt;CameraCalibration/camera_model</title>
<path fill="none" stroke="black" d="M325.59,-409.58C293.73,-394.69 257.82,-377.9 225.48,-362.78"/>
<polygon fill="black" stroke="black" points="226.56,-359.42 216.02,-358.35 223.59,-365.76 226.56,-359.42"/>
</g>
<!-- CameraCalibration/evaluation -->
<g id="node8" class="node">
<title>CameraCalibration/evaluation</title>
<polygon fill="pink" stroke="red" points="572.5,-358.17 259.5,-358.17 259.5,-275.17 572.5,-275.17 572.5,-358.17"/>
<text text-anchor="start" x="267.5" y="-342.97" font-family="Times New Roman,serif" font-size="14.00">id: CameraCalibration/evaluation</text>
<text text-anchor="start" x="267.5" y="-327.97" font-family="Times New Roman,serif" font-size="14.00">type: visionflow::param::CameraCalibrationEvaluation</text>
<text text-anchor="start" x="267.5" y="-312.97" font-family="Times New Roman,serif" font-size="14.00">update: 1970&#45;01&#45;01 00:00:00.0000000</text>
<text text-anchor="start" x="267.5" y="-297.97" font-family="Times New Roman,serif" font-size="14.00">docs: A container to manage camera calibrate </text>
<text text-anchor="start" x="267.5" y="-282.97" font-family="Times New Roman,serif" font-size="14.00">feature points.</text>
</g>
<!-- CameraCalibration/trainer&#45;&gt;CameraCalibration/evaluation -->
<g id="edge7" class="edge">
<title>CameraCalibration/trainer&#45;&gt;CameraCalibration/evaluation</title>
<path fill="none" stroke="black" d="M416,-404.55C416,-392.87 416,-380.32 416,-368.49"/>
<polygon fill="black" stroke="black" points="419.5,-368.32 416,-358.32 412.5,-368.32 419.5,-368.32"/>
</g>
<!-- CameraCalibration/pixel_scale -->
<g id="node10" class="node">
<title>CameraCalibration/pixel_scale</title>
<polygon fill="pink" stroke="red" points="903,-350.67 591,-350.67 591,-282.67 903,-282.67 903,-350.67"/>
<text text-anchor="start" x="599" y="-335.47" font-family="Times New Roman,serif" font-size="14.00">id: CameraCalibration/pixel_scale</text>
<text text-anchor="start" x="599" y="-320.47" font-family="Times New Roman,serif" font-size="14.00">type: visionflow::param::CameraCalibrationPixelScale</text>
<text text-anchor="start" x="599" y="-305.47" font-family="Times New Roman,serif" font-size="14.00">update: 1970&#45;01&#45;01 00:00:00.0000000</text>
<text text-anchor="start" x="599" y="-290.47" font-family="Times New Roman,serif" font-size="14.00">docs: Camera calibrate Pixel Scale</text>
</g>
<!-- CameraCalibration/trainer&#45;&gt;CameraCalibration/pixel_scale -->
<g id="edge8" class="edge">
<title>CameraCalibration/trainer&#45;&gt;CameraCalibration/pixel_scale</title>
<path fill="none" stroke="black" d="M517.11,-410.87C561.39,-392.91 612.96,-372.01 656.02,-354.55"/>
<polygon fill="black" stroke="black" points="657.4,-357.77 665.35,-350.77 654.77,-351.28 657.4,-357.77"/>
</g>
<!-- CameraCalibration/trainer.conf -->
<g id="node4" class="node">
<title>CameraCalibration/trainer.conf</title>
<ellipse fill="pink" stroke="red" cx="416" cy="-725.24" rx="226.05" ry="58.88"/>
<text text-anchor="start" x="264" y="-751.54" font-family="Times New Roman,serif" font-size="14.00">id: CameraCalibration/trainer.conf</text>
<text text-anchor="start" x="264" y="-736.54" font-family="Times New Roman,serif" font-size="14.00">type: visionflow::confs::CameraCalibrationTrainerConf</text>
<text text-anchor="start" x="264" y="-721.54" font-family="Times New Roman,serif" font-size="14.00">update: 1970&#45;01&#45;01 00:00:00.0000000</text>
<text text-anchor="start" x="264" y="-706.54" font-family="Times New Roman,serif" font-size="14.00">docs: Configurator to set Camera Calibrate </text>
<text text-anchor="start" x="264" y="-691.54" font-family="Times New Roman,serif" font-size="14.00">trainer options.</text>
</g>
<!-- CameraCalibration/trainer.args -->
<g id="node11" class="node">
<title>CameraCalibration/trainer.args</title>
<polygon fill="pink" stroke="red" points="597,-630.55 235,-630.55 235,-547.55 597,-547.55 597,-630.55"/>
<text text-anchor="start" x="243" y="-615.35" font-family="Times New Roman,serif" font-size="14.00">id: CameraCalibration/trainer.args</text>
<text text-anchor="start" x="243" y="-600.35" font-family="Times New Roman,serif" font-size="14.00">type: visionflow::param::CameraCalibrationTrainingParameters</text>
<text text-anchor="start" x="243" y="-585.35" font-family="Times New Roman,serif" font-size="14.00">update: 1970&#45;01&#45;01 00:00:00.0000000</text>
<text text-anchor="start" x="243" y="-570.35" font-family="Times New Roman,serif" font-size="14.00">docs: A container to manage camera calibration </text>
<text text-anchor="start" x="243" y="-555.35" font-family="Times New Roman,serif" font-size="14.00">training parameters.</text>
</g>
<!-- CameraCalibration/trainer.conf&#45;&gt;CameraCalibration/trainer.args -->
<g id="edge10" class="edge">
<title>CameraCalibration/trainer.conf&#45;&gt;CameraCalibration/trainer.args</title>
<path fill="none" stroke="black" d="M416,-666.16C416,-657.79 416,-649.23 416,-641.02"/>
<polygon fill="black" stroke="black" points="419.5,-640.84 416,-630.84 412.5,-640.84 419.5,-640.84"/>
</g>
<!-- CameraCalibration/image -->
<g id="node5" class="node">
<title>CameraCalibration/image</title>
<ellipse fill="lightblue" stroke="blue" cx="1284" cy="-316.67" rx="1.8" ry="1.8"/>
</g>
<!-- CameraCalibration/image&#45;&gt;CameraCalibration/infer -->
<g id="edge2" class="edge">
<title>CameraCalibration/image&#45;&gt;CameraCalibration/infer</title>
<path fill="none" stroke="black" d="M1284.17,-314.51C1284.88,-309.28 1287.07,-287.58 1277,-275.17 1261.14,-255.63 1240.02,-240.66 1217.3,-229.2"/>
<polygon fill="black" stroke="black" points="1218.7,-225.99 1208.17,-224.82 1215.67,-232.31 1218.7,-225.99"/>
</g>
<!-- CameraCalibration/camera_model&#45;&gt;CameraCalibration/infer -->
<g id="edge1" class="edge">
<title>CameraCalibration/camera_model&#45;&gt;CameraCalibration/infer</title>
<path fill="none" stroke="black" d="M241.75,-277.27C244.86,-276.52 247.94,-275.82 251,-275.17 457.19,-231.02 697.84,-210.15 864.3,-200.4"/>
<polygon fill="black" stroke="black" points="864.88,-203.87 874.66,-199.8 864.48,-196.88 864.88,-203.87"/>
</g>
<!-- CameraCalibration/infer.args&#45;&gt;CameraCalibration/infer -->
<g id="edge4" class="edge">
<title>CameraCalibration/infer.args&#45;&gt;CameraCalibration/infer</title>
<path fill="none" stroke="black" d="M1084.74,-274.86C1083.09,-266.67 1081.32,-257.93 1079.58,-249.3"/>
<polygon fill="black" stroke="black" points="1082.96,-248.38 1077.55,-239.27 1076.1,-249.77 1082.96,-248.38"/>
</g>
<!-- CameraCalibration/trainer.args&#45;&gt;CameraCalibration/trainer -->
<g id="edge9" class="edge">
<title>CameraCalibration/trainer.args&#45;&gt;CameraCalibration/trainer</title>
<path fill="none" stroke="black" d="M416,-547.42C416,-536.09 416,-523.56 416,-511.45"/>
<polygon fill="black" stroke="black" points="419.5,-511.42 416,-501.42 412.5,-511.42 419.5,-511.42"/>
</g>
</g>
</svg>
