<?xml version="1.0" encoding="UTF-8" standalone="no"?>
<!DOCTYPE svg PUBLIC "-//W3C//DTD SVG 1.1//EN"
 "http://www.w3.org/Graphics/SVG/1.1/DTD/svg11.dtd">
<!-- Generated by graphviz version 6.0.1 (20220911.1526)
 -->
<!-- Title: OnlyTool: GeometrySearch Pages: 1 -->
<svg width="1236pt" height="1518pt"
 viewBox="0.00 0.00 1236.00 1517.96" xmlns="http://www.w3.org/2000/svg" xmlns:xlink="http://www.w3.org/1999/xlink">
<g id="graph0" class="graph" transform="scale(1 1) rotate(0) translate(4 1513.96)">
<title>OnlyTool: GeometrySearch</title>
<polygon fill="white" stroke="none" points="-4,4 -4,-1513.96 1232,-1513.96 1232,4 -4,4"/>
<text text-anchor="middle" x="614" y="-7.8" font-family="Times New Roman,serif" font-size="14.00">OnlyTool: GeometrySearch</text>
<g id="clust1" class="cluster">
<title>cluster_GeometrySearch</title>
<polygon fill="none" stroke="black" points="20,-31 20,-1501.96 1170,-1501.96 1170,-31 20,-31"/>
<text text-anchor="middle" x="595" y="-1486.76" font-family="Times New Roman,serif" font-size="14.00">GeometrySearch</text>
</g>
<!-- GeometrySearch/infer -->
<g id="node1" class="node">
<title>GeometrySearch/infer</title>
<ellipse fill="lightblue" stroke="blue" cx="676" cy="-206.08" rx="190.42" ry="48.17"/>
<text text-anchor="start" x="549.5" y="-224.88" font-family="Times New Roman,serif" font-size="14.00">id: GeometrySearch/infer</text>
<text text-anchor="start" x="549.5" y="-209.88" font-family="Times New Roman,serif" font-size="14.00">type: visionflow::opers::GeometrySearchInfer</text>
<text text-anchor="start" x="549.5" y="-194.88" font-family="Times New Roman,serif" font-size="14.00">update: 1970&#45;01&#45;01 00:00:00.0000000</text>
<text text-anchor="start" x="549.5" y="-179.88" font-family="Times New Roman,serif" font-size="14.00">docs: GeometrySearch inference engine.</text>
</g>
<!-- GeometrySearch/pred -->
<g id="node15" class="node">
<title>GeometrySearch/pred</title>
<polygon fill="none" stroke="blue" stroke-dasharray="5,2" points="804.5,-122 547.5,-122 547.5,-39 804.5,-39 804.5,-122"/>
<text text-anchor="start" x="555.5" y="-106.8" font-family="Times New Roman,serif" font-size="14.00">id: GeometrySearch/pred</text>
<text text-anchor="start" x="555.5" y="-91.8" font-family="Times New Roman,serif" font-size="14.00">type: visionflow::props::PolygonRegionList</text>
<text text-anchor="start" x="555.5" y="-76.8" font-family="Times New Roman,serif" font-size="14.00">update: 1970&#45;01&#45;01 00:00:00.0000000</text>
<text text-anchor="start" x="555.5" y="-61.8" font-family="Times New Roman,serif" font-size="14.00">docs: List structure to manage polygon </text>
<text text-anchor="start" x="555.5" y="-46.8" font-family="Times New Roman,serif" font-size="14.00">regions.</text>
</g>
<!-- GeometrySearch/infer&#45;&gt;GeometrySearch/pred -->
<g id="edge6" class="edge">
<title>GeometrySearch/infer&#45;&gt;GeometrySearch/pred</title>
<path fill="none" stroke="black" d="M676,-157.66C676,-149.33 676,-140.64 676,-132.23"/>
<polygon fill="black" stroke="black" points="679.5,-132.16 676,-122.16 672.5,-132.16 679.5,-132.16"/>
</g>
<!-- GeometrySearch/label_oper -->
<g id="node2" class="node">
<title>GeometrySearch/label_oper</title>
<ellipse fill="lightblue" stroke="blue" cx="903" cy="-1139.9" rx="200.64" ry="58.88"/>
<text text-anchor="start" x="769" y="-1166.2" font-family="Times New Roman,serif" font-size="14.00">id: GeometrySearch/label_oper</text>
<text text-anchor="start" x="769" y="-1151.2" font-family="Times New Roman,serif" font-size="14.00">type: visionflow::opers::GeometrySearchLabeler</text>
<text text-anchor="start" x="769" y="-1136.2" font-family="Times New Roman,serif" font-size="14.00">update: 1970&#45;01&#45;01 00:00:00.0000000</text>
<text text-anchor="start" x="769" y="-1121.2" font-family="Times New Roman,serif" font-size="14.00">docs: Annotate operator for GeometrySearch </text>
<text text-anchor="start" x="769" y="-1106.2" font-family="Times New Roman,serif" font-size="14.00">tool.</text>
</g>
<!-- GeometrySearch/mask -->
<g id="node9" class="node">
<title>GeometrySearch/mask</title>
<polygon fill="lightblue" stroke="blue" points="1121.5,-845.38 864.5,-845.38 864.5,-762.38 1121.5,-762.38 1121.5,-845.38"/>
<text text-anchor="start" x="872.5" y="-830.18" font-family="Times New Roman,serif" font-size="14.00">id: GeometrySearch/mask</text>
<text text-anchor="start" x="872.5" y="-815.18" font-family="Times New Roman,serif" font-size="14.00">type: visionflow::props::PolygonRegionList</text>
<text text-anchor="start" x="872.5" y="-800.18" font-family="Times New Roman,serif" font-size="14.00">update: 1970&#45;01&#45;01 00:00:00.0000000</text>
<text text-anchor="start" x="872.5" y="-785.18" font-family="Times New Roman,serif" font-size="14.00">docs: List structure to manage polygon </text>
<text text-anchor="start" x="872.5" y="-770.18" font-family="Times New Roman,serif" font-size="14.00">regions.</text>
</g>
<!-- GeometrySearch/label_oper&#45;&gt;GeometrySearch/mask -->
<g id="edge10" class="edge">
<title>GeometrySearch/label_oper&#45;&gt;GeometrySearch/mask</title>
<path fill="none" stroke="black" d="M880.84,-1081.26C870.59,-1046.16 863.22,-1000.8 876,-962.21 889.6,-921.12 918.55,-882.04 944.25,-853.11"/>
<polygon fill="black" stroke="black" points="946.93,-855.36 951.05,-845.6 941.74,-850.66 946.93,-855.36"/>
</g>
<!-- GeometrySearch/tagged_polygons -->
<g id="node10" class="node">
<title>GeometrySearch/tagged_polygons</title>
<polygon fill="lightblue" stroke="blue" points="831.5,-1037.71 526.5,-1037.71 526.5,-969.71 831.5,-969.71 831.5,-1037.71"/>
<text text-anchor="start" x="534.5" y="-1022.51" font-family="Times New Roman,serif" font-size="14.00">id: GeometrySearch/tagged_polygons</text>
<text text-anchor="start" x="534.5" y="-1007.51" font-family="Times New Roman,serif" font-size="14.00">type: visionflow::props::TaggedPolygonList</text>
<text text-anchor="start" x="534.5" y="-992.51" font-family="Times New Roman,serif" font-size="14.00">update: 1970&#45;01&#45;01 00:00:00.0000000</text>
<text text-anchor="start" x="534.5" y="-977.51" font-family="Times New Roman,serif" font-size="14.00">docs: Property TaggedPolygonList implementation.</text>
</g>
<!-- GeometrySearch/label_oper&#45;&gt;GeometrySearch/tagged_polygons -->
<g id="edge11" class="edge">
<title>GeometrySearch/label_oper&#45;&gt;GeometrySearch/tagged_polygons</title>
<path fill="none" stroke="black" d="M816.08,-1086.82C791.76,-1072.25 765.77,-1056.69 743.04,-1043.07"/>
<polygon fill="black" stroke="black" points="744.55,-1039.89 734.17,-1037.76 740.95,-1045.9 744.55,-1039.89"/>
</g>
<!-- GeometrySearch/truth -->
<g id="node12" class="node">
<title>GeometrySearch/truth</title>
<polygon fill="lightblue" stroke="blue" points="1141.5,-1045.21 884.5,-1045.21 884.5,-962.21 1141.5,-962.21 1141.5,-1045.21"/>
<text text-anchor="start" x="892.5" y="-1030.01" font-family="Times New Roman,serif" font-size="14.00">id: GeometrySearch/truth</text>
<text text-anchor="start" x="892.5" y="-1015.01" font-family="Times New Roman,serif" font-size="14.00">type: visionflow::props::PolygonRegionList</text>
<text text-anchor="start" x="892.5" y="-1000.01" font-family="Times New Roman,serif" font-size="14.00">update: 1970&#45;01&#45;01 00:00:00.0000000</text>
<text text-anchor="start" x="892.5" y="-985.01" font-family="Times New Roman,serif" font-size="14.00">docs: List structure to manage polygon </text>
<text text-anchor="start" x="892.5" y="-970.01" font-family="Times New Roman,serif" font-size="14.00">regions.</text>
</g>
<!-- GeometrySearch/label_oper&#45;&gt;GeometrySearch/truth -->
<g id="edge12" class="edge">
<title>GeometrySearch/label_oper&#45;&gt;GeometrySearch/truth</title>
<path fill="none" stroke="black" d="M949.01,-1082.76C957.02,-1073 965.28,-1062.92 973.1,-1053.38"/>
<polygon fill="black" stroke="black" points="975.92,-1055.46 979.55,-1045.51 970.51,-1051.02 975.92,-1055.46"/>
</g>
<!-- GeometrySearch/view_tagger -->
<g id="node3" class="node">
<title>GeometrySearch/view_tagger</title>
<ellipse fill="lightblue" stroke="blue" cx="666" cy="-803.88" rx="180.12" ry="122.16"/>
<text text-anchor="start" x="546.5" y="-875.18" font-family="Times New Roman,serif" font-size="14.00">id: GeometrySearch/view_tagger</text>
<text text-anchor="start" x="546.5" y="-860.18" font-family="Times New Roman,serif" font-size="14.00">type: visionflow::opers::ViewTagger</text>
<text text-anchor="start" x="546.5" y="-845.18" font-family="Times New Roman,serif" font-size="14.00">update: 1970&#45;01&#45;01 00:00:00.0000000</text>
<text text-anchor="start" x="546.5" y="-830.18" font-family="Times New Roman,serif" font-size="14.00">docs: Operator used to tag the views </text>
<text text-anchor="start" x="546.5" y="-815.18" font-family="Times New Roman,serif" font-size="14.00">with some already tagged polygons </text>
<text text-anchor="start" x="546.5" y="-800.18" font-family="Times New Roman,serif" font-size="14.00">automatically. The spilt_tag and </text>
<text text-anchor="start" x="546.5" y="-785.18" font-family="Times New Roman,serif" font-size="14.00">tags of the most matched tagged_polygon </text>
<text text-anchor="start" x="546.5" y="-770.18" font-family="Times New Roman,serif" font-size="14.00">selected using CIou will be set </text>
<text text-anchor="start" x="546.5" y="-755.18" font-family="Times New Roman,serif" font-size="14.00">to the view, otherwise, the view </text>
<text text-anchor="start" x="546.5" y="-740.18" font-family="Times New Roman,serif" font-size="14.00">will remain its original spilt_tag </text>
<text text-anchor="start" x="546.5" y="-725.18" font-family="Times New Roman,serif" font-size="14.00">and tags info.</text>
</g>
<!-- GeometrySearch/tagged_views -->
<g id="node11" class="node">
<title>GeometrySearch/tagged_views</title>
<polygon fill="lightblue" stroke="blue" points="873.5,-638.05 628.5,-638.05 628.5,-570.05 873.5,-570.05 873.5,-638.05"/>
<text text-anchor="start" x="636.5" y="-622.85" font-family="Times New Roman,serif" font-size="14.00">id: GeometrySearch/tagged_views</text>
<text text-anchor="start" x="636.5" y="-607.85" font-family="Times New Roman,serif" font-size="14.00">type: visionflow::props::ViewList</text>
<text text-anchor="start" x="636.5" y="-592.85" font-family="Times New Roman,serif" font-size="14.00">update: 1970&#45;01&#45;01 00:00:00.0000000</text>
<text text-anchor="start" x="636.5" y="-577.85" font-family="Times New Roman,serif" font-size="14.00">docs: Property ViewList implementation.</text>
</g>
<!-- GeometrySearch/view_tagger&#45;&gt;GeometrySearch/tagged_views -->
<g id="edge24" class="edge">
<title>GeometrySearch/view_tagger&#45;&gt;GeometrySearch/tagged_views</title>
<path fill="none" stroke="black" d="M716.18,-686.08C722.02,-672.49 727.66,-659.36 732.64,-647.77"/>
<polygon fill="black" stroke="black" points="735.93,-648.99 736.66,-638.42 729.5,-646.23 735.93,-648.99"/>
</g>
<!-- GeometrySearch/infer.conf -->
<g id="node4" class="node">
<title>GeometrySearch/infer.conf</title>
<ellipse fill="pink" stroke="red" cx="346" cy="-467.86" rx="210.02" ry="58.88"/>
<text text-anchor="start" x="205.5" y="-494.16" font-family="Times New Roman,serif" font-size="14.00">id: GeometrySearch/infer.conf</text>
<text text-anchor="start" x="205.5" y="-479.16" font-family="Times New Roman,serif" font-size="14.00">type: visionflow::confs::GeometrySearchInferConf</text>
<text text-anchor="start" x="205.5" y="-464.16" font-family="Times New Roman,serif" font-size="14.00">update: 1970&#45;01&#45;01 00:00:00.0000000</text>
<text text-anchor="start" x="205.5" y="-449.16" font-family="Times New Roman,serif" font-size="14.00">docs: Configurator to set GeometrySearch </text>
<text text-anchor="start" x="205.5" y="-434.16" font-family="Times New Roman,serif" font-size="14.00">inference parameters.</text>
</g>
<!-- GeometrySearch/infer.args -->
<g id="node18" class="node">
<title>GeometrySearch/infer.args</title>
<polygon fill="pink" stroke="red" points="512.5,-358.17 179.5,-358.17 179.5,-305.17 512.5,-305.17 512.5,-358.17"/>
<text text-anchor="start" x="187.5" y="-342.97" font-family="Times New Roman,serif" font-size="14.00">id: GeometrySearch/infer.args</text>
<text text-anchor="start" x="187.5" y="-327.97" font-family="Times New Roman,serif" font-size="14.00">type: visionflow::param::GeometrySearchInferParameters</text>
<text text-anchor="start" x="187.5" y="-312.97" font-family="Times New Roman,serif" font-size="14.00">update: 1970&#45;01&#45;01 00:00:00.0000000</text>
</g>
<!-- GeometrySearch/infer.conf&#45;&gt;GeometrySearch/infer.args -->
<g id="edge8" class="edge">
<title>GeometrySearch/infer.conf&#45;&gt;GeometrySearch/infer.args</title>
<path fill="none" stroke="black" d="M346,-408.78C346,-395.19 346,-381.1 346,-368.8"/>
<polygon fill="black" stroke="black" points="349.5,-368.49 346,-358.49 342.5,-368.5 349.5,-368.49"/>
</g>
<!-- GeometrySearch/label_classes.conf -->
<g id="node5" class="node">
<title>GeometrySearch/label_classes.conf</title>
<ellipse fill="pink" stroke="red" cx="985" cy="-1412.27" rx="177.47" ry="58.88"/>
<text text-anchor="start" x="867.5" y="-1438.57" font-family="Times New Roman,serif" font-size="14.00">id: GeometrySearch/label_classes.conf</text>
<text text-anchor="start" x="867.5" y="-1423.57" font-family="Times New Roman,serif" font-size="14.00">type: visionflow::confs::LabelClassesConf</text>
<text text-anchor="start" x="867.5" y="-1408.57" font-family="Times New Roman,serif" font-size="14.00">update: 1970&#45;01&#45;01 00:00:00.0000000</text>
<text text-anchor="start" x="867.5" y="-1393.57" font-family="Times New Roman,serif" font-size="14.00">docs: Configurator class to generate </text>
<text text-anchor="start" x="867.5" y="-1378.57" font-family="Times New Roman,serif" font-size="14.00">label classes parameter.</text>
</g>
<!-- GeometrySearch/classes -->
<g id="node16" class="node">
<title>GeometrySearch/classes</title>
<polygon fill="pink" stroke="red" points="1111.5,-1310.08 858.5,-1310.08 858.5,-1242.08 1111.5,-1242.08 1111.5,-1310.08"/>
<text text-anchor="start" x="866.5" y="-1294.88" font-family="Times New Roman,serif" font-size="14.00">id: GeometrySearch/classes</text>
<text text-anchor="start" x="866.5" y="-1279.88" font-family="Times New Roman,serif" font-size="14.00">type: visionflow::param::LabelClasses</text>
<text text-anchor="start" x="866.5" y="-1264.88" font-family="Times New Roman,serif" font-size="14.00">update: 1970&#45;01&#45;01 00:00:00.0000000</text>
<text text-anchor="start" x="866.5" y="-1249.88" font-family="Times New Roman,serif" font-size="14.00">docs: A container to manage label classes.</text>
</g>
<!-- GeometrySearch/label_classes.conf&#45;&gt;GeometrySearch/classes -->
<g id="edge9" class="edge">
<title>GeometrySearch/label_classes.conf&#45;&gt;GeometrySearch/classes</title>
<path fill="none" stroke="black" d="M985,-1353.2C985,-1342.15 985,-1330.77 985,-1320.28"/>
<polygon fill="black" stroke="black" points="988.5,-1320.14 985,-1310.14 981.5,-1320.14 988.5,-1320.14"/>
</g>
<!-- GeometrySearch/label_oper.conf -->
<g id="node6" class="node">
<title>GeometrySearch/label_oper.conf</title>
<ellipse fill="pink" stroke="red" cx="630" cy="-1412.27" rx="159.2" ry="58.88"/>
<text text-anchor="start" x="525.5" y="-1438.57" font-family="Times New Roman,serif" font-size="14.00">id: GeometrySearch/label_oper.conf</text>
<text text-anchor="start" x="525.5" y="-1423.57" font-family="Times New Roman,serif" font-size="14.00">type: visionflow::confs::CustomConf</text>
<text text-anchor="start" x="525.5" y="-1408.57" font-family="Times New Roman,serif" font-size="14.00">update: 1970&#45;01&#45;01 00:00:00.0000000</text>
<text text-anchor="start" x="525.5" y="-1393.57" font-family="Times New Roman,serif" font-size="14.00">docs: Configurator class to generate </text>
<text text-anchor="start" x="525.5" y="-1378.57" font-family="Times New Roman,serif" font-size="14.00">any user&#45;defined parameters</text>
</g>
<!-- GeometrySearch/label_oper.args -->
<g id="node19" class="node">
<title>GeometrySearch/label_oper.args</title>
<polygon fill="pink" stroke="red" points="791.5,-1317.58 566.5,-1317.58 566.5,-1234.58 791.5,-1234.58 791.5,-1317.58"/>
<text text-anchor="start" x="574.5" y="-1302.38" font-family="Times New Roman,serif" font-size="14.00">id: GeometrySearch/label_oper.args</text>
<text text-anchor="start" x="574.5" y="-1287.38" font-family="Times New Roman,serif" font-size="14.00">type: visionflow::param::BinaryPacks</text>
<text text-anchor="start" x="574.5" y="-1272.38" font-family="Times New Roman,serif" font-size="14.00">update: 1970&#45;01&#45;01 00:00:00.0000000</text>
<text text-anchor="start" x="574.5" y="-1257.38" font-family="Times New Roman,serif" font-size="14.00">docs: A container to manage list of </text>
<text text-anchor="start" x="574.5" y="-1242.38" font-family="Times New Roman,serif" font-size="14.00">binary data.</text>
</g>
<!-- GeometrySearch/label_oper.conf&#45;&gt;GeometrySearch/label_oper.args -->
<g id="edge14" class="edge">
<title>GeometrySearch/label_oper.conf&#45;&gt;GeometrySearch/label_oper.args</title>
<path fill="none" stroke="black" d="M650.92,-1353.98C654.14,-1345.18 657.43,-1336.15 660.59,-1327.51"/>
<polygon fill="black" stroke="black" points="663.93,-1328.56 664.07,-1317.97 657.35,-1326.16 663.93,-1328.56"/>
</g>
<!-- GeometrySearch/trainer -->
<g id="node7" class="node">
<title>GeometrySearch/trainer</title>
<ellipse fill="pink" stroke="red" cx="963" cy="-467.86" rx="199.31" ry="48.17"/>
<text text-anchor="start" x="830" y="-486.66" font-family="Times New Roman,serif" font-size="14.00">id: GeometrySearch/trainer</text>
<text text-anchor="start" x="830" y="-471.66" font-family="Times New Roman,serif" font-size="14.00">type: visionflow::confs::GeometrySearchTrainer</text>
<text text-anchor="start" x="830" y="-456.66" font-family="Times New Roman,serif" font-size="14.00">update: 1970&#45;01&#45;01 00:00:00.0000000</text>
<text text-anchor="start" x="830" y="-441.66" font-family="Times New Roman,serif" font-size="14.00">docs: GeometrySearch model trainer.</text>
</g>
<!-- GeometrySearch/feature_model_list -->
<g id="node17" class="node">
<title>GeometrySearch/feature_model_list</title>
<polygon fill="pink" stroke="red" points="875,-373.17 531,-373.17 531,-290.17 875,-290.17 875,-373.17"/>
<text text-anchor="start" x="539" y="-357.97" font-family="Times New Roman,serif" font-size="14.00">id: GeometrySearch/feature_model_list</text>
<text text-anchor="start" x="539" y="-342.97" font-family="Times New Roman,serif" font-size="14.00">type: visionflow::param::GeometrySearchFeatureModelList</text>
<text text-anchor="start" x="539" y="-327.97" font-family="Times New Roman,serif" font-size="14.00">update: 1970&#45;01&#45;01 00:00:00.0000000</text>
<text text-anchor="start" x="539" y="-312.97" font-family="Times New Roman,serif" font-size="14.00">docs: A data structure to store list </text>
<text text-anchor="start" x="539" y="-297.97" font-family="Times New Roman,serif" font-size="14.00">of template match feature chains.</text>
</g>
<!-- GeometrySearch/trainer&#45;&gt;GeometrySearch/feature_model_list -->
<g id="edge19" class="edge">
<title>GeometrySearch/trainer&#45;&gt;GeometrySearch/feature_model_list</title>
<path fill="none" stroke="black" d="M880.02,-424.03C851.59,-409.36 819.69,-392.89 790.89,-378.03"/>
<polygon fill="black" stroke="black" points="792.14,-374.74 781.65,-373.26 788.93,-380.96 792.14,-374.74"/>
</g>
<!-- GeometrySearch/model -->
<g id="node20" class="node">
<title>GeometrySearch/model</title>
<polygon fill="pink" stroke="red" points="1118.5,-373.17 893.5,-373.17 893.5,-290.17 1118.5,-290.17 1118.5,-373.17"/>
<text text-anchor="start" x="901.5" y="-357.97" font-family="Times New Roman,serif" font-size="14.00">id: GeometrySearch/model</text>
<text text-anchor="start" x="901.5" y="-342.97" font-family="Times New Roman,serif" font-size="14.00">type: visionflow::param::BinaryPacks</text>
<text text-anchor="start" x="901.5" y="-327.97" font-family="Times New Roman,serif" font-size="14.00">update: 1970&#45;01&#45;01 00:00:00.0000000</text>
<text text-anchor="start" x="901.5" y="-312.97" font-family="Times New Roman,serif" font-size="14.00">docs: A container to manage list of </text>
<text text-anchor="start" x="901.5" y="-297.97" font-family="Times New Roman,serif" font-size="14.00">binary data.</text>
</g>
<!-- GeometrySearch/trainer&#45;&gt;GeometrySearch/model -->
<g id="edge20" class="edge">
<title>GeometrySearch/trainer&#45;&gt;GeometrySearch/model</title>
<path fill="none" stroke="black" d="M978.16,-419.55C981.94,-407.76 986,-395.07 989.83,-383.13"/>
<polygon fill="black" stroke="black" points="993.25,-383.91 992.97,-373.32 986.59,-381.78 993.25,-383.91"/>
</g>
<!-- GeometrySearch/trainer.conf -->
<g id="node8" class="node">
<title>GeometrySearch/trainer.conf</title>
<ellipse fill="pink" stroke="red" cx="248" cy="-803.88" rx="219.82" ry="58.88"/>
<text text-anchor="start" x="100.5" y="-830.18" font-family="Times New Roman,serif" font-size="14.00">id: GeometrySearch/trainer.conf</text>
<text text-anchor="start" x="100.5" y="-815.18" font-family="Times New Roman,serif" font-size="14.00">type: visionflow::confs::GeometrySearchTrainerConf</text>
<text text-anchor="start" x="100.5" y="-800.18" font-family="Times New Roman,serif" font-size="14.00">update: 1970&#45;01&#45;01 00:00:00.0000000</text>
<text text-anchor="start" x="100.5" y="-785.18" font-family="Times New Roman,serif" font-size="14.00">docs: Configurator to set GeometrySearch </text>
<text text-anchor="start" x="100.5" y="-770.18" font-family="Times New Roman,serif" font-size="14.00">trainer options.</text>
</g>
<!-- GeometrySearch/trainer.args -->
<g id="node21" class="node">
<title>GeometrySearch/trainer.args</title>
<polygon fill="pink" stroke="red" points="517.5,-645.55 164.5,-645.55 164.5,-562.55 517.5,-562.55 517.5,-645.55"/>
<text text-anchor="start" x="172.5" y="-630.35" font-family="Times New Roman,serif" font-size="14.00">id: GeometrySearch/trainer.args</text>
<text text-anchor="start" x="172.5" y="-615.35" font-family="Times New Roman,serif" font-size="14.00">type: visionflow::param::GeometrySearchTrainingParameters</text>
<text text-anchor="start" x="172.5" y="-600.35" font-family="Times New Roman,serif" font-size="14.00">update: 1970&#45;01&#45;01 00:00:00.0000000</text>
<text text-anchor="start" x="172.5" y="-585.35" font-family="Times New Roman,serif" font-size="14.00">docs: GeometrySearch Training &#160;Parameter </text>
<text text-anchor="start" x="172.5" y="-570.35" font-family="Times New Roman,serif" font-size="14.00">Group</text>
</g>
<!-- GeometrySearch/trainer.conf&#45;&gt;GeometrySearch/trainer.args -->
<g id="edge22" class="edge">
<title>GeometrySearch/trainer.conf&#45;&gt;GeometrySearch/trainer.args</title>
<path fill="none" stroke="black" d="M275.02,-745.39C288.52,-716.69 304.68,-682.31 317.63,-654.77"/>
<polygon fill="black" stroke="black" points="320.8,-656.24 321.89,-645.7 314.47,-653.26 320.8,-656.24"/>
</g>
<!-- GeometrySearch/mask&#45;&gt;GeometrySearch/trainer -->
<g id="edge15" class="edge">
<title>GeometrySearch/mask&#45;&gt;GeometrySearch/trainer</title>
<path fill="none" stroke="black" d="M989.35,-762.25C984.05,-703.21 974.19,-593.43 968.15,-526.19"/>
<polygon fill="black" stroke="black" points="971.63,-525.82 967.25,-516.18 964.66,-526.45 971.63,-525.82"/>
</g>
<!-- GeometrySearch/tagged_polygons&#45;&gt;GeometrySearch/view_tagger -->
<g id="edge17" class="edge">
<title>GeometrySearch/tagged_polygons&#45;&gt;GeometrySearch/view_tagger</title>
<path fill="none" stroke="black" d="M676.82,-969.59C676.19,-959.88 675.45,-948.62 674.66,-936.64"/>
<polygon fill="black" stroke="black" points="678.14,-936.17 673.99,-926.42 671.15,-936.63 678.14,-936.17"/>
</g>
<!-- GeometrySearch/tagged_views&#45;&gt;GeometrySearch/trainer -->
<g id="edge18" class="edge">
<title>GeometrySearch/tagged_views&#45;&gt;GeometrySearch/trainer</title>
<path fill="none" stroke="black" d="M803.4,-569.88C827.86,-554.4 857.47,-535.65 884.52,-518.53"/>
<polygon fill="black" stroke="black" points="886.62,-521.34 893.2,-513.04 882.88,-515.43 886.62,-521.34"/>
</g>
<!-- GeometrySearch/truth&#45;&gt;GeometrySearch/trainer -->
<g id="edge23" class="edge">
<title>GeometrySearch/truth&#45;&gt;GeometrySearch/trainer</title>
<path fill="none" stroke="black" d="M1099.09,-962.01C1111.91,-952.12 1123.36,-940.26 1131,-926.21 1156.96,-878.44 1148.84,-732.91 1131,-681.55 1109.35,-619.2 1060.98,-561.32 1021.68,-521.73"/>
<polygon fill="black" stroke="black" points="1024.02,-519.12 1014.46,-514.55 1019.09,-524.08 1024.02,-519.12"/>
</g>
<!-- GeometrySearch/image -->
<g id="node13" class="node">
<title>GeometrySearch/image</title>
<ellipse fill="lightblue" stroke="blue" cx="1190" cy="-1276.08" rx="1.8" ry="1.8"/>
</g>
<!-- GeometrySearch/image&#45;&gt;GeometrySearch/infer -->
<g id="edge3" class="edge">
<title>GeometrySearch/image&#45;&gt;GeometrySearch/infer</title>
<path fill="none" stroke="black" d="M1190.24,-1274.12C1193.48,-1261.17 1228,-1120.37 1228,-1004.71 1228,-1004.71 1228,-1004.71 1228,-466.86 1228,-376.62 1201.5,-342.51 1128,-290.17 1085.3,-259.76 967.37,-238.68 862.68,-225.37"/>
<polygon fill="black" stroke="black" points="862.95,-221.87 852.6,-224.1 862.08,-228.82 862.95,-221.87"/>
</g>
<!-- GeometrySearch/image&#45;&gt;GeometrySearch/label_oper -->
<g id="edge4" class="edge">
<title>GeometrySearch/image&#45;&gt;GeometrySearch/label_oper</title>
<path fill="none" stroke="black" d="M1189.89,-1273.89C1189.31,-1268.52 1186.23,-1246.3 1174,-1234.58 1147.18,-1208.91 1112.99,-1190.24 1077.99,-1176.67"/>
<polygon fill="black" stroke="black" points="1079.19,-1173.38 1068.59,-1173.16 1076.73,-1179.94 1079.19,-1173.38"/>
</g>
<!-- GeometrySearch/image&#45;&gt;GeometrySearch/trainer -->
<g id="edge5" class="edge">
<title>GeometrySearch/image&#45;&gt;GeometrySearch/trainer</title>
<path fill="none" stroke="black" d="M1190,-1274.11C1190,-1261.07 1190,-1119.24 1190,-1004.71 1190,-1004.71 1190,-1004.71 1190,-802.88 1190,-691.87 1193.19,-647.72 1122,-562.55 1106.72,-544.26 1086.89,-528.69 1066.46,-515.81"/>
<polygon fill="black" stroke="black" points="1068.03,-512.67 1057.67,-510.45 1064.39,-518.65 1068.03,-512.67"/>
</g>
<!-- GeometrySearch/views -->
<g id="node14" class="node">
<title>GeometrySearch/views</title>
<ellipse fill="lightblue" stroke="blue" cx="5" cy="-1003.71" rx="1.8" ry="1.8"/>
</g>
<!-- GeometrySearch/views&#45;&gt;GeometrySearch/infer -->
<g id="edge25" class="edge">
<title>GeometrySearch/views&#45;&gt;GeometrySearch/infer</title>
<path fill="none" stroke="black" d="M4.98,-1001.71C4.62,-985.51 0,-774.89 0,-605.05 0,-605.05 0,-605.05 0,-466.86 0,-357.57 74.19,-340.86 171,-290.17 225.6,-261.58 369.32,-239.57 489.53,-225.42"/>
<polygon fill="black" stroke="black" points="490.09,-228.87 499.61,-224.24 489.28,-221.92 490.09,-228.87"/>
</g>
<!-- GeometrySearch/views&#45;&gt;GeometrySearch/view_tagger -->
<g id="edge26" class="edge">
<title>GeometrySearch/views&#45;&gt;GeometrySearch/view_tagger</title>
<path fill="none" stroke="black" d="M4.88,-1001.45C4.44,-995.82 3.43,-972.62 16,-962.21 95.14,-896.66 379.6,-958.95 477,-926.21 497.03,-919.47 517.05,-910.15 536.17,-899.64"/>
<polygon fill="black" stroke="black" points="537.89,-902.69 544.89,-894.73 534.46,-896.59 537.89,-902.69"/>
</g>
<!-- GeometrySearch/classes&#45;&gt;GeometrySearch/label_oper -->
<g id="edge1" class="edge">
<title>GeometrySearch/classes&#45;&gt;GeometrySearch/label_oper</title>
<path fill="none" stroke="black" d="M964.73,-1241.91C958.17,-1231.17 950.64,-1218.86 943.15,-1206.6"/>
<polygon fill="black" stroke="black" points="945.92,-1204.42 937.72,-1197.71 939.95,-1208.07 945.92,-1204.42"/>
</g>
<!-- GeometrySearch/classes&#45;&gt;GeometrySearch/trainer -->
<g id="edge2" class="edge">
<title>GeometrySearch/classes&#45;&gt;GeometrySearch/trainer</title>
<path fill="none" stroke="black" d="M1062.51,-1241.96C1081.39,-1230.64 1099.9,-1216.27 1113,-1198.58 1165.83,-1127.25 1161,-1093.48 1161,-1004.71 1161,-1004.71 1161,-1004.71 1161,-802.88 1161,-691.75 1161.64,-649.14 1092,-562.55 1078.96,-546.33 1062.45,-531.55 1045.63,-518.77"/>
<polygon fill="black" stroke="black" points="1047.49,-515.79 1037.36,-512.66 1043.32,-521.42 1047.49,-515.79"/>
</g>
<!-- GeometrySearch/infer.args&#45;&gt;GeometrySearch/infer -->
<g id="edge7" class="edge">
<title>GeometrySearch/infer.args&#45;&gt;GeometrySearch/infer</title>
<path fill="none" stroke="black" d="M414.38,-305.06C456.94,-289.12 512.75,-268.22 561.89,-249.82"/>
<polygon fill="black" stroke="black" points="563.17,-253.08 571.3,-246.29 560.71,-246.52 563.17,-253.08"/>
</g>
<!-- GeometrySearch/label_oper.args&#45;&gt;GeometrySearch/label_oper -->
<g id="edge13" class="edge">
<title>GeometrySearch/label_oper.args&#45;&gt;GeometrySearch/label_oper</title>
<path fill="none" stroke="black" d="M746.82,-1234.46C765.86,-1223.05 786.93,-1210.43 807.27,-1198.25"/>
<polygon fill="black" stroke="black" points="809.15,-1201.2 815.93,-1193.05 805.55,-1195.19 809.15,-1201.2"/>
</g>
<!-- GeometrySearch/model&#45;&gt;GeometrySearch/infer -->
<g id="edge16" class="edge">
<title>GeometrySearch/model&#45;&gt;GeometrySearch/infer</title>
<path fill="none" stroke="black" d="M897.49,-290.03C863.15,-277.17 825.09,-262.92 790.35,-249.91"/>
<polygon fill="black" stroke="black" points="791.24,-246.5 780.65,-246.27 788.79,-253.06 791.24,-246.5"/>
</g>
<!-- GeometrySearch/trainer.args&#45;&gt;GeometrySearch/trainer -->
<g id="edge21" class="edge">
<title>GeometrySearch/trainer.args&#45;&gt;GeometrySearch/trainer</title>
<path fill="none" stroke="black" d="M517.58,-564.95C608.62,-545.31 718.7,-521.56 806.65,-502.59"/>
<polygon fill="black" stroke="black" points="807.41,-506 816.44,-500.47 805.93,-499.16 807.41,-506"/>
</g>
</g>
</svg>
